<?xml version="1.0" encoding="UTF-8"?><svg xmlns="http://www.w3.org/2000/svg" xmlns:xlink="http://www.w3.org/1999/xlink" stroke-dasharray="none" shape-rendering="auto" font-family="'Dialog'" width="877" text-rendering="auto" fill-opacity="1" contentScriptType="text/ecmascript" color-interpolation="auto" color-rendering="auto" preserveAspectRatio="xMidYMid meet" font-size="12px" viewBox="0 0 877 1020" fill="black" stroke="black" image-rendering="auto" stroke-miterlimit="10" zoomAndPan="magnify" version="1.0" stroke-linecap="square" stroke-linejoin="miter" contentStyleType="text/css" font-style="normal" height="1020" stroke-width="1" stroke-dashoffset="0" font-weight="normal" stroke-opacity="1">
    <!--Generated by the Batik Graphics2D SVG Generator-->
    <defs id="genericDefs"/>
    <g>
        <defs id="defs1">
            <linearGradient x1="10" x2="10" y1="10" gradientUnits="userSpaceOnUse" y2="767" xlink:type="simple" xlink:actuate="onLoad" id="linearGradient1" xlink:show="other" spreadMethod="pad">
                <stop stop-opacity="1" stop-color="white" offset="0%"/>
                <stop stop-opacity="1" stop-color="white" offset="100%"/>
            </linearGradient>
            <linearGradient x1="70" x2="70" y1="40" gradientUnits="userSpaceOnUse" y2="740" xlink:type="simple" xlink:actuate="onLoad" id="linearGradient2" xlink:show="other" spreadMethod="pad">
                <stop stop-opacity="1" stop-color="white" offset="0%"/>
                <stop stop-opacity="1" stop-color="rgb(195,209,213)" offset="100%"/>
            </linearGradient>
            <linearGradient x1="210" x2="210" y1="40" gradientUnits="userSpaceOnUse" y2="740" xlink:type="simple" xlink:actuate="onLoad" id="linearGradient3" xlink:show="other" spreadMethod="pad">
                <stop stop-opacity="1" stop-color="white" offset="0%"/>
                <stop stop-opacity="1" stop-color="rgb(195,209,213)" offset="100%"/>
            </linearGradient>
            <linearGradient x1="250" x2="250" y1="110" gradientUnits="userSpaceOnUse" y2="210" xlink:type="simple" xlink:actuate="onLoad" id="linearGradient4" xlink:show="other" spreadMethod="pad">
                <stop stop-opacity="1" stop-color="white" offset="0%"/>
                <stop stop-opacity="1" stop-color="rgb(195,209,213)" offset="100%"/>
            </linearGradient>
            <linearGradient x1="350" x2="350" y1="40" gradientUnits="userSpaceOnUse" y2="740" xlink:type="simple" xlink:actuate="onLoad" id="linearGradient5" xlink:show="other" spreadMethod="pad">
                <stop stop-opacity="1" stop-color="white" offset="0%"/>
                <stop stop-opacity="1" stop-color="rgb(195,209,213)" offset="100%"/>
            </linearGradient>
            <linearGradient x1="390" x2="390" y1="210" gradientUnits="userSpaceOnUse" y2="310" xlink:type="simple" xlink:actuate="onLoad" id="linearGradient6" xlink:show="other" spreadMethod="pad">
                <stop stop-opacity="1" stop-color="white" offset="0%"/>
                <stop stop-opacity="1" stop-color="rgb(195,209,213)" offset="100%"/>
            </linearGradient>
            <linearGradient x1="510" x2="510" y1="40" gradientUnits="userSpaceOnUse" y2="740" xlink:type="simple" xlink:actuate="onLoad" id="linearGradient7" xlink:show="other" spreadMethod="pad">
                <stop stop-opacity="1" stop-color="white" offset="0%"/>
                <stop stop-opacity="1" stop-color="rgb(195,209,213)" offset="100%"/>
            </linearGradient>
            <linearGradient x1="550" x2="550" y1="310" gradientUnits="userSpaceOnUse" y2="410" xlink:type="simple" xlink:actuate="onLoad" id="linearGradient8" xlink:show="other" spreadMethod="pad">
                <stop stop-opacity="1" stop-color="white" offset="0%"/>
                <stop stop-opacity="1" stop-color="rgb(195,209,213)" offset="100%"/>
            </linearGradient>
            <linearGradient x1="670" x2="670" y1="40" gradientUnits="userSpaceOnUse" y2="740" xlink:type="simple" xlink:actuate="onLoad" id="linearGradient9" xlink:show="other" spreadMethod="pad">
                <stop stop-opacity="1" stop-color="white" offset="0%"/>
                <stop stop-opacity="1" stop-color="rgb(195,209,213)" offset="100%"/>
            </linearGradient>
            <linearGradient x1="710" x2="710" y1="410" gradientUnits="userSpaceOnUse" y2="510" xlink:type="simple" xlink:actuate="onLoad" id="linearGradient10" xlink:show="other" spreadMethod="pad">
                <stop stop-opacity="1" stop-color="white" offset="0%"/>
                <stop stop-opacity="1" stop-color="rgb(195,209,213)" offset="100%"/>
            </linearGradient>
            <clipPath clipPathUnits="userSpaceOnUse" id="clipPath1">
                <path d="M10 10 L10 766 L866 766 L866 10 Z"/>
            </clipPath>
            <clipPath clipPathUnits="userSpaceOnUse" id="clipPath2">
                <path d="M7 7 L870 7 L870 770 L7 770 L7 7 Z"/>
            </clipPath>
            <clipPath clipPathUnits="userSpaceOnUse" id="clipPath3">
                <path d="M15 12 L88 12 L88 25 L15 25 L15 12 Z"/>
            </clipPath>
            <clipPath clipPathUnits="userSpaceOnUse" id="clipPath4">
                <path d="M69 39 L171 39 L171 741 L69 741 L69 39 Z"/>
            </clipPath>
            <clipPath clipPathUnits="userSpaceOnUse" id="clipPath5">
                <path d="M70 40 L70 739 L169 739 L169 40 Z"/>
            </clipPath>
            <clipPath clipPathUnits="userSpaceOnUse" id="clipPath6">
                <path d="M95 42 L146 42 L146 55 L95 55 L95 42 Z"/>
            </clipPath>
            <clipPath clipPathUnits="userSpaceOnUse" id="clipPath7">
                <path d="M209 39 L311 39 L311 741 L209 741 L209 39 Z"/>
            </clipPath>
            <clipPath clipPathUnits="userSpaceOnUse" id="clipPath8">
                <path d="M210 40 L210 739 L309 739 L309 40 Z"/>
            </clipPath>
            <clipPath clipPathUnits="userSpaceOnUse" id="clipPath9">
                <path d="M211 42 L311 42 L311 55 L211 55 L211 42 Z"/>
            </clipPath>
            <clipPath clipPathUnits="userSpaceOnUse" id="clipPath10">
                <path d="M250 110 L250 209 L269 209 L269 110 Z"/>
            </clipPath>
            <clipPath clipPathUnits="userSpaceOnUse" id="clipPath11">
                <path d="M249 109 L271 109 L271 211 L249 211 L249 109 Z"/>
            </clipPath>
            <clipPath clipPathUnits="userSpaceOnUse" id="clipPath12">
                <path d="M349 39 L451 39 L451 741 L349 741 L349 39 Z"/>
            </clipPath>
            <clipPath clipPathUnits="userSpaceOnUse" id="clipPath13">
                <path d="M350 40 L350 739 L449 739 L449 40 Z"/>
            </clipPath>
            <clipPath clipPathUnits="userSpaceOnUse" id="clipPath14">
                <path d="M351 42 L451 42 L451 55 L351 55 L351 42 Z"/>
            </clipPath>
            <clipPath clipPathUnits="userSpaceOnUse" id="clipPath15">
                <path d="M390 210 L390 309 L409 309 L409 210 Z"/>
            </clipPath>
            <clipPath clipPathUnits="userSpaceOnUse" id="clipPath16">
                <path d="M389 209 L411 209 L411 311 L389 311 L389 209 Z"/>
            </clipPath>
            <clipPath clipPathUnits="userSpaceOnUse" id="clipPath17">
                <path d="M509 39 L611 39 L611 741 L509 741 L509 39 Z"/>
            </clipPath>
            <clipPath clipPathUnits="userSpaceOnUse" id="clipPath18">
                <path d="M510 40 L510 739 L609 739 L609 40 Z"/>
            </clipPath>
            <clipPath clipPathUnits="userSpaceOnUse" id="clipPath19">
                <path d="M510 42 L611 42 L611 55 L510 55 L510 42 Z"/>
            </clipPath>
            <clipPath clipPathUnits="userSpaceOnUse" id="clipPath20">
                <path d="M550 310 L550 409 L569 409 L569 310 Z"/>
            </clipPath>
            <clipPath clipPathUnits="userSpaceOnUse" id="clipPath21">
                <path d="M549 309 L571 309 L571 411 L549 411 L549 309 Z"/>
            </clipPath>
            <clipPath clipPathUnits="userSpaceOnUse" id="clipPath22">
                <path d="M669 39 L771 39 L771 741 L669 741 L669 39 Z"/>
            </clipPath>
            <clipPath clipPathUnits="userSpaceOnUse" id="clipPath23">
                <path d="M670 40 L670 739 L769 739 L769 40 Z"/>
            </clipPath>
            <clipPath clipPathUnits="userSpaceOnUse" id="clipPath24">
                <path d="M672 42 L770 42 L770 55 L672 55 L672 42 Z"/>
            </clipPath>
            <clipPath clipPathUnits="userSpaceOnUse" id="clipPath25">
                <path d="M710 410 L710 509 L729 509 L729 410 Z"/>
            </clipPath>
            <clipPath clipPathUnits="userSpaceOnUse" id="clipPath26">
                <path d="M709 409 L731 409 L731 511 L709 511 L709 409 Z"/>
            </clipPath>
            <clipPath clipPathUnits="userSpaceOnUse" id="clipPath27">
                <path d="M711 401 L729 401 L729 419 L711 419 L711 401 Z"/>
            </clipPath>
            <clipPath clipPathUnits="userSpaceOnUse" id="clipPath28">
                <path d="M711 501 L729 501 L729 519 L711 519 L711 501 Z"/>
            </clipPath>
            <clipPath clipPathUnits="userSpaceOnUse" id="clipPath29">
                <path d="M9 9 L868 9 L868 768 L9 768 L9 9 Z"/>
            </clipPath>
            <clipPath clipPathUnits="userSpaceOnUse" id="clipPath30">
                <path d="M-1 -1 L878 -1 L878 1021 L-1 1021 L-1 -1 Z"/>
            </clipPath>
            <clipPath clipPathUnits="userSpaceOnUse" id="clipPath31">
                <path d="M261 191 L401 191 L401 204 L261 204 L261 191 Z"/>
            </clipPath>
            <clipPath clipPathUnits="userSpaceOnUse" id="clipPath32">
                <path d="M373 203 L392 203 L392 218 L373 218 L373 203 Z"/>
            </clipPath>
            <clipPath clipPathUnits="userSpaceOnUse" id="clipPath33">
                <path d="M598 391 L684 391 L684 404 L598 404 L598 391 Z"/>
            </clipPath>
            <clipPath clipPathUnits="userSpaceOnUse" id="clipPath34">
                <path d="M693 403 L712 403 L712 418 L693 418 L693 403 Z"/>
            </clipPath>
            <clipPath clipPathUnits="userSpaceOnUse" id="clipPath35">
                <path d="M489 517 L619 517 L619 530 L489 530 L489 517 Z"/>
            </clipPath>
            <clipPath clipPathUnits="userSpaceOnUse" id="clipPath36">
                <path d="M399 503 L418 503 L418 518 L399 518 L399 503 Z"/>
            </clipPath>
            <clipPath clipPathUnits="userSpaceOnUse" id="clipPath37">
                <path d="M438 291 L524 291 L524 304 L438 304 L438 291 Z"/>
            </clipPath>
            <clipPath clipPathUnits="userSpaceOnUse" id="clipPath38">
                <path d="M533 303 L552 303 L552 318 L533 318 L533 303 Z"/>
            </clipPath>
            <clipPath clipPathUnits="userSpaceOnUse" id="clipPath39">
                <path d="M135 91 L238 91 L238 104 L135 104 L135 91 Z"/>
            </clipPath>
            <clipPath clipPathUnits="userSpaceOnUse" id="clipPath40">
                <path d="M233 103 L252 103 L252 118 L233 118 L233 103 Z"/>
            </clipPath>
        </defs>
        <g font-size="11px" fill="url(#linearGradient1)" font-family="'.AppleSystemUIFont'" stroke-linejoin="round" stroke="url(#linearGradient1)" stroke-width="0" stroke-miterlimit="0">
            <rect x="10" width="857" height="757" y="10" clip-path="url(#clipPath1)" stroke="none"/>
        </g>
        <g font-size="11px" stroke-width="0.1" font-family="'.AppleSystemUIFont'" stroke-linecap="butt">
            <line y2="20" fill="none" x1="101" clip-path="url(#clipPath2)" x2="101" y1="10"/>
            <line y2="20" fill="none" x1="101" clip-path="url(#clipPath2)" x2="101" y1="20"/>
            <line y2="24" fill="none" x1="101" clip-path="url(#clipPath2)" x2="97" y1="20"/>
            <line y2="24" fill="none" x1="97" clip-path="url(#clipPath2)" x2="97" y1="24"/>
            <line y2="24" fill="none" x1="97" clip-path="url(#clipPath2)" x2="10" y1="24"/>
            <text x="16" xml:space="preserve" font-size="9px" y="22" clip-path="url(#clipPath3)" stroke="none">AddProdToSec  </text>
            <rect x="70" y="40" clip-path="url(#clipPath4)" fill="none" width="99" height="14" stroke-width="1.1"/>
            <line clip-path="url(#clipPath4)" fill="none" x1="120" x2="120" y1="54" y2="739" stroke-dasharray="5,5" stroke-width="1.1"/>
        </g>
        <g stroke-linecap="butt" font-size="11px" fill="url(#linearGradient2)" font-family="'.AppleSystemUIFont'" stroke-dasharray="5,5" stroke="url(#linearGradient2)" stroke-width="1.1">
            <rect x="70" y="40" clip-path="url(#clipPath5)" width="100" height="700" opacity="0" stroke="none"/>
            <text x="96" font-size="9px" y="52" clip-path="url(#clipPath6)" fill="black" stroke="none" xml:space="preserve">user : User</text>
            <rect x="210" y="40" clip-path="url(#clipPath7)" fill="none" width="99" stroke-dasharray="none" height="14" stroke="black"/>
            <line clip-path="url(#clipPath7)" fill="none" x1="260" x2="260" y1="54" y2="739" stroke="black"/>
            <rect x="210" y="40" clip-path="url(#clipPath8)" fill="url(#linearGradient3)" width="100" opacity="0" height="700" stroke="none"/>
            <text x="212" font-size="9px" y="52" clip-path="url(#clipPath9)" fill="black" stroke="none" xml:space="preserve">canvaPage : CanvaP...</text>
            <rect x="250" y="110" clip-path="url(#clipPath10)" fill="url(#linearGradient4)" width="20" height="100" stroke="none"/>
            <rect x="250" y="110" clip-path="url(#clipPath11)" fill="none" width="19" stroke-dasharray="none" rx="0" ry="0" height="99" stroke="black"/>
            <rect x="350" y="40" clip-path="url(#clipPath12)" fill="none" width="99" stroke-dasharray="none" height="14" stroke="black"/>
            <line clip-path="url(#clipPath12)" fill="none" x1="400" x2="400" y1="54" y2="739" stroke="black"/>
            <rect x="350" y="40" clip-path="url(#clipPath13)" fill="url(#linearGradient5)" width="100" opacity="0" height="700" stroke="none"/>
            <text x="352" font-size="9px" y="52" clip-path="url(#clipPath14)" fill="black" stroke="none" xml:space="preserve">canvaService : Canv...</text>
            <rect x="390" y="210" clip-path="url(#clipPath15)" fill="url(#linearGradient6)" width="20" height="100" stroke="none"/>
            <rect x="390" y="210" clip-path="url(#clipPath16)" fill="none" width="19" stroke-dasharray="none" rx="0" ry="0" height="99" stroke="black"/>
            <rect x="510" y="40" clip-path="url(#clipPath17)" fill="none" width="99" stroke-dasharray="none" height="14" stroke="black"/>
            <line clip-path="url(#clipPath17)" fill="none" x1="560" x2="560" y1="54" y2="739" stroke="black"/>
            <rect x="510" y="40" clip-path="url(#clipPath18)" fill="url(#linearGradient7)" width="100" opacity="0" height="700" stroke="none"/>
            <text x="511" font-size="9px" y="52" clip-path="url(#clipPath19)" fill="black" stroke="none" xml:space="preserve">canvaController : Ca...</text>
            <rect x="550" y="310" clip-path="url(#clipPath20)" fill="url(#linearGradient8)" width="20" height="100" stroke="none"/>
            <rect x="550" y="310" clip-path="url(#clipPath21)" fill="none" width="19" stroke-dasharray="none" rx="0" ry="0" height="99" stroke="black"/>
            <rect x="670" y="40" clip-path="url(#clipPath22)" fill="none" width="99" stroke-dasharray="none" height="14" stroke="black"/>
            <line clip-path="url(#clipPath22)" fill="none" x1="720" x2="720" y1="54" y2="739" stroke="black"/>
            <rect x="670" y="40" clip-path="url(#clipPath23)" fill="url(#linearGradient9)" width="100" opacity="0" height="700" stroke="none"/>
            <text x="673" font-size="9px" y="52" clip-path="url(#clipPath24)" fill="black" stroke="none" xml:space="preserve">canvaManagerServi...</text>
            <rect x="710" y="410" clip-path="url(#clipPath25)" fill="url(#linearGradient10)" width="20" height="100" stroke="none"/>
            <rect x="710" y="410" clip-path="url(#clipPath26)" fill="none" width="19" stroke-dasharray="none" rx="0" ry="0" height="99" stroke="black"/>
            <circle clip-path="url(#clipPath27)" fill="white" r="6.5" stroke-dasharray="none" cx="719.5" cy="409.5" stroke="none"/>
        </g>
        <g font-size="11px" stroke-width="2.1" font-family="'.AppleSystemUIFont'" stroke-linecap="butt">
            <circle fill="none" r="7" clip-path="url(#clipPath27)" cx="720" cy="410"/>
            <circle fill="white" r="6.5" clip-path="url(#clipPath27)" cx="719.5" cy="409.5" stroke="none"/>
            <circle fill="none" r="7" clip-path="url(#clipPath27)" cx="720" cy="410"/>
            <circle fill="lime" r="6.5" clip-path="url(#clipPath28)" cx="719.5" cy="509.5" stroke="none"/>
            <circle fill="none" r="7" clip-path="url(#clipPath28)" cx="720" cy="510"/>
            <circle fill="white" r="6.5" clip-path="url(#clipPath27)" cx="719.5" cy="409.5" stroke="none"/>
            <circle fill="none" r="7" clip-path="url(#clipPath27)" cx="720" cy="410"/>
            <circle fill="white" r="6.5" clip-path="url(#clipPath27)" cx="719.5" cy="409.5" stroke="none"/>
            <circle fill="none" r="7" clip-path="url(#clipPath27)" cx="720" cy="410"/>
            <circle fill="lime" r="6.5" clip-path="url(#clipPath28)" cx="719.5" cy="509.5" stroke="none"/>
            <circle fill="none" r="7" clip-path="url(#clipPath28)" cx="720" cy="510"/>
            <circle fill="white" r="6.5" clip-path="url(#clipPath27)" cx="719.5" cy="409.5" stroke="none"/>
            <circle fill="none" r="7" clip-path="url(#clipPath27)" cx="720" cy="410"/>
            <circle fill="white" r="6.5" clip-path="url(#clipPath27)" cx="719.5" cy="409.5" stroke="none"/>
            <circle fill="none" r="7" clip-path="url(#clipPath27)" cx="720" cy="410"/>
            <circle fill="lime" r="6.5" clip-path="url(#clipPath28)" cx="719.5" cy="509.5" stroke="none"/>
            <circle fill="none" r="7" clip-path="url(#clipPath28)" cx="720" cy="510"/>
            <circle fill="white" r="6.5" clip-path="url(#clipPath27)" cx="719.5" cy="409.5" stroke="none"/>
            <circle fill="none" r="7" clip-path="url(#clipPath27)" cx="720" cy="410"/>
            <circle fill="white" r="6.5" clip-path="url(#clipPath27)" cx="719.5" cy="409.5" stroke="none"/>
            <circle fill="none" r="7" clip-path="url(#clipPath27)" cx="720" cy="410"/>
            <circle fill="lime" r="6.5" clip-path="url(#clipPath28)" cx="719.5" cy="509.5" stroke="none"/>
            <circle fill="none" r="7" clip-path="url(#clipPath28)" cx="720" cy="510"/>
            <circle fill="white" r="6.5" clip-path="url(#clipPath27)" cx="719.5" cy="409.5" stroke="none"/>
            <circle fill="none" r="7" clip-path="url(#clipPath27)" cx="720" cy="410"/>
            <circle fill="white" r="6.5" clip-path="url(#clipPath27)" cx="719.5" cy="409.5" stroke="none"/>
            <circle fill="none" r="7" clip-path="url(#clipPath27)" cx="720" cy="410"/>
            <circle fill="white" r="6.5" clip-path="url(#clipPath28)" cx="719.5" cy="509.5" stroke="none"/>
            <circle fill="none" r="7" clip-path="url(#clipPath28)" cx="720" cy="510"/>
            <circle fill="white" r="6.5" clip-path="url(#clipPath27)" cx="719.5" cy="409.5" stroke="none"/>
            <circle fill="none" r="7" clip-path="url(#clipPath27)" cx="720" cy="410"/>
            <circle fill="white" r="6.5" clip-path="url(#clipPath27)" cx="719.5" cy="409.5" stroke="none"/>
            <circle fill="none" r="7" clip-path="url(#clipPath27)" cx="720" cy="410"/>
            <circle fill="white" r="6.5" clip-path="url(#clipPath28)" cx="719.5" cy="509.5" stroke="none"/>
            <circle fill="none" r="7" clip-path="url(#clipPath28)" cx="720" cy="510"/>
            <circle fill="white" r="6.5" clip-path="url(#clipPath27)" cx="719.5" cy="409.5" stroke="none"/>
            <circle fill="none" r="7" clip-path="url(#clipPath27)" cx="720" cy="410"/>
            <circle fill="white" r="6.5" clip-path="url(#clipPath27)" cx="719.5" cy="409.5" stroke="none"/>
            <circle fill="none" r="7" clip-path="url(#clipPath27)" cx="720" cy="410"/>
            <circle fill="white" r="6.5" clip-path="url(#clipPath28)" cx="719.5" cy="509.5" stroke="none"/>
            <circle fill="none" r="7" clip-path="url(#clipPath28)" cx="720" cy="510"/>
            <circle fill="white" r="6.5" clip-path="url(#clipPath27)" cx="719.5" cy="409.5" stroke="none"/>
            <circle fill="none" r="7" clip-path="url(#clipPath27)" cx="720" cy="410"/>
            <circle fill="white" r="6.5" clip-path="url(#clipPath27)" cx="719.5" cy="409.5" stroke="none"/>
            <circle fill="none" r="7" clip-path="url(#clipPath27)" cx="720" cy="410"/>
            <circle fill="white" r="6.5" clip-path="url(#clipPath28)" cx="719.5" cy="509.5" stroke="none"/>
            <circle fill="none" r="7" clip-path="url(#clipPath28)" cx="720" cy="510"/>
            <circle fill="white" r="6.5" clip-path="url(#clipPath27)" cx="719.5" cy="409.5" stroke="none"/>
            <circle fill="none" r="7" clip-path="url(#clipPath27)" cx="720" cy="410"/>
            <circle fill="white" r="6.5" clip-path="url(#clipPath27)" cx="719.5" cy="409.5" stroke="none"/>
            <circle fill="none" r="7" clip-path="url(#clipPath27)" cx="720" cy="410"/>
            <circle fill="white" r="6.5" clip-path="url(#clipPath28)" cx="719.5" cy="509.5" stroke="none"/>
            <circle fill="none" r="7" clip-path="url(#clipPath28)" cx="720" cy="510"/>
            <circle fill="white" r="6.5" clip-path="url(#clipPath27)" cx="719.5" cy="409.5" stroke="none"/>
            <circle fill="none" r="7" clip-path="url(#clipPath27)" cx="720" cy="410"/>
            <circle fill="white" r="6.5" clip-path="url(#clipPath27)" cx="719.5" cy="409.5" stroke="none"/>
            <circle fill="none" r="7" clip-path="url(#clipPath27)" cx="720" cy="410"/>
            <circle fill="white" r="6.5" clip-path="url(#clipPath28)" cx="719.5" cy="509.5" stroke="none"/>
            <circle fill="none" r="7" clip-path="url(#clipPath28)" cx="720" cy="510"/>
            <circle fill="white" r="6.5" clip-path="url(#clipPath27)" cx="719.5" cy="409.5" stroke="none"/>
            <circle fill="none" r="7" clip-path="url(#clipPath27)" cx="720" cy="410"/>
            <circle fill="white" r="6.5" clip-path="url(#clipPath27)" cx="719.5" cy="409.5" stroke="none"/>
            <circle fill="none" r="7" clip-path="url(#clipPath27)" cx="720" cy="410"/>
            <circle fill="white" r="6.5" clip-path="url(#clipPath28)" cx="719.5" cy="509.5" stroke="none"/>
            <circle fill="none" r="7" clip-path="url(#clipPath28)" cx="720" cy="510"/>
            <circle fill="white" r="6.5" clip-path="url(#clipPath27)" cx="719.5" cy="409.5" stroke="none"/>
            <circle fill="none" r="7" clip-path="url(#clipPath27)" cx="720" cy="410"/>
            <circle fill="white" r="6.5" clip-path="url(#clipPath27)" cx="719.5" cy="409.5" stroke="none"/>
            <circle fill="none" r="7" clip-path="url(#clipPath27)" cx="720" cy="410"/>
            <circle fill="white" r="6.5" clip-path="url(#clipPath28)" cx="719.5" cy="509.5" stroke="none"/>
            <circle fill="none" r="7" clip-path="url(#clipPath28)" cx="720" cy="510"/>
            <circle fill="white" r="6.5" clip-path="url(#clipPath27)" cx="719.5" cy="409.5" stroke="none"/>
            <circle fill="none" r="7" clip-path="url(#clipPath27)" cx="720" cy="410"/>
            <circle fill="white" r="6.5" clip-path="url(#clipPath27)" cx="719.5" cy="409.5" stroke="none"/>
            <circle fill="none" r="7" clip-path="url(#clipPath27)" cx="720" cy="410"/>
            <circle fill="white" r="6.5" clip-path="url(#clipPath28)" cx="719.5" cy="509.5" stroke="none"/>
            <circle fill="none" r="7" clip-path="url(#clipPath28)" cx="720" cy="510"/>
            <circle fill="white" r="6.5" clip-path="url(#clipPath27)" cx="719.5" cy="409.5" stroke="none"/>
            <circle fill="none" r="7" clip-path="url(#clipPath27)" cx="720" cy="410"/>
            <circle fill="white" r="6.5" clip-path="url(#clipPath27)" cx="719.5" cy="409.5" stroke="none"/>
            <circle fill="none" r="7" clip-path="url(#clipPath27)" cx="720" cy="410"/>
            <circle fill="white" r="6.5" clip-path="url(#clipPath28)" cx="719.5" cy="509.5" stroke="none"/>
            <circle fill="none" r="7" clip-path="url(#clipPath28)" cx="720" cy="510"/>
            <circle fill="white" r="6.5" clip-path="url(#clipPath27)" cx="719.5" cy="409.5" stroke="none"/>
            <circle fill="none" r="7" clip-path="url(#clipPath27)" cx="720" cy="410"/>
            <circle fill="white" r="6.5" clip-path="url(#clipPath27)" cx="719.5" cy="409.5" stroke="none"/>
            <circle fill="none" r="7" clip-path="url(#clipPath27)" cx="720" cy="410"/>
            <circle fill="white" r="6.5" clip-path="url(#clipPath28)" cx="719.5" cy="509.5" stroke="none"/>
            <circle fill="none" r="7" clip-path="url(#clipPath28)" cx="720" cy="510"/>
            <circle fill="white" r="6.5" clip-path="url(#clipPath27)" cx="719.5" cy="409.5" stroke="none"/>
            <circle fill="none" r="7" clip-path="url(#clipPath27)" cx="720" cy="410"/>
            <circle fill="white" r="6.5" clip-path="url(#clipPath27)" cx="719.5" cy="409.5" stroke="none"/>
            <circle fill="none" r="7" clip-path="url(#clipPath27)" cx="720" cy="410"/>
            <circle fill="lime" r="6.5" clip-path="url(#clipPath28)" cx="719.5" cy="509.5" stroke="none"/>
            <circle fill="none" r="7" clip-path="url(#clipPath28)" cx="720" cy="510"/>
            <circle fill="white" r="6.5" clip-path="url(#clipPath27)" cx="719.5" cy="409.5" stroke="none"/>
            <circle fill="none" r="7" clip-path="url(#clipPath27)" cx="720" cy="410"/>
            <circle fill="white" r="6.5" clip-path="url(#clipPath27)" cx="719.5" cy="409.5" stroke="none"/>
            <circle fill="none" r="7" clip-path="url(#clipPath27)" cx="720" cy="410"/>
            <circle fill="lime" r="6.5" clip-path="url(#clipPath28)" cx="719.5" cy="509.5" stroke="none"/>
            <circle fill="none" r="7" clip-path="url(#clipPath28)" cx="720" cy="510"/>
            <circle fill="white" r="6.5" clip-path="url(#clipPath27)" cx="719.5" cy="409.5" stroke="none"/>
            <circle fill="none" r="7" clip-path="url(#clipPath27)" cx="720" cy="410"/>
            <circle fill="white" r="6.5" clip-path="url(#clipPath27)" cx="719.5" cy="409.5" stroke="none"/>
            <circle fill="none" r="7" clip-path="url(#clipPath27)" cx="720" cy="410"/>
            <circle fill="lime" r="6.5" clip-path="url(#clipPath28)" cx="719.5" cy="509.5" stroke="none"/>
            <circle fill="none" r="7" clip-path="url(#clipPath28)" cx="720" cy="510"/>
            <circle fill="white" r="6.5" clip-path="url(#clipPath27)" cx="719.5" cy="409.5" stroke="none"/>
            <circle fill="none" r="7" clip-path="url(#clipPath27)" cx="720" cy="410"/>
            <circle fill="white" r="6.5" clip-path="url(#clipPath27)" cx="719.5" cy="409.5" stroke="none"/>
            <circle fill="none" r="7" clip-path="url(#clipPath27)" cx="720" cy="410"/>
            <circle fill="lime" r="6.5" clip-path="url(#clipPath28)" cx="719.5" cy="509.5" stroke="none"/>
            <circle fill="none" r="7" clip-path="url(#clipPath28)" cx="720" cy="510"/>
            <circle fill="white" r="6.5" clip-path="url(#clipPath27)" cx="719.5" cy="409.5" stroke="none"/>
            <circle fill="none" r="7" clip-path="url(#clipPath27)" cx="720" cy="410"/>
            <circle fill="white" r="6.5" clip-path="url(#clipPath27)" cx="719.5" cy="409.5" stroke="none"/>
            <circle fill="none" r="7" clip-path="url(#clipPath27)" cx="720" cy="410"/>
            <circle fill="lime" r="6.5" clip-path="url(#clipPath28)" cx="719.5" cy="509.5" stroke="none"/>
            <circle fill="none" r="7" clip-path="url(#clipPath28)" cx="720" cy="510"/>
            <rect x="10" y="10" clip-path="url(#clipPath29)" fill="none" width="856" rx="0" ry="0" height="756" stroke-width="1.1"/>
            <line clip-path="url(#clipPath30)" fill="none" text-rendering="optimizeLegibility" x1="270" x2="390" y1="210" y2="210" stroke-width="1.1"/>
            <text x="262" font-size="9px" y="201" clip-path="url(#clipPath31)" text-rendering="optimizeLegibility" stroke="none" stroke-width="1.1" xml:space="preserve">  sendSectionUpdateToServer()</text>
            <line clip-path="url(#clipPath32)" fill="none" text-rendering="optimizeLegibility" x1="374" x2="390" y1="216" y2="210" stroke-width="1.1"/>
            <line clip-path="url(#clipPath32)" fill="none" text-rendering="optimizeLegibility" x1="390" x2="374" y1="210" y2="204" stroke-width="1.1"/>
            <line clip-path="url(#clipPath30)" fill="none" text-rendering="optimizeLegibility" x1="570" x2="710" y1="410" y2="410" stroke-width="1.1"/>
            <text x="599" font-size="9px" y="401" clip-path="url(#clipPath33)" text-rendering="optimizeLegibility" stroke="none" stroke-width="1.1" xml:space="preserve">  addNewProduct()</text>
            <line clip-path="url(#clipPath34)" fill="none" text-rendering="optimizeLegibility" x1="694" x2="710" y1="416" y2="410" stroke-width="1.1"/>
            <line clip-path="url(#clipPath34)" fill="none" text-rendering="optimizeLegibility" x1="710" x2="694" y1="410" y2="404" stroke-width="1.1"/>
        </g>
        <g text-rendering="optimizeLegibility" stroke-width="1.1" font-size="9px" stroke-dasharray="6.6,3.3" font-family="'.AppleSystemUIFont'" stroke-linecap="butt">
            <line y2="510" fill="none" x1="710" clip-path="url(#clipPath30)" x2="400" y1="510"/>
            <text x="490" xml:space="preserve" y="527" clip-path="url(#clipPath35)" stroke="none">Send response back to client</text>
            <line clip-path="url(#clipPath36)" fill="none" x1="416" x2="400" y1="504" y2="510" stroke-dasharray="none"/>
            <line clip-path="url(#clipPath36)" fill="none" x1="400" x2="416" y1="510" y2="516" stroke-dasharray="none"/>
            <line clip-path="url(#clipPath30)" fill="none" x1="410" x2="550" y1="310" y2="310" stroke-dasharray="none"/>
            <text x="439" xml:space="preserve" stroke-dasharray="none" y="301" clip-path="url(#clipPath37)" stroke="none">  addNewProduct()</text>
            <line clip-path="url(#clipPath38)" fill="none" x1="534" x2="550" y1="316" y2="310" stroke-dasharray="none"/>
            <line clip-path="url(#clipPath38)" fill="none" x1="550" x2="534" y1="310" y2="304" stroke-dasharray="none"/>
            <line clip-path="url(#clipPath30)" fill="none" x1="120" x2="250" y1="110" y2="110" stroke-dasharray="none"/>
            <text x="136" xml:space="preserve" stroke-dasharray="none" y="101" clip-path="url(#clipPath39)" stroke="none">  addProductToCanva()</text>
            <line clip-path="url(#clipPath40)" fill="none" x1="234" x2="250" y1="116" y2="110" stroke-dasharray="none"/>
            <line clip-path="url(#clipPath40)" fill="none" x1="250" x2="234" y1="110" y2="104" stroke-dasharray="none"/>
            <line clip-path="url(#clipPath30)" fill="none" x1="120" x2="250" y1="110" y2="110" stroke-dasharray="none"/>
            <text x="136" xml:space="preserve" stroke-dasharray="none" y="101" clip-path="url(#clipPath39)" stroke="none">  addProductToCanva()</text>
            <line clip-path="url(#clipPath40)" fill="none" x1="234" x2="250" y1="116" y2="110" stroke-dasharray="none"/>
            <line clip-path="url(#clipPath40)" fill="none" x1="250" x2="234" y1="110" y2="104" stroke-dasharray="none"/>
            <line clip-path="url(#clipPath30)" fill="none" x1="270" x2="390" y1="210" y2="210" stroke-dasharray="none"/>
            <text x="262" xml:space="preserve" stroke-dasharray="none" y="201" clip-path="url(#clipPath31)" stroke="none">  sendSectionUpdateToServer()</text>
            <line clip-path="url(#clipPath32)" fill="none" x1="374" x2="390" y1="216" y2="210" stroke-dasharray="none"/>
            <line clip-path="url(#clipPath32)" fill="none" x1="390" x2="374" y1="210" y2="204" stroke-dasharray="none"/>
            <line clip-path="url(#clipPath30)" fill="none" x1="410" x2="550" y1="310" y2="310" stroke-dasharray="none"/>
            <text x="439" xml:space="preserve" stroke-dasharray="none" y="301" clip-path="url(#clipPath37)" stroke="none">  addNewProduct()</text>
            <line clip-path="url(#clipPath38)" fill="none" x1="534" x2="550" y1="316" y2="310" stroke-dasharray="none"/>
            <line clip-path="url(#clipPath38)" fill="none" x1="550" x2="534" y1="310" y2="304" stroke-dasharray="none"/>
            <line clip-path="url(#clipPath30)" fill="none" x1="570" x2="710" y1="410" y2="410" stroke-dasharray="none"/>
            <text x="599" xml:space="preserve" stroke-dasharray="none" y="401" clip-path="url(#clipPath33)" stroke="none">  addNewProduct()</text>
            <line clip-path="url(#clipPath34)" fill="none" x1="694" x2="710" y1="416" y2="410" stroke-dasharray="none"/>
            <line clip-path="url(#clipPath34)" fill="none" x1="710" x2="694" y1="410" y2="404" stroke-dasharray="none"/>
            <line y2="510" fill="none" x1="710" clip-path="url(#clipPath30)" x2="400" y1="510"/>
            <text x="490" xml:space="preserve" y="527" clip-path="url(#clipPath35)" stroke="none">Send response back to client</text>
            <line clip-path="url(#clipPath36)" fill="none" x1="416" x2="400" y1="504" y2="510" stroke-dasharray="none"/>
            <line clip-path="url(#clipPath36)" fill="none" x1="400" x2="416" y1="510" y2="516" stroke-dasharray="none"/>
        </g>
    </g>
</svg>
