<?xml version="1.0" encoding="UTF-8"?><svg xmlns="http://www.w3.org/2000/svg" xmlns:xlink="http://www.w3.org/1999/xlink" stroke-dasharray="none" shape-rendering="auto" font-family="'Dialog'" width="877" text-rendering="auto" fill-opacity="1" contentScriptType="text/ecmascript" color-interpolation="auto" color-rendering="auto" preserveAspectRatio="xMidYMid meet" font-size="12px" viewBox="0 0 877 1020" fill="black" stroke="black" image-rendering="auto" stroke-miterlimit="10" zoomAndPan="magnify" version="1.0" stroke-linecap="square" stroke-linejoin="miter" contentStyleType="text/css" font-style="normal" height="1020" stroke-width="1" stroke-dashoffset="0" font-weight="normal" stroke-opacity="1">
    <!--Generated by the Batik Graphics2D SVG Generator-->
    <defs id="genericDefs"/>
    <g>
        <defs id="defs1">
            <linearGradient x1="10" x2="10" y1="10" gradientUnits="userSpaceOnUse" y2="767" xlink:type="simple" xlink:actuate="onLoad" id="linearGradient1" xlink:show="other" spreadMethod="pad">
                <stop stop-opacity="1" stop-color="white" offset="0%"/>
                <stop stop-opacity="1" stop-color="white" offset="100%"/>
            </linearGradient>
            <linearGradient x1="170" x2="170" y1="40" gradientUnits="userSpaceOnUse" y2="740" xlink:type="simple" xlink:actuate="onLoad" id="linearGradient2" xlink:show="other" spreadMethod="pad">
                <stop stop-opacity="1" stop-color="white" offset="0%"/>
                <stop stop-opacity="1" stop-color="rgb(195,209,213)" offset="100%"/>
            </linearGradient>
            <linearGradient x1="410" x2="410" y1="40" gradientUnits="userSpaceOnUse" y2="740" xlink:type="simple" xlink:actuate="onLoad" id="linearGradient3" xlink:show="other" spreadMethod="pad">
                <stop stop-opacity="1" stop-color="white" offset="0%"/>
                <stop stop-opacity="1" stop-color="rgb(195,209,213)" offset="100%"/>
            </linearGradient>
            <linearGradient x1="450" x2="450" y1="150" gradientUnits="userSpaceOnUse" y2="250" xlink:type="simple" xlink:actuate="onLoad" id="linearGradient4" xlink:show="other" spreadMethod="pad">
                <stop stop-opacity="1" stop-color="white" offset="0%"/>
                <stop stop-opacity="1" stop-color="rgb(195,209,213)" offset="100%"/>
            </linearGradient>
            <linearGradient x1="450" x2="450" y1="350" gradientUnits="userSpaceOnUse" y2="450" xlink:type="simple" xlink:actuate="onLoad" id="linearGradient5" xlink:show="other" spreadMethod="pad">
                <stop stop-opacity="1" stop-color="white" offset="0%"/>
                <stop stop-opacity="1" stop-color="rgb(195,209,213)" offset="100%"/>
            </linearGradient>
            <linearGradient x1="670" x2="670" y1="40" gradientUnits="userSpaceOnUse" y2="740" xlink:type="simple" xlink:actuate="onLoad" id="linearGradient6" xlink:show="other" spreadMethod="pad">
                <stop stop-opacity="1" stop-color="white" offset="0%"/>
                <stop stop-opacity="1" stop-color="rgb(195,209,213)" offset="100%"/>
            </linearGradient>
            <linearGradient x1="710" x2="710" y1="250" gradientUnits="userSpaceOnUse" y2="350" xlink:type="simple" xlink:actuate="onLoad" id="linearGradient7" xlink:show="other" spreadMethod="pad">
                <stop stop-opacity="1" stop-color="white" offset="0%"/>
                <stop stop-opacity="1" stop-color="rgb(195,209,213)" offset="100%"/>
            </linearGradient>
            <linearGradient x1="710" x2="710" y1="450" gradientUnits="userSpaceOnUse" y2="550" xlink:type="simple" xlink:actuate="onLoad" id="linearGradient8" xlink:show="other" spreadMethod="pad">
                <stop stop-opacity="1" stop-color="white" offset="0%"/>
                <stop stop-opacity="1" stop-color="rgb(195,209,213)" offset="100%"/>
            </linearGradient>
            <clipPath clipPathUnits="userSpaceOnUse" id="clipPath1">
                <path d="M10 10 L10 766 L866 766 L866 10 Z"/>
            </clipPath>
            <clipPath clipPathUnits="userSpaceOnUse" id="clipPath2">
                <path d="M7 7 L870 7 L870 770 L7 770 L7 7 Z"/>
            </clipPath>
            <clipPath clipPathUnits="userSpaceOnUse" id="clipPath3">
                <path d="M15 12 L83 12 L83 25 L15 25 L15 12 Z"/>
            </clipPath>
            <clipPath clipPathUnits="userSpaceOnUse" id="clipPath4">
                <path d="M169 39 L271 39 L271 741 L169 741 L169 39 Z"/>
            </clipPath>
            <clipPath clipPathUnits="userSpaceOnUse" id="clipPath5">
                <path d="M170 40 L170 739 L269 739 L269 40 Z"/>
            </clipPath>
            <clipPath clipPathUnits="userSpaceOnUse" id="clipPath6">
                <path d="M209 42 L232 42 L232 55 L209 55 L209 42 Z"/>
            </clipPath>
            <clipPath clipPathUnits="userSpaceOnUse" id="clipPath7">
                <path d="M409 39 L511 39 L511 741 L409 741 L409 39 Z"/>
            </clipPath>
            <clipPath clipPathUnits="userSpaceOnUse" id="clipPath8">
                <path d="M410 40 L410 739 L509 739 L509 40 Z"/>
            </clipPath>
            <clipPath clipPathUnits="userSpaceOnUse" id="clipPath9">
                <path d="M431 42 L490 42 L490 55 L431 55 L431 42 Z"/>
            </clipPath>
            <clipPath clipPathUnits="userSpaceOnUse" id="clipPath10">
                <path d="M450 150 L450 249 L469 249 L469 150 Z"/>
            </clipPath>
            <clipPath clipPathUnits="userSpaceOnUse" id="clipPath11">
                <path d="M449 149 L471 149 L471 251 L449 251 L449 149 Z"/>
            </clipPath>
            <clipPath clipPathUnits="userSpaceOnUse" id="clipPath12">
                <path d="M450 350 L450 449 L469 449 L469 350 Z"/>
            </clipPath>
            <clipPath clipPathUnits="userSpaceOnUse" id="clipPath13">
                <path d="M449 349 L471 349 L471 451 L449 451 L449 349 Z"/>
            </clipPath>
            <clipPath clipPathUnits="userSpaceOnUse" id="clipPath14">
                <path d="M669 39 L771 39 L771 741 L669 741 L669 39 Z"/>
            </clipPath>
            <clipPath clipPathUnits="userSpaceOnUse" id="clipPath15">
                <path d="M670 40 L670 739 L769 739 L769 40 Z"/>
            </clipPath>
            <clipPath clipPathUnits="userSpaceOnUse" id="clipPath16">
                <path d="M675 42 L766 42 L766 55 L675 55 L675 42 Z"/>
            </clipPath>
            <clipPath clipPathUnits="userSpaceOnUse" id="clipPath17">
                <path d="M710 250 L710 349 L729 349 L729 250 Z"/>
            </clipPath>
            <clipPath clipPathUnits="userSpaceOnUse" id="clipPath18">
                <path d="M709 249 L731 249 L731 351 L709 351 L709 249 Z"/>
            </clipPath>
            <clipPath clipPathUnits="userSpaceOnUse" id="clipPath19">
                <path d="M710 450 L710 549 L729 549 L729 450 Z"/>
            </clipPath>
            <clipPath clipPathUnits="userSpaceOnUse" id="clipPath20">
                <path d="M709 449 L731 449 L731 551 L709 551 L709 449 Z"/>
            </clipPath>
            <clipPath clipPathUnits="userSpaceOnUse" id="clipPath21">
                <path d="M9 9 L868 9 L868 768 L9 768 L9 9 Z"/>
            </clipPath>
            <clipPath clipPathUnits="userSpaceOnUse" id="clipPath22">
                <path d="M-1 -1 L878 -1 L878 1021 L-1 1021 L-1 -1 Z"/>
            </clipPath>
            <clipPath clipPathUnits="userSpaceOnUse" id="clipPath23">
                <path d="M308 131 L365 131 L365 144 L308 144 L308 131 Z"/>
            </clipPath>
            <clipPath clipPathUnits="userSpaceOnUse" id="clipPath24">
                <path d="M433 143 L452 143 L452 158 L433 158 L433 143 Z"/>
            </clipPath>
            <clipPath clipPathUnits="userSpaceOnUse" id="clipPath25">
                <path d="M560 231 L623 231 L623 244 L560 244 L560 231 Z"/>
            </clipPath>
            <clipPath clipPathUnits="userSpaceOnUse" id="clipPath26">
                <path d="M693 243 L712 243 L712 258 L693 258 L693 243 Z"/>
            </clipPath>
            <clipPath clipPathUnits="userSpaceOnUse" id="clipPath27">
                <path d="M565 357 L614 357 L614 370 L565 370 L565 357 Z"/>
            </clipPath>
            <clipPath clipPathUnits="userSpaceOnUse" id="clipPath28">
                <path d="M469 343 L488 343 L488 358 L469 358 L469 343 Z"/>
            </clipPath>
            <clipPath clipPathUnits="userSpaceOnUse" id="clipPath29">
                <path d="M564 431 L619 431 L619 444 L564 444 L564 431 Z"/>
            </clipPath>
            <clipPath clipPathUnits="userSpaceOnUse" id="clipPath30">
                <path d="M693 443 L712 443 L712 458 L693 458 L693 443 Z"/>
            </clipPath>
        </defs>
        <g font-size="11px" fill="url(#linearGradient1)" font-family="'.AppleSystemUIFont'" stroke-linejoin="round" stroke="url(#linearGradient1)" stroke-width="0" stroke-miterlimit="0">
            <rect x="10" width="857" height="757" y="10" clip-path="url(#clipPath1)" stroke="none"/>
        </g>
        <g font-size="11px" stroke-width="0.1" font-family="'.AppleSystemUIFont'" stroke-linecap="butt">
            <line y2="20" fill="none" x1="96" clip-path="url(#clipPath2)" x2="96" y1="10"/>
            <line y2="20" fill="none" x1="96" clip-path="url(#clipPath2)" x2="96" y1="20"/>
            <line y2="24" fill="none" x1="96" clip-path="url(#clipPath2)" x2="92" y1="20"/>
            <line y2="24" fill="none" x1="92" clip-path="url(#clipPath2)" x2="92" y1="24"/>
            <line y2="24" fill="none" x1="92" clip-path="url(#clipPath2)" x2="10" y1="24"/>
            <text x="16" xml:space="preserve" font-size="9px" y="22" clip-path="url(#clipPath3)" stroke="none">List all menus  </text>
            <rect x="170" y="40" clip-path="url(#clipPath4)" fill="none" width="99" height="14" stroke-width="1.1"/>
            <line clip-path="url(#clipPath4)" fill="none" x1="220" x2="220" y1="54" y2="739" stroke-dasharray="5,5" stroke-width="1.1"/>
        </g>
        <g stroke-linecap="butt" font-size="11px" fill="url(#linearGradient2)" font-family="'.AppleSystemUIFont'" stroke-dasharray="5,5" stroke="url(#linearGradient2)" stroke-width="1.1">
            <rect x="170" y="40" clip-path="url(#clipPath5)" width="100" height="700" opacity="0" stroke="none"/>
            <text x="210" font-size="9px" y="52" clip-path="url(#clipPath6)" fill="black" stroke="none" xml:space="preserve">User</text>
            <rect x="410" y="40" clip-path="url(#clipPath7)" fill="none" width="99" stroke-dasharray="none" height="14" stroke="black"/>
            <line clip-path="url(#clipPath7)" fill="none" x1="460" x2="460" y1="54" y2="739" stroke="black"/>
            <rect x="410" y="40" clip-path="url(#clipPath8)" fill="url(#linearGradient3)" width="100" opacity="0" height="700" stroke="none"/>
            <text x="432" font-size="9px" y="52" clip-path="url(#clipPath9)" fill="black" stroke="none" xml:space="preserve">menu : Menu</text>
            <rect x="450" y="150" clip-path="url(#clipPath10)" fill="url(#linearGradient4)" width="20" height="100" stroke="none"/>
            <rect x="450" y="150" clip-path="url(#clipPath11)" fill="none" width="19" stroke-dasharray="none" rx="0" ry="0" height="99" stroke="black"/>
            <rect x="450" y="350" clip-path="url(#clipPath12)" fill="url(#linearGradient5)" width="20" stroke-dasharray="none" height="100" stroke="none"/>
            <rect x="450" y="350" clip-path="url(#clipPath13)" fill="none" width="19" stroke-dasharray="none" rx="0" ry="0" height="99" stroke="black"/>
            <rect x="670" y="40" clip-path="url(#clipPath14)" fill="none" width="99" stroke-dasharray="none" height="14" stroke="black"/>
            <line clip-path="url(#clipPath14)" fill="none" x1="720" x2="720" y1="54" y2="739" stroke="black"/>
            <rect x="670" y="40" clip-path="url(#clipPath15)" fill="url(#linearGradient6)" width="100" opacity="0" height="700" stroke="none"/>
            <text x="676" font-size="9px" y="52" clip-path="url(#clipPath16)" fill="black" stroke="none" xml:space="preserve">menuList : MenuList</text>
            <rect x="710" y="250" clip-path="url(#clipPath17)" fill="url(#linearGradient7)" width="20" height="100" stroke="none"/>
            <rect x="710" y="250" clip-path="url(#clipPath18)" fill="none" width="19" stroke-dasharray="none" rx="0" ry="0" height="99" stroke="black"/>
            <rect x="710" y="450" clip-path="url(#clipPath19)" fill="url(#linearGradient8)" width="20" stroke-dasharray="none" height="100" stroke="none"/>
            <rect x="710" y="450" clip-path="url(#clipPath20)" fill="none" width="19" stroke-dasharray="none" rx="0" ry="0" height="99" stroke="black"/>
            <rect x="10" y="10" clip-path="url(#clipPath21)" fill="none" width="856" stroke-dasharray="none" rx="0" ry="0" height="756" stroke="black"/>
        </g>
        <g text-rendering="optimizeLegibility" stroke-width="1.1" font-size="9px" font-family="'.AppleSystemUIFont'" stroke-linecap="butt">
            <line y2="150" fill="none" x1="220" clip-path="url(#clipPath22)" x2="450" y1="150"/>
            <text x="309" xml:space="preserve" y="141" clip-path="url(#clipPath23)" stroke="none">  loginUser()</text>
            <line y2="150" fill="none" x1="434" clip-path="url(#clipPath24)" x2="450" y1="156"/>
            <line y2="144" fill="none" x1="450" clip-path="url(#clipPath24)" x2="434" y1="150"/>
            <line y2="250" fill="none" x1="470" clip-path="url(#clipPath22)" x2="710" y1="250"/>
            <text x="561" xml:space="preserve" y="241" clip-path="url(#clipPath25)" stroke="none">  OpenMenu()</text>
            <line y2="250" fill="none" x1="694" clip-path="url(#clipPath26)" x2="710" y1="256"/>
            <line y2="244" fill="none" x1="710" clip-path="url(#clipPath26)" x2="694" y1="250"/>
            <line y2="350" fill="none" x1="710" clip-path="url(#clipPath22)" x2="470" y1="350"/>
            <text x="566" xml:space="preserve" y="367" clip-path="url(#clipPath27)" stroke="none">  Refresh()</text>
            <line y2="350" fill="none" x1="486" clip-path="url(#clipPath28)" x2="470" y1="344"/>
            <line y2="356" fill="none" x1="470" clip-path="url(#clipPath28)" x2="486" y1="350"/>
            <line y2="450" fill="none" x1="470" clip-path="url(#clipPath22)" x2="710" y1="450"/>
            <text x="565" xml:space="preserve" y="441" clip-path="url(#clipPath29)" stroke="none">  OpenList()</text>
            <line y2="450" fill="none" x1="694" clip-path="url(#clipPath30)" x2="710" y1="456"/>
            <line y2="444" fill="none" x1="710" clip-path="url(#clipPath30)" x2="694" y1="450"/>
            <line y2="150" fill="none" x1="220" clip-path="url(#clipPath22)" x2="450" y1="150"/>
            <text x="309" xml:space="preserve" y="141" clip-path="url(#clipPath23)" stroke="none">  loginUser()</text>
            <line y2="150" fill="none" x1="434" clip-path="url(#clipPath24)" x2="450" y1="156"/>
            <line y2="144" fill="none" x1="450" clip-path="url(#clipPath24)" x2="434" y1="150"/>
            <line y2="250" fill="none" x1="470" clip-path="url(#clipPath22)" x2="710" y1="250"/>
            <text x="561" xml:space="preserve" y="241" clip-path="url(#clipPath25)" stroke="none">  OpenMenu()</text>
            <line y2="250" fill="none" x1="694" clip-path="url(#clipPath26)" x2="710" y1="256"/>
            <line y2="244" fill="none" x1="710" clip-path="url(#clipPath26)" x2="694" y1="250"/>
            <line y2="350" fill="none" x1="710" clip-path="url(#clipPath22)" x2="470" y1="350"/>
            <text x="566" xml:space="preserve" y="367" clip-path="url(#clipPath27)" stroke="none">  Refresh()</text>
            <line y2="350" fill="none" x1="486" clip-path="url(#clipPath28)" x2="470" y1="344"/>
            <line y2="356" fill="none" x1="470" clip-path="url(#clipPath28)" x2="486" y1="350"/>
            <line y2="450" fill="none" x1="470" clip-path="url(#clipPath22)" x2="710" y1="450"/>
            <text x="565" xml:space="preserve" y="441" clip-path="url(#clipPath29)" stroke="none">  OpenList()</text>
            <line y2="450" fill="none" x1="694" clip-path="url(#clipPath30)" x2="710" y1="456"/>
            <line y2="444" fill="none" x1="710" clip-path="url(#clipPath30)" x2="694" y1="450"/>
        </g>
    </g>
</svg>
