<?xml version="1.0" encoding="UTF-8"?><svg xmlns="http://www.w3.org/2000/svg" xmlns:xlink="http://www.w3.org/1999/xlink" stroke-dasharray="none" shape-rendering="auto" font-family="'Dialog'" width="1066" text-rendering="auto" fill-opacity="1" contentScriptType="text/ecmascript" color-interpolation="auto" color-rendering="auto" preserveAspectRatio="xMidYMid meet" font-size="12px" viewBox="0 0 1066 1020" fill="black" stroke="black" image-rendering="auto" stroke-miterlimit="10" zoomAndPan="magnify" version="1.0" stroke-linecap="square" stroke-linejoin="miter" contentStyleType="text/css" font-style="normal" height="1020" stroke-width="1" stroke-dashoffset="0" font-weight="normal" stroke-opacity="1">
    <!--Generated by the Batik Graphics2D SVG Generator-->
    <defs id="genericDefs"/>
    <g>
        <defs id="defs1">
            <linearGradient x1="10" x2="10" y1="10" gradientUnits="userSpaceOnUse" y2="767" xlink:type="simple" xlink:actuate="onLoad" id="linearGradient1" xlink:show="other" spreadMethod="pad">
                <stop stop-opacity="1" stop-color="white" offset="0%"/>
                <stop stop-opacity="1" stop-color="white" offset="100%"/>
            </linearGradient>
            <linearGradient x1="110" x2="110" y1="40" gradientUnits="userSpaceOnUse" y2="740" xlink:type="simple" xlink:actuate="onLoad" id="linearGradient2" xlink:show="other" spreadMethod="pad">
                <stop stop-opacity="1" stop-color="white" offset="0%"/>
                <stop stop-opacity="1" stop-color="rgb(195,209,213)" offset="100%"/>
            </linearGradient>
            <linearGradient x1="270" x2="270" y1="40" gradientUnits="userSpaceOnUse" y2="740" xlink:type="simple" xlink:actuate="onLoad" id="linearGradient3" xlink:show="other" spreadMethod="pad">
                <stop stop-opacity="1" stop-color="white" offset="0%"/>
                <stop stop-opacity="1" stop-color="rgb(195,209,213)" offset="100%"/>
            </linearGradient>
            <linearGradient x1="320" x2="320" y1="90" gradientUnits="userSpaceOnUse" y2="190" xlink:type="simple" xlink:actuate="onLoad" id="linearGradient4" xlink:show="other" spreadMethod="pad">
                <stop stop-opacity="1" stop-color="white" offset="0%"/>
                <stop stop-opacity="1" stop-color="rgb(195,209,213)" offset="100%"/>
            </linearGradient>
            <linearGradient x1="450" x2="450" y1="40" gradientUnits="userSpaceOnUse" y2="740" xlink:type="simple" xlink:actuate="onLoad" id="linearGradient5" xlink:show="other" spreadMethod="pad">
                <stop stop-opacity="1" stop-color="white" offset="0%"/>
                <stop stop-opacity="1" stop-color="rgb(195,209,213)" offset="100%"/>
            </linearGradient>
            <linearGradient x1="510" x2="510" y1="190" gradientUnits="userSpaceOnUse" y2="290" xlink:type="simple" xlink:actuate="onLoad" id="linearGradient6" xlink:show="other" spreadMethod="pad">
                <stop stop-opacity="1" stop-color="white" offset="0%"/>
                <stop stop-opacity="1" stop-color="rgb(195,209,213)" offset="100%"/>
            </linearGradient>
            <linearGradient x1="650" x2="650" y1="40" gradientUnits="userSpaceOnUse" y2="740" xlink:type="simple" xlink:actuate="onLoad" id="linearGradient7" xlink:show="other" spreadMethod="pad">
                <stop stop-opacity="1" stop-color="white" offset="0%"/>
                <stop stop-opacity="1" stop-color="rgb(195,209,213)" offset="100%"/>
            </linearGradient>
            <linearGradient x1="740" x2="740" y1="290" gradientUnits="userSpaceOnUse" y2="390" xlink:type="simple" xlink:actuate="onLoad" id="linearGradient8" xlink:show="other" spreadMethod="pad">
                <stop stop-opacity="1" stop-color="white" offset="0%"/>
                <stop stop-opacity="1" stop-color="rgb(195,209,213)" offset="100%"/>
            </linearGradient>
            <linearGradient x1="740" x2="740" y1="490" gradientUnits="userSpaceOnUse" y2="590" xlink:type="simple" xlink:actuate="onLoad" id="linearGradient9" xlink:show="other" spreadMethod="pad">
                <stop stop-opacity="1" stop-color="white" offset="0%"/>
                <stop stop-opacity="1" stop-color="rgb(195,209,213)" offset="100%"/>
            </linearGradient>
            <linearGradient x1="890" x2="890" y1="40" gradientUnits="userSpaceOnUse" y2="740" xlink:type="simple" xlink:actuate="onLoad" id="linearGradient10" xlink:show="other" spreadMethod="pad">
                <stop stop-opacity="1" stop-color="white" offset="0%"/>
                <stop stop-opacity="1" stop-color="rgb(195,209,213)" offset="100%"/>
            </linearGradient>
            <linearGradient x1="960" x2="960" y1="390" gradientUnits="userSpaceOnUse" y2="490" xlink:type="simple" xlink:actuate="onLoad" id="linearGradient11" xlink:show="other" spreadMethod="pad">
                <stop stop-opacity="1" stop-color="white" offset="0%"/>
                <stop stop-opacity="1" stop-color="rgb(195,209,213)" offset="100%"/>
            </linearGradient>
            <linearGradient x1="960" x2="960" y1="590" gradientUnits="userSpaceOnUse" y2="690" xlink:type="simple" xlink:actuate="onLoad" id="linearGradient12" xlink:show="other" spreadMethod="pad">
                <stop stop-opacity="1" stop-color="white" offset="0%"/>
                <stop stop-opacity="1" stop-color="rgb(195,209,213)" offset="100%"/>
            </linearGradient>
            <clipPath clipPathUnits="userSpaceOnUse" id="clipPath1">
                <path d="M10 10 L10 766 L1055 766 L1055 10 Z"/>
            </clipPath>
            <clipPath clipPathUnits="userSpaceOnUse" id="clipPath2">
                <path d="M7 7 L1059 7 L1059 770 L7 770 L7 7 Z"/>
            </clipPath>
            <clipPath clipPathUnits="userSpaceOnUse" id="clipPath3">
                <path d="M15 12 L140 12 L140 25 L15 25 L15 12 Z"/>
            </clipPath>
            <clipPath clipPathUnits="userSpaceOnUse" id="clipPath4">
                <path d="M109 39 L211 39 L211 741 L109 741 L109 39 Z"/>
            </clipPath>
            <clipPath clipPathUnits="userSpaceOnUse" id="clipPath5">
                <path d="M110 40 L110 739 L209 739 L209 40 Z"/>
            </clipPath>
            <clipPath clipPathUnits="userSpaceOnUse" id="clipPath6">
                <path d="M137 42 L184 42 L184 55 L137 55 L137 42 Z"/>
            </clipPath>
            <clipPath clipPathUnits="userSpaceOnUse" id="clipPath7">
                <path d="M269 39 L392 39 L392 741 L269 741 L269 39 Z"/>
            </clipPath>
            <clipPath clipPathUnits="userSpaceOnUse" id="clipPath8">
                <path d="M270 40 L270 739 L390 739 L390 40 Z"/>
            </clipPath>
            <clipPath clipPathUnits="userSpaceOnUse" id="clipPath9">
                <path d="M281 42 L381 42 L381 55 L281 55 L281 42 Z"/>
            </clipPath>
            <clipPath clipPathUnits="userSpaceOnUse" id="clipPath10">
                <path d="M320 90 L320 189 L339 189 L339 90 Z"/>
            </clipPath>
            <clipPath clipPathUnits="userSpaceOnUse" id="clipPath11">
                <path d="M319 89 L341 89 L341 191 L319 191 L319 89 Z"/>
            </clipPath>
            <clipPath clipPathUnits="userSpaceOnUse" id="clipPath12">
                <path d="M449 39 L592 39 L592 741 L449 741 L449 39 Z"/>
            </clipPath>
            <clipPath clipPathUnits="userSpaceOnUse" id="clipPath13">
                <path d="M450 40 L450 739 L590 739 L590 40 Z"/>
            </clipPath>
            <clipPath clipPathUnits="userSpaceOnUse" id="clipPath14">
                <path d="M460 42 L582 42 L582 55 L460 55 L460 42 Z"/>
            </clipPath>
            <clipPath clipPathUnits="userSpaceOnUse" id="clipPath15">
                <path d="M510 190 L510 289 L529 289 L529 190 Z"/>
            </clipPath>
            <clipPath clipPathUnits="userSpaceOnUse" id="clipPath16">
                <path d="M509 189 L531 189 L531 291 L509 291 L509 189 Z"/>
            </clipPath>
            <clipPath clipPathUnits="userSpaceOnUse" id="clipPath17">
                <path d="M649 39 L852 39 L852 741 L649 741 L649 39 Z"/>
            </clipPath>
            <clipPath clipPathUnits="userSpaceOnUse" id="clipPath18">
                <path d="M650 40 L650 739 L850 739 L850 40 Z"/>
            </clipPath>
            <clipPath clipPathUnits="userSpaceOnUse" id="clipPath19">
                <path d="M674 42 L829 42 L829 55 L674 55 L674 42 Z"/>
            </clipPath>
            <clipPath clipPathUnits="userSpaceOnUse" id="clipPath20">
                <path d="M740 290 L740 389 L759 389 L759 290 Z"/>
            </clipPath>
            <clipPath clipPathUnits="userSpaceOnUse" id="clipPath21">
                <path d="M739 289 L761 289 L761 391 L739 391 L739 289 Z"/>
            </clipPath>
            <clipPath clipPathUnits="userSpaceOnUse" id="clipPath22">
                <path d="M740 490 L740 589 L759 589 L759 490 Z"/>
            </clipPath>
            <clipPath clipPathUnits="userSpaceOnUse" id="clipPath23">
                <path d="M739 489 L761 489 L761 591 L739 591 L739 489 Z"/>
            </clipPath>
            <clipPath clipPathUnits="userSpaceOnUse" id="clipPath24">
                <path d="M889 39 L1052 39 L1052 741 L889 741 L889 39 Z"/>
            </clipPath>
            <clipPath clipPathUnits="userSpaceOnUse" id="clipPath25">
                <path d="M890 40 L890 739 L1050 739 L1050 40 Z"/>
            </clipPath>
            <clipPath clipPathUnits="userSpaceOnUse" id="clipPath26">
                <path d="M905 42 L1038 42 L1038 55 L905 55 L905 42 Z"/>
            </clipPath>
            <clipPath clipPathUnits="userSpaceOnUse" id="clipPath27">
                <path d="M960 390 L960 489 L979 489 L979 390 Z"/>
            </clipPath>
            <clipPath clipPathUnits="userSpaceOnUse" id="clipPath28">
                <path d="M959 389 L981 389 L981 491 L959 491 L959 389 Z"/>
            </clipPath>
            <clipPath clipPathUnits="userSpaceOnUse" id="clipPath29">
                <path d="M960 590 L960 689 L979 689 L979 590 Z"/>
            </clipPath>
            <clipPath clipPathUnits="userSpaceOnUse" id="clipPath30">
                <path d="M959 589 L981 589 L981 691 L959 691 L959 589 Z"/>
            </clipPath>
            <clipPath clipPathUnits="userSpaceOnUse" id="clipPath31">
                <path d="M9 9 L1057 9 L1057 768 L9 768 L9 9 Z"/>
            </clipPath>
            <clipPath clipPathUnits="userSpaceOnUse" id="clipPath32">
                <path d="M-1 -1 L1067 -1 L1067 1021 L-1 1021 L-1 -1 Z"/>
            </clipPath>
            <clipPath clipPathUnits="userSpaceOnUse" id="clipPath33">
                <path d="M194 71 L289 71 L289 84 L194 84 L194 71 Z"/>
            </clipPath>
            <clipPath clipPathUnits="userSpaceOnUse" id="clipPath34">
                <path d="M303 83 L322 83 L322 98 L303 98 L303 83 Z"/>
            </clipPath>
            <clipPath clipPathUnits="userSpaceOnUse" id="clipPath35">
                <path d="M811 371 L911 371 L911 384 L811 384 L811 371 Z"/>
            </clipPath>
            <clipPath clipPathUnits="userSpaceOnUse" id="clipPath36">
                <path d="M943 383 L962 383 L962 398 L943 398 L943 383 Z"/>
            </clipPath>
            <clipPath clipPathUnits="userSpaceOnUse" id="clipPath37">
                <path d="M360 171 L493 171 L493 184 L360 184 L360 171 Z"/>
            </clipPath>
            <clipPath clipPathUnits="userSpaceOnUse" id="clipPath38">
                <path d="M493 183 L512 183 L512 198 L493 198 L493 183 Z"/>
            </clipPath>
            <clipPath clipPathUnits="userSpaceOnUse" id="clipPath39">
                <path d="M833 571 L890 571 L890 584 L833 584 L833 571 Z"/>
            </clipPath>
            <clipPath clipPathUnits="userSpaceOnUse" id="clipPath40">
                <path d="M943 583 L962 583 L962 598 L943 598 L943 583 Z"/>
            </clipPath>
            <clipPath clipPathUnits="userSpaceOnUse" id="clipPath41">
                <path d="M672 697 L806 697 L806 710 L672 710 L672 697 Z"/>
            </clipPath>
            <clipPath clipPathUnits="userSpaceOnUse" id="clipPath42">
                <path d="M519 683 L538 683 L538 698 L519 698 L519 683 Z"/>
            </clipPath>
            <clipPath clipPathUnits="userSpaceOnUse" id="clipPath43">
                <path d="M618 271 L654 271 L654 284 L618 284 L618 271 Z"/>
            </clipPath>
            <clipPath clipPathUnits="userSpaceOnUse" id="clipPath44">
                <path d="M723 283 L742 283 L742 298 L723 298 L723 283 Z"/>
            </clipPath>
            <clipPath clipPathUnits="userSpaceOnUse" id="clipPath45">
                <path d="M784 497 L935 497 L935 510 L784 510 L784 497 Z"/>
            </clipPath>
            <clipPath clipPathUnits="userSpaceOnUse" id="clipPath46">
                <path d="M759 483 L778 483 L778 498 L759 498 L759 483 Z"/>
            </clipPath>
        </defs>
        <g font-size="11px" fill="url(#linearGradient1)" font-family="'.AppleSystemUIFont'" stroke-linejoin="round" stroke="url(#linearGradient1)" stroke-width="0" stroke-miterlimit="0">
            <rect x="10" width="1046" height="757" y="10" clip-path="url(#clipPath1)" stroke="none"/>
        </g>
        <g font-size="11px" stroke-width="0.1" font-family="'.AppleSystemUIFont'" stroke-linecap="butt">
            <line y2="20" fill="none" x1="153" clip-path="url(#clipPath2)" x2="153" y1="10"/>
            <line y2="20" fill="none" x1="153" clip-path="url(#clipPath2)" x2="153" y1="20"/>
            <line y2="24" fill="none" x1="153" clip-path="url(#clipPath2)" x2="149" y1="20"/>
            <line y2="24" fill="none" x1="149" clip-path="url(#clipPath2)" x2="149" y1="24"/>
            <line y2="24" fill="none" x1="149" clip-path="url(#clipPath2)" x2="10" y1="24"/>
            <text x="16" xml:space="preserve" font-size="9px" y="22" clip-path="url(#clipPath3)" stroke="none">Login - Sequence Diagram  </text>
            <rect x="110" y="40" clip-path="url(#clipPath4)" fill="none" width="99" height="14" stroke-width="1.1"/>
            <line clip-path="url(#clipPath4)" fill="none" x1="160" x2="160" y1="54" y2="739" stroke-dasharray="5,5" stroke-width="1.1"/>
        </g>
        <g stroke-linecap="butt" font-size="11px" fill="url(#linearGradient2)" font-family="'.AppleSystemUIFont'" stroke-dasharray="5,5" stroke="url(#linearGradient2)" stroke-width="1.1">
            <rect x="110" y="40" clip-path="url(#clipPath5)" width="100" height="700" opacity="0" stroke="none"/>
            <text x="138" font-size="9px" y="52" clip-path="url(#clipPath6)" fill="black" stroke="none" xml:space="preserve">LLineUser</text>
            <rect x="270" y="40" clip-path="url(#clipPath7)" fill="none" width="120" stroke-dasharray="none" height="14" stroke="black"/>
            <line clip-path="url(#clipPath7)" fill="none" x1="330" x2="330" y1="54" y2="739" stroke="black"/>
            <rect x="270" y="40" clip-path="url(#clipPath8)" fill="url(#linearGradient3)" width="121" opacity="0" height="700" stroke="none"/>
            <text x="282" font-size="9px" y="52" clip-path="url(#clipPath9)" fill="black" stroke="none" xml:space="preserve">loginPage : LoginPage</text>
            <rect x="320" y="90" clip-path="url(#clipPath10)" fill="url(#linearGradient4)" width="20" height="100" stroke="none"/>
            <rect x="320" y="90" clip-path="url(#clipPath11)" fill="none" width="19" stroke-dasharray="none" rx="0" ry="0" height="99" stroke="black"/>
            <rect x="450" y="40" clip-path="url(#clipPath12)" fill="none" width="140" stroke-dasharray="none" height="14" stroke="black"/>
            <line clip-path="url(#clipPath12)" fill="none" x1="520" x2="520" y1="54" y2="739" stroke="black"/>
            <rect x="450" y="40" clip-path="url(#clipPath13)" fill="url(#linearGradient5)" width="141" opacity="0" height="700" stroke="none"/>
            <text x="461" font-size="9px" y="52" clip-path="url(#clipPath14)" fill="black" stroke="none" xml:space="preserve">loginService : LoginService</text>
            <rect x="510" y="190" clip-path="url(#clipPath15)" fill="url(#linearGradient6)" width="20" height="100" stroke="none"/>
            <rect x="510" y="190" clip-path="url(#clipPath16)" fill="none" width="19" stroke-dasharray="none" rx="0" ry="0" height="99" stroke="black"/>
            <rect x="650" y="40" clip-path="url(#clipPath17)" fill="none" width="200" stroke-dasharray="none" height="14" stroke="black"/>
            <line clip-path="url(#clipPath17)" fill="none" x1="750" x2="750" y1="54" y2="739" stroke="black"/>
            <rect x="650" y="40" clip-path="url(#clipPath18)" fill="url(#linearGradient7)" width="201" opacity="0" height="700" stroke="none"/>
            <text x="675" font-size="9px" y="52" clip-path="url(#clipPath19)" fill="black" stroke="none" xml:space="preserve">profileController : ProfileController</text>
            <rect x="740" y="290" clip-path="url(#clipPath20)" fill="url(#linearGradient8)" width="20" height="100" stroke="none"/>
            <rect x="740" y="290" clip-path="url(#clipPath21)" fill="none" width="19" stroke-dasharray="none" rx="0" ry="0" height="99" stroke="black"/>
            <rect x="740" y="490" clip-path="url(#clipPath22)" fill="url(#linearGradient9)" width="20" stroke-dasharray="none" height="100" stroke="none"/>
            <rect x="740" y="490" clip-path="url(#clipPath23)" fill="none" width="19" stroke-dasharray="none" rx="0" ry="0" height="99" stroke="black"/>
            <rect x="890" y="40" clip-path="url(#clipPath24)" fill="none" width="160" stroke-dasharray="none" height="14" stroke="black"/>
            <line clip-path="url(#clipPath24)" fill="none" x1="970" x2="970" y1="54" y2="739" stroke="black"/>
            <rect x="890" y="40" clip-path="url(#clipPath25)" fill="url(#linearGradient10)" width="161" opacity="0" height="700" stroke="none"/>
            <text x="906" font-size="9px" y="52" clip-path="url(#clipPath26)" fill="black" stroke="none" xml:space="preserve">profileService : ProfileService</text>
            <rect x="960" y="390" clip-path="url(#clipPath27)" fill="url(#linearGradient11)" width="20" height="100" stroke="none"/>
            <rect x="960" y="390" clip-path="url(#clipPath28)" fill="none" width="19" stroke-dasharray="none" rx="0" ry="0" height="99" stroke="black"/>
            <rect x="960" y="590" clip-path="url(#clipPath29)" fill="url(#linearGradient12)" width="20" stroke-dasharray="none" height="100" stroke="none"/>
            <rect x="960" y="590" clip-path="url(#clipPath30)" fill="none" width="19" stroke-dasharray="none" rx="0" ry="0" height="99" stroke="black"/>
            <rect x="10" y="10" clip-path="url(#clipPath31)" fill="none" width="1045" stroke-dasharray="none" rx="0" ry="0" height="756" stroke="black"/>
        </g>
        <g text-rendering="optimizeLegibility" stroke-width="1.1" font-size="9px" font-family="'.AppleSystemUIFont'" stroke-linecap="butt">
            <line y2="90" fill="none" x1="160" clip-path="url(#clipPath32)" x2="320" y1="90"/>
            <text x="195" xml:space="preserve" y="81" clip-path="url(#clipPath33)" stroke="none">  submitCredentials()</text>
            <line y2="90" fill="none" x1="304" clip-path="url(#clipPath34)" x2="320" y1="96"/>
            <line y2="84" fill="none" x1="320" clip-path="url(#clipPath34)" x2="304" y1="90"/>
            <line y2="390" fill="none" x1="760" clip-path="url(#clipPath32)" x2="960" y1="390"/>
            <text x="812" xml:space="preserve" y="381" clip-path="url(#clipPath35)" stroke="none">  areCredentialsValid()</text>
            <polygon points=" 960 390 944 396 944 384" clip-path="url(#clipPath36)" stroke="none"/>
            <polygon fill="none" points=" 960 390 944 396 944 384" clip-path="url(#clipPath36)"/>
            <line y2="190" fill="none" x1="340" clip-path="url(#clipPath32)" x2="510" y1="190"/>
            <text x="361" xml:space="preserve" y="181" clip-path="url(#clipPath37)" stroke="none">  submitCredentialsToServer()</text>
            <line y2="190" fill="none" x1="494" clip-path="url(#clipPath38)" x2="510" y1="196"/>
            <line y2="184" fill="none" x1="510" clip-path="url(#clipPath38)" x2="494" y1="190"/>
            <line y2="590" fill="none" x1="760" clip-path="url(#clipPath32)" x2="960" y1="590"/>
            <text x="834" xml:space="preserve" y="581" clip-path="url(#clipPath39)" stroke="none">  loginUser()</text>
            <line y2="590" fill="none" x1="944" clip-path="url(#clipPath40)" x2="960" y1="596"/>
            <line y2="584" fill="none" x1="960" clip-path="url(#clipPath40)" x2="944" y1="590"/>
            <line clip-path="url(#clipPath32)" fill="none" x1="960" x2="520" y1="690" y2="690" stroke-dasharray="6.6,3.3"/>
            <text x="673" xml:space="preserve" stroke-dasharray="6.6,3.3" y="707" clip-path="url(#clipPath41)" stroke="none">Send Response Back to Client</text>
            <line y2="690" fill="none" x1="536" clip-path="url(#clipPath42)" x2="520" y1="684"/>
            <line y2="696" fill="none" x1="520" clip-path="url(#clipPath42)" x2="536" y1="690"/>
            <line y2="290" fill="none" x1="530" clip-path="url(#clipPath32)" x2="740" y1="290"/>
            <text x="619" xml:space="preserve" y="281" clip-path="url(#clipPath43)" stroke="none">  login()</text>
            <line y2="290" fill="none" x1="724" clip-path="url(#clipPath44)" x2="740" y1="296"/>
            <line y2="284" fill="none" x1="740" clip-path="url(#clipPath44)" x2="724" y1="290"/>
            <line clip-path="url(#clipPath32)" fill="none" x1="960" x2="760" y1="490" y2="490" stroke-dasharray="6.6,3.3"/>
            <text x="785" xml:space="preserve" stroke-dasharray="6.6,3.3" y="507" clip-path="url(#clipPath45)" stroke="none">Confirm if Credentials are Correct</text>
            <line y2="490" fill="none" x1="776" clip-path="url(#clipPath46)" x2="760" y1="484"/>
            <line y2="496" fill="none" x1="760" clip-path="url(#clipPath46)" x2="776" y1="490"/>
            <line y2="90" fill="none" x1="160" clip-path="url(#clipPath32)" x2="320" y1="90"/>
            <text x="195" xml:space="preserve" y="81" clip-path="url(#clipPath33)" stroke="none">  submitCredentials()</text>
            <line y2="90" fill="none" x1="304" clip-path="url(#clipPath34)" x2="320" y1="96"/>
            <line y2="84" fill="none" x1="320" clip-path="url(#clipPath34)" x2="304" y1="90"/>
            <line y2="190" fill="none" x1="340" clip-path="url(#clipPath32)" x2="510" y1="190"/>
            <text x="361" xml:space="preserve" y="181" clip-path="url(#clipPath37)" stroke="none">  submitCredentialsToServer()</text>
            <line y2="190" fill="none" x1="494" clip-path="url(#clipPath38)" x2="510" y1="196"/>
            <line y2="184" fill="none" x1="510" clip-path="url(#clipPath38)" x2="494" y1="190"/>
            <line y2="290" fill="none" x1="530" clip-path="url(#clipPath32)" x2="740" y1="290"/>
            <text x="619" xml:space="preserve" y="281" clip-path="url(#clipPath43)" stroke="none">  login()</text>
            <line y2="290" fill="none" x1="724" clip-path="url(#clipPath44)" x2="740" y1="296"/>
            <line y2="284" fill="none" x1="740" clip-path="url(#clipPath44)" x2="724" y1="290"/>
            <line y2="390" fill="none" x1="760" clip-path="url(#clipPath32)" x2="960" y1="390"/>
            <text x="812" xml:space="preserve" y="381" clip-path="url(#clipPath35)" stroke="none">  areCredentialsValid()</text>
            <polygon points=" 960 390 944 396 944 384" clip-path="url(#clipPath36)" stroke="none"/>
            <polygon fill="none" points=" 960 390 944 396 944 384" clip-path="url(#clipPath36)"/>
            <line clip-path="url(#clipPath32)" fill="none" x1="960" x2="760" y1="490" y2="490" stroke-dasharray="6.6,3.3"/>
            <text x="785" xml:space="preserve" stroke-dasharray="6.6,3.3" y="507" clip-path="url(#clipPath45)" stroke="none">Confirm if Credentials are Correct</text>
            <line y2="490" fill="none" x1="776" clip-path="url(#clipPath46)" x2="760" y1="484"/>
            <line y2="496" fill="none" x1="760" clip-path="url(#clipPath46)" x2="776" y1="490"/>
            <line y2="590" fill="none" x1="760" clip-path="url(#clipPath32)" x2="960" y1="590"/>
            <text x="834" xml:space="preserve" y="581" clip-path="url(#clipPath39)" stroke="none">  loginUser()</text>
            <line y2="590" fill="none" x1="944" clip-path="url(#clipPath40)" x2="960" y1="596"/>
            <line y2="584" fill="none" x1="960" clip-path="url(#clipPath40)" x2="944" y1="590"/>
            <line clip-path="url(#clipPath32)" fill="none" x1="960" x2="520" y1="690" y2="690" stroke-dasharray="6.6,3.3"/>
            <text x="673" xml:space="preserve" stroke-dasharray="6.6,3.3" y="707" clip-path="url(#clipPath41)" stroke="none">Send Response Back to Client</text>
            <line y2="690" fill="none" x1="536" clip-path="url(#clipPath42)" x2="520" y1="684"/>
            <line y2="696" fill="none" x1="520" clip-path="url(#clipPath42)" x2="536" y1="690"/>
        </g>
    </g>
</svg>
