<?xml version="1.0" encoding="UTF-8"?><svg xmlns="http://www.w3.org/2000/svg" xmlns:xlink="http://www.w3.org/1999/xlink" stroke-dasharray="none" shape-rendering="auto" font-family="'Dialog'" width="877" text-rendering="auto" fill-opacity="1" contentScriptType="text/ecmascript" color-interpolation="auto" color-rendering="auto" preserveAspectRatio="xMidYMid meet" font-size="12px" viewBox="0 0 877 1020" fill="black" stroke="black" image-rendering="auto" stroke-miterlimit="10" zoomAndPan="magnify" version="1.0" stroke-linecap="square" stroke-linejoin="miter" contentStyleType="text/css" font-style="normal" height="1020" stroke-width="1" stroke-dashoffset="0" font-weight="normal" stroke-opacity="1">
    <!--Generated by the Batik Graphics2D SVG Generator-->
    <defs id="genericDefs"/>
    <g>
        <defs id="defs1">
            <linearGradient x1="10" x2="10" y1="10" gradientUnits="userSpaceOnUse" y2="767" xlink:type="simple" xlink:actuate="onLoad" id="linearGradient1" xlink:show="other" spreadMethod="pad">
                <stop stop-opacity="1" stop-color="white" offset="0%"/>
                <stop stop-opacity="1" stop-color="white" offset="100%"/>
            </linearGradient>
            <linearGradient x1="70" x2="70" y1="40" gradientUnits="userSpaceOnUse" y2="740" xlink:type="simple" xlink:actuate="onLoad" id="linearGradient2" xlink:show="other" spreadMethod="pad">
                <stop stop-opacity="1" stop-color="white" offset="0%"/>
                <stop stop-opacity="1" stop-color="rgb(195,209,213)" offset="100%"/>
            </linearGradient>
            <linearGradient x1="230" x2="230" y1="40" gradientUnits="userSpaceOnUse" y2="740" xlink:type="simple" xlink:actuate="onLoad" id="linearGradient3" xlink:show="other" spreadMethod="pad">
                <stop stop-opacity="1" stop-color="white" offset="0%"/>
                <stop stop-opacity="1" stop-color="rgb(195,209,213)" offset="100%"/>
            </linearGradient>
            <linearGradient x1="270" x2="270" y1="110" gradientUnits="userSpaceOnUse" y2="210" xlink:type="simple" xlink:actuate="onLoad" id="linearGradient4" xlink:show="other" spreadMethod="pad">
                <stop stop-opacity="1" stop-color="white" offset="0%"/>
                <stop stop-opacity="1" stop-color="rgb(195,209,213)" offset="100%"/>
            </linearGradient>
            <linearGradient x1="390" x2="390" y1="40" gradientUnits="userSpaceOnUse" y2="740" xlink:type="simple" xlink:actuate="onLoad" id="linearGradient5" xlink:show="other" spreadMethod="pad">
                <stop stop-opacity="1" stop-color="white" offset="0%"/>
                <stop stop-opacity="1" stop-color="rgb(195,209,213)" offset="100%"/>
            </linearGradient>
            <linearGradient x1="430" x2="430" y1="210" gradientUnits="userSpaceOnUse" y2="310" xlink:type="simple" xlink:actuate="onLoad" id="linearGradient6" xlink:show="other" spreadMethod="pad">
                <stop stop-opacity="1" stop-color="white" offset="0%"/>
                <stop stop-opacity="1" stop-color="rgb(195,209,213)" offset="100%"/>
            </linearGradient>
            <linearGradient x1="550" x2="550" y1="40" gradientUnits="userSpaceOnUse" y2="740" xlink:type="simple" xlink:actuate="onLoad" id="linearGradient7" xlink:show="other" spreadMethod="pad">
                <stop stop-opacity="1" stop-color="white" offset="0%"/>
                <stop stop-opacity="1" stop-color="rgb(195,209,213)" offset="100%"/>
            </linearGradient>
            <linearGradient x1="590" x2="590" y1="250" gradientUnits="userSpaceOnUse" y2="350" xlink:type="simple" xlink:actuate="onLoad" id="linearGradient8" xlink:show="other" spreadMethod="pad">
                <stop stop-opacity="1" stop-color="white" offset="0%"/>
                <stop stop-opacity="1" stop-color="rgb(195,209,213)" offset="100%"/>
            </linearGradient>
            <clipPath clipPathUnits="userSpaceOnUse" id="clipPath1">
                <path d="M10 10 L10 766 L866 766 L866 10 Z"/>
            </clipPath>
            <clipPath clipPathUnits="userSpaceOnUse" id="clipPath2">
                <path d="M7 7 L870 7 L870 770 L7 770 L7 7 Z"/>
            </clipPath>
            <clipPath clipPathUnits="userSpaceOnUse" id="clipPath3">
                <path d="M15 12 L82 12 L82 25 L15 25 L15 12 Z"/>
            </clipPath>
            <clipPath clipPathUnits="userSpaceOnUse" id="clipPath4">
                <path d="M69 39 L171 39 L171 741 L69 741 L69 39 Z"/>
            </clipPath>
            <clipPath clipPathUnits="userSpaceOnUse" id="clipPath5">
                <path d="M70 40 L70 739 L169 739 L169 40 Z"/>
            </clipPath>
            <clipPath clipPathUnits="userSpaceOnUse" id="clipPath6">
                <path d="M95 42 L146 42 L146 55 L95 55 L95 42 Z"/>
            </clipPath>
            <clipPath clipPathUnits="userSpaceOnUse" id="clipPath7">
                <path d="M229 39 L331 39 L331 741 L229 741 L229 39 Z"/>
            </clipPath>
            <clipPath clipPathUnits="userSpaceOnUse" id="clipPath8">
                <path d="M230 40 L230 739 L329 739 L329 40 Z"/>
            </clipPath>
            <clipPath clipPathUnits="userSpaceOnUse" id="clipPath9">
                <path d="M251 42 L310 42 L310 55 L251 55 L251 42 Z"/>
            </clipPath>
            <clipPath clipPathUnits="userSpaceOnUse" id="clipPath10">
                <path d="M270 110 L270 209 L289 209 L289 110 Z"/>
            </clipPath>
            <clipPath clipPathUnits="userSpaceOnUse" id="clipPath11">
                <path d="M269 109 L291 109 L291 211 L269 211 L269 109 Z"/>
            </clipPath>
            <clipPath clipPathUnits="userSpaceOnUse" id="clipPath12">
                <path d="M389 39 L491 39 L491 741 L389 741 L389 39 Z"/>
            </clipPath>
            <clipPath clipPathUnits="userSpaceOnUse" id="clipPath13">
                <path d="M390 40 L390 739 L489 739 L489 40 Z"/>
            </clipPath>
            <clipPath clipPathUnits="userSpaceOnUse" id="clipPath14">
                <path d="M405 42 L476 42 L476 55 L405 55 L405 42 Z"/>
            </clipPath>
            <clipPath clipPathUnits="userSpaceOnUse" id="clipPath15">
                <path d="M430 210 L430 309 L449 309 L449 210 Z"/>
            </clipPath>
            <clipPath clipPathUnits="userSpaceOnUse" id="clipPath16">
                <path d="M429 209 L451 209 L451 311 L429 311 L429 209 Z"/>
            </clipPath>
            <clipPath clipPathUnits="userSpaceOnUse" id="clipPath17">
                <path d="M549 39 L651 39 L651 741 L549 741 L549 39 Z"/>
            </clipPath>
            <clipPath clipPathUnits="userSpaceOnUse" id="clipPath18">
                <path d="M550 40 L550 739 L649 739 L649 40 Z"/>
            </clipPath>
            <clipPath clipPathUnits="userSpaceOnUse" id="clipPath19">
                <path d="M562 42 L640 42 L640 55 L562 55 L562 42 Z"/>
            </clipPath>
            <clipPath clipPathUnits="userSpaceOnUse" id="clipPath20">
                <path d="M590 250 L590 349 L609 349 L609 250 Z"/>
            </clipPath>
            <clipPath clipPathUnits="userSpaceOnUse" id="clipPath21">
                <path d="M589 249 L611 249 L611 351 L589 351 L589 249 Z"/>
            </clipPath>
            <clipPath clipPathUnits="userSpaceOnUse" id="clipPath22">
                <path d="M9 9 L868 9 L868 768 L9 768 L9 9 Z"/>
            </clipPath>
            <clipPath clipPathUnits="userSpaceOnUse" id="clipPath23">
                <path d="M-1 -1 L878 -1 L878 1021 L-1 1021 L-1 -1 Z"/>
            </clipPath>
            <clipPath clipPathUnits="userSpaceOnUse" id="clipPath24">
                <path d="M231 317 L317 317 L317 330 L231 330 L231 317 Z"/>
            </clipPath>
            <clipPath clipPathUnits="userSpaceOnUse" id="clipPath25">
                <path d="M119 303 L138 303 L138 318 L119 318 L119 303 Z"/>
            </clipPath>
            <clipPath clipPathUnits="userSpaceOnUse" id="clipPath26">
                <path d="M324 191 L398 191 L398 204 L324 204 L324 191 Z"/>
            </clipPath>
            <clipPath clipPathUnits="userSpaceOnUse" id="clipPath27">
                <path d="M413 203 L432 203 L432 218 L413 218 L413 203 Z"/>
            </clipPath>
            <clipPath clipPathUnits="userSpaceOnUse" id="clipPath28">
                <path d="M498 231 L544 231 L544 244 L498 244 L498 231 Z"/>
            </clipPath>
            <clipPath clipPathUnits="userSpaceOnUse" id="clipPath29">
                <path d="M573 243 L592 243 L592 258 L573 258 L573 243 Z"/>
            </clipPath>
            <clipPath clipPathUnits="userSpaceOnUse" id="clipPath30">
                <path d="M168 91 L225 91 L225 104 L168 104 L168 91 Z"/>
            </clipPath>
            <clipPath clipPathUnits="userSpaceOnUse" id="clipPath31">
                <path d="M253 103 L272 103 L272 118 L253 118 L253 103 Z"/>
            </clipPath>
        </defs>
        <g font-size="11px" fill="url(#linearGradient1)" font-family="'.AppleSystemUIFont'" stroke-linejoin="round" stroke="url(#linearGradient1)" stroke-width="0" stroke-miterlimit="0">
            <rect x="10" width="857" height="757" y="10" clip-path="url(#clipPath1)" stroke="none"/>
        </g>
        <g font-size="11px" stroke-width="0.1" font-family="'.AppleSystemUIFont'" stroke-linecap="butt">
            <line y2="20" fill="none" x1="95" clip-path="url(#clipPath2)" x2="95" y1="10"/>
            <line y2="20" fill="none" x1="95" clip-path="url(#clipPath2)" x2="95" y1="20"/>
            <line y2="24" fill="none" x1="95" clip-path="url(#clipPath2)" x2="91" y1="20"/>
            <line y2="24" fill="none" x1="91" clip-path="url(#clipPath2)" x2="91" y1="24"/>
            <line y2="24" fill="none" x1="91" clip-path="url(#clipPath2)" x2="10" y1="24"/>
            <text x="16" xml:space="preserve" font-size="9px" y="22" clip-path="url(#clipPath3)" stroke="none">LoginTimeout  </text>
            <rect x="70" y="40" clip-path="url(#clipPath4)" fill="none" width="99" height="14" stroke-width="1.1"/>
            <line clip-path="url(#clipPath4)" fill="none" x1="120" x2="120" y1="54" y2="739" stroke-dasharray="5,5" stroke-width="1.1"/>
        </g>
        <g stroke-linecap="butt" font-size="11px" fill="url(#linearGradient2)" font-family="'.AppleSystemUIFont'" stroke-dasharray="5,5" stroke="url(#linearGradient2)" stroke-width="1.1">
            <rect x="70" y="40" clip-path="url(#clipPath5)" width="100" height="700" opacity="0" stroke="none"/>
            <text x="96" font-size="9px" y="52" clip-path="url(#clipPath6)" fill="black" stroke="none" xml:space="preserve">user : User</text>
            <rect x="230" y="40" clip-path="url(#clipPath7)" fill="none" width="99" stroke-dasharray="none" height="14" stroke="black"/>
            <line clip-path="url(#clipPath7)" fill="none" x1="280" x2="280" y1="54" y2="739" stroke="black"/>
            <rect x="230" y="40" clip-path="url(#clipPath8)" fill="url(#linearGradient3)" width="100" opacity="0" height="700" stroke="none"/>
            <text x="252" font-size="9px" y="52" clip-path="url(#clipPath9)" fill="black" stroke="none" xml:space="preserve">menu : Menu</text>
            <rect x="270" y="110" clip-path="url(#clipPath10)" fill="url(#linearGradient4)" width="20" height="100" stroke="none"/>
            <rect x="270" y="110" clip-path="url(#clipPath11)" fill="none" width="19" stroke-dasharray="none" rx="0" ry="0" height="99" stroke="black"/>
            <rect x="390" y="40" clip-path="url(#clipPath12)" fill="none" width="99" stroke-dasharray="none" height="14" stroke="black"/>
            <line clip-path="url(#clipPath12)" fill="none" x1="440" x2="440" y1="54" y2="739" stroke="black"/>
            <rect x="390" y="40" clip-path="url(#clipPath13)" fill="url(#linearGradient5)" width="100" opacity="0" height="700" stroke="none"/>
            <text x="406" font-size="9px" y="52" clip-path="url(#clipPath14)" fill="black" stroke="none" xml:space="preserve">counter : EDate</text>
            <rect x="430" y="210" clip-path="url(#clipPath15)" fill="url(#linearGradient6)" width="20" height="100" stroke="none"/>
            <rect x="430" y="210" clip-path="url(#clipPath16)" fill="none" width="19" stroke-dasharray="none" rx="0" ry="0" height="99" stroke="black"/>
            <rect x="550" y="40" clip-path="url(#clipPath17)" fill="none" width="99" stroke-dasharray="none" height="14" stroke="black"/>
            <line clip-path="url(#clipPath17)" fill="none" x1="600" x2="600" y1="54" y2="739" stroke="black"/>
            <rect x="550" y="40" clip-path="url(#clipPath18)" fill="url(#linearGradient7)" width="100" opacity="0" height="700" stroke="none"/>
            <text x="563" font-size="9px" y="52" clip-path="url(#clipPath19)" fill="black" stroke="none" xml:space="preserve">session : Session</text>
            <rect x="590" y="250" clip-path="url(#clipPath20)" fill="url(#linearGradient8)" width="20" height="100" stroke="none"/>
            <rect x="590" y="250" clip-path="url(#clipPath21)" fill="none" width="19" stroke-dasharray="none" rx="0" ry="0" height="99" stroke="black"/>
            <rect x="10" y="10" clip-path="url(#clipPath22)" fill="none" width="856" stroke-dasharray="none" rx="0" ry="0" height="756" stroke="black"/>
        </g>
        <g text-rendering="optimizeLegibility" stroke-width="1.1" font-size="9px" font-family="'.AppleSystemUIFont'" stroke-linecap="butt">
            <line y2="310" fill="none" x1="430" clip-path="url(#clipPath23)" x2="120" y1="310"/>
            <text x="232" xml:space="preserve" y="327" clip-path="url(#clipPath24)" stroke="none">  DisplayMessage()</text>
            <line y2="310" fill="none" x1="136" clip-path="url(#clipPath25)" x2="120" y1="304"/>
            <line y2="316" fill="none" x1="120" clip-path="url(#clipPath25)" x2="136" y1="310"/>
            <line y2="210" fill="none" x1="290" clip-path="url(#clipPath23)" x2="430" y1="210"/>
            <text x="325" xml:space="preserve" y="201" clip-path="url(#clipPath26)" stroke="none">  LoginTimeout()</text>
            <line y2="210" fill="none" x1="414" clip-path="url(#clipPath27)" x2="430" y1="216"/>
            <line y2="204" fill="none" x1="430" clip-path="url(#clipPath27)" x2="414" y1="210"/>
            <line y2="250" fill="none" x1="450" clip-path="url(#clipPath23)" x2="590" y1="250"/>
            <text x="499" xml:space="preserve" y="241" clip-path="url(#clipPath28)" stroke="none">  Logout()</text>
            <line y2="250" fill="none" x1="574" clip-path="url(#clipPath29)" x2="590" y1="256"/>
            <line y2="244" fill="none" x1="590" clip-path="url(#clipPath29)" x2="574" y1="250"/>
            <line y2="110" fill="none" x1="120" clip-path="url(#clipPath23)" x2="270" y1="110"/>
            <text x="169" xml:space="preserve" y="101" clip-path="url(#clipPath30)" stroke="none">  loginUser()</text>
            <line y2="110" fill="none" x1="254" clip-path="url(#clipPath31)" x2="270" y1="116"/>
            <line y2="104" fill="none" x1="270" clip-path="url(#clipPath31)" x2="254" y1="110"/>
            <line y2="110" fill="none" x1="120" clip-path="url(#clipPath23)" x2="270" y1="110"/>
            <text x="169" xml:space="preserve" y="101" clip-path="url(#clipPath30)" stroke="none">  loginUser()</text>
            <line y2="110" fill="none" x1="254" clip-path="url(#clipPath31)" x2="270" y1="116"/>
            <line y2="104" fill="none" x1="270" clip-path="url(#clipPath31)" x2="254" y1="110"/>
            <line y2="210" fill="none" x1="290" clip-path="url(#clipPath23)" x2="430" y1="210"/>
            <text x="325" xml:space="preserve" y="201" clip-path="url(#clipPath26)" stroke="none">  LoginTimeout()</text>
            <line y2="210" fill="none" x1="414" clip-path="url(#clipPath27)" x2="430" y1="216"/>
            <line y2="204" fill="none" x1="430" clip-path="url(#clipPath27)" x2="414" y1="210"/>
            <line y2="310" fill="none" x1="430" clip-path="url(#clipPath23)" x2="120" y1="310"/>
            <text x="232" xml:space="preserve" y="327" clip-path="url(#clipPath24)" stroke="none">  DisplayMessage()</text>
            <line y2="310" fill="none" x1="136" clip-path="url(#clipPath25)" x2="120" y1="304"/>
            <line y2="316" fill="none" x1="120" clip-path="url(#clipPath25)" x2="136" y1="310"/>
            <line y2="250" fill="none" x1="450" clip-path="url(#clipPath23)" x2="590" y1="250"/>
            <text x="499" xml:space="preserve" y="241" clip-path="url(#clipPath28)" stroke="none">  Logout()</text>
            <line y2="250" fill="none" x1="574" clip-path="url(#clipPath29)" x2="590" y1="256"/>
            <line y2="244" fill="none" x1="590" clip-path="url(#clipPath29)" x2="574" y1="250"/>
        </g>
    </g>
</svg>
