<?xml version="1.0" encoding="UTF-8"?><svg xmlns="http://www.w3.org/2000/svg" xmlns:xlink="http://www.w3.org/1999/xlink" stroke-dasharray="none" shape-rendering="auto" font-family="'Dialog'" width="1086" text-rendering="auto" fill-opacity="1" contentScriptType="text/ecmascript" color-interpolation="auto" color-rendering="auto" preserveAspectRatio="xMidYMid meet" font-size="12px" viewBox="0 0 1086 1020" fill="black" stroke="black" image-rendering="auto" stroke-miterlimit="10" zoomAndPan="magnify" version="1.0" stroke-linecap="square" stroke-linejoin="miter" contentStyleType="text/css" font-style="normal" height="1020" stroke-width="1" stroke-dashoffset="0" font-weight="normal" stroke-opacity="1">
    <!--Generated by the Batik Graphics2D SVG Generator-->
    <defs id="genericDefs"/>
    <g>
        <defs id="defs1">
            <linearGradient x1="10" x2="10" y1="10" gradientUnits="userSpaceOnUse" y2="767" xlink:type="simple" xlink:actuate="onLoad" id="linearGradient1" xlink:show="other" spreadMethod="pad">
                <stop stop-opacity="1" stop-color="white" offset="0%"/>
                <stop stop-opacity="1" stop-color="white" offset="100%"/>
            </linearGradient>
            <linearGradient x1="70" x2="70" y1="40" gradientUnits="userSpaceOnUse" y2="740" xlink:type="simple" xlink:actuate="onLoad" id="linearGradient2" xlink:show="other" spreadMethod="pad">
                <stop stop-opacity="1" stop-color="white" offset="0%"/>
                <stop stop-opacity="1" stop-color="rgb(195,209,213)" offset="100%"/>
            </linearGradient>
            <linearGradient x1="210" x2="210" y1="40" gradientUnits="userSpaceOnUse" y2="740" xlink:type="simple" xlink:actuate="onLoad" id="linearGradient3" xlink:show="other" spreadMethod="pad">
                <stop stop-opacity="1" stop-color="white" offset="0%"/>
                <stop stop-opacity="1" stop-color="rgb(195,209,213)" offset="100%"/>
            </linearGradient>
            <linearGradient x1="260" x2="260" y1="90" gradientUnits="userSpaceOnUse" y2="190" xlink:type="simple" xlink:actuate="onLoad" id="linearGradient4" xlink:show="other" spreadMethod="pad">
                <stop stop-opacity="1" stop-color="white" offset="0%"/>
                <stop stop-opacity="1" stop-color="rgb(195,209,213)" offset="100%"/>
            </linearGradient>
            <linearGradient x1="390" x2="390" y1="40" gradientUnits="userSpaceOnUse" y2="740" xlink:type="simple" xlink:actuate="onLoad" id="linearGradient5" xlink:show="other" spreadMethod="pad">
                <stop stop-opacity="1" stop-color="white" offset="0%"/>
                <stop stop-opacity="1" stop-color="rgb(195,209,213)" offset="100%"/>
            </linearGradient>
            <linearGradient x1="460" x2="460" y1="190" gradientUnits="userSpaceOnUse" y2="290" xlink:type="simple" xlink:actuate="onLoad" id="linearGradient6" xlink:show="other" spreadMethod="pad">
                <stop stop-opacity="1" stop-color="white" offset="0%"/>
                <stop stop-opacity="1" stop-color="rgb(195,209,213)" offset="100%"/>
            </linearGradient>
            <linearGradient x1="670" x2="670" y1="40" gradientUnits="userSpaceOnUse" y2="740" xlink:type="simple" xlink:actuate="onLoad" id="linearGradient7" xlink:show="other" spreadMethod="pad">
                <stop stop-opacity="1" stop-color="white" offset="0%"/>
                <stop stop-opacity="1" stop-color="rgb(195,209,213)" offset="100%"/>
            </linearGradient>
            <linearGradient x1="740" x2="740" y1="290" gradientUnits="userSpaceOnUse" y2="390" xlink:type="simple" xlink:actuate="onLoad" id="linearGradient8" xlink:show="other" spreadMethod="pad">
                <stop stop-opacity="1" stop-color="white" offset="0%"/>
                <stop stop-opacity="1" stop-color="rgb(195,209,213)" offset="100%"/>
            </linearGradient>
            <linearGradient x1="850" x2="850" y1="40" gradientUnits="userSpaceOnUse" y2="740" xlink:type="simple" xlink:actuate="onLoad" id="linearGradient9" xlink:show="other" spreadMethod="pad">
                <stop stop-opacity="1" stop-color="white" offset="0%"/>
                <stop stop-opacity="1" stop-color="rgb(195,209,213)" offset="100%"/>
            </linearGradient>
            <linearGradient x1="950" x2="950" y1="390" gradientUnits="userSpaceOnUse" y2="490" xlink:type="simple" xlink:actuate="onLoad" id="linearGradient10" xlink:show="other" spreadMethod="pad">
                <stop stop-opacity="1" stop-color="white" offset="0%"/>
                <stop stop-opacity="1" stop-color="rgb(195,209,213)" offset="100%"/>
            </linearGradient>
            <clipPath clipPathUnits="userSpaceOnUse" id="clipPath1">
                <path d="M10 10 L10 766 L1075 766 L1075 10 Z"/>
            </clipPath>
            <clipPath clipPathUnits="userSpaceOnUse" id="clipPath2">
                <path d="M7 7 L1079 7 L1079 770 L7 770 L7 7 Z"/>
            </clipPath>
            <clipPath clipPathUnits="userSpaceOnUse" id="clipPath3">
                <path d="M15 12 L207 12 L207 25 L15 25 L15 12 Z"/>
            </clipPath>
            <clipPath clipPathUnits="userSpaceOnUse" id="clipPath4">
                <path d="M69 39 L171 39 L171 741 L69 741 L69 39 Z"/>
            </clipPath>
            <clipPath clipPathUnits="userSpaceOnUse" id="clipPath5">
                <path d="M70 40 L70 739 L169 739 L169 40 Z"/>
            </clipPath>
            <clipPath clipPathUnits="userSpaceOnUse" id="clipPath6">
                <path d="M97 42 L144 42 L144 55 L97 55 L97 42 Z"/>
            </clipPath>
            <clipPath clipPathUnits="userSpaceOnUse" id="clipPath7">
                <path d="M209 39 L332 39 L332 741 L209 741 L209 39 Z"/>
            </clipPath>
            <clipPath clipPathUnits="userSpaceOnUse" id="clipPath8">
                <path d="M210 40 L210 739 L330 739 L330 40 Z"/>
            </clipPath>
            <clipPath clipPathUnits="userSpaceOnUse" id="clipPath9">
                <path d="M218 42 L325 42 L325 55 L218 55 L218 42 Z"/>
            </clipPath>
            <clipPath clipPathUnits="userSpaceOnUse" id="clipPath10">
                <path d="M260 90 L260 189 L279 189 L279 90 Z"/>
            </clipPath>
            <clipPath clipPathUnits="userSpaceOnUse" id="clipPath11">
                <path d="M259 89 L281 89 L281 191 L259 191 L259 89 Z"/>
            </clipPath>
            <clipPath clipPathUnits="userSpaceOnUse" id="clipPath12">
                <path d="M389 39 L552 39 L552 741 L389 741 L389 39 Z"/>
            </clipPath>
            <clipPath clipPathUnits="userSpaceOnUse" id="clipPath13">
                <path d="M390 40 L390 739 L550 739 L550 40 Z"/>
            </clipPath>
            <clipPath clipPathUnits="userSpaceOnUse" id="clipPath14">
                <path d="M407 42 L536 42 L536 55 L407 55 L407 42 Z"/>
            </clipPath>
            <clipPath clipPathUnits="userSpaceOnUse" id="clipPath15">
                <path d="M460 190 L460 289 L479 289 L479 190 Z"/>
            </clipPath>
            <clipPath clipPathUnits="userSpaceOnUse" id="clipPath16">
                <path d="M459 189 L481 189 L481 291 L459 291 L459 189 Z"/>
            </clipPath>
            <clipPath clipPathUnits="userSpaceOnUse" id="clipPath17">
                <path d="M669 39 L832 39 L832 741 L669 741 L669 39 Z"/>
            </clipPath>
            <clipPath clipPathUnits="userSpaceOnUse" id="clipPath18">
                <path d="M670 40 L670 739 L830 739 L830 40 Z"/>
            </clipPath>
            <clipPath clipPathUnits="userSpaceOnUse" id="clipPath19">
                <path d="M676 42 L827 42 L827 55 L676 55 L676 42 Z"/>
            </clipPath>
            <clipPath clipPathUnits="userSpaceOnUse" id="clipPath20">
                <path d="M740 290 L740 389 L759 389 L759 290 Z"/>
            </clipPath>
            <clipPath clipPathUnits="userSpaceOnUse" id="clipPath21">
                <path d="M739 289 L761 289 L761 391 L739 391 L739 289 Z"/>
            </clipPath>
            <clipPath clipPathUnits="userSpaceOnUse" id="clipPath22">
                <path d="M849 39 L1072 39 L1072 741 L849 741 L849 39 Z"/>
            </clipPath>
            <clipPath clipPathUnits="userSpaceOnUse" id="clipPath23">
                <path d="M850 40 L850 739 L1070 739 L1070 40 Z"/>
            </clipPath>
            <clipPath clipPathUnits="userSpaceOnUse" id="clipPath24">
                <path d="M859 42 L1064 42 L1064 55 L859 55 L859 42 Z"/>
            </clipPath>
            <clipPath clipPathUnits="userSpaceOnUse" id="clipPath25">
                <path d="M950 390 L950 489 L969 489 L969 390 Z"/>
            </clipPath>
            <clipPath clipPathUnits="userSpaceOnUse" id="clipPath26">
                <path d="M949 389 L971 389 L971 491 L949 491 L949 389 Z"/>
            </clipPath>
            <clipPath clipPathUnits="userSpaceOnUse" id="clipPath27">
                <path d="M9 9 L1077 9 L1077 768 L9 768 L9 9 Z"/>
            </clipPath>
            <clipPath clipPathUnits="userSpaceOnUse" id="clipPath28">
                <path d="M-1 -1 L1087 -1 L1087 1021 L-1 1021 L-1 -1 Z"/>
            </clipPath>
            <clipPath clipPathUnits="userSpaceOnUse" id="clipPath29">
                <path d="M642 497 L776 497 L776 510 L642 510 L642 497 Z"/>
            </clipPath>
            <clipPath clipPathUnits="userSpaceOnUse" id="clipPath30">
                <path d="M469 483 L488 483 L488 498 L469 498 L469 483 Z"/>
            </clipPath>
            <clipPath clipPathUnits="userSpaceOnUse" id="clipPath31">
                <path d="M818 371 L894 371 L894 384 L818 384 L818 371 Z"/>
            </clipPath>
            <clipPath clipPathUnits="userSpaceOnUse" id="clipPath32">
                <path d="M933 383 L952 383 L952 398 L933 398 L933 383 Z"/>
            </clipPath>
            <clipPath clipPathUnits="userSpaceOnUse" id="clipPath33">
                <path d="M285 171 L458 171 L458 184 L285 184 L285 171 Z"/>
            </clipPath>
            <clipPath clipPathUnits="userSpaceOnUse" id="clipPath34">
                <path d="M443 183 L462 183 L462 198 L443 198 L443 183 Z"/>
            </clipPath>
            <clipPath clipPathUnits="userSpaceOnUse" id="clipPath35">
                <path d="M573 271 L649 271 L649 284 L573 284 L573 271 Z"/>
            </clipPath>
            <clipPath clipPathUnits="userSpaceOnUse" id="clipPath36">
                <path d="M723 283 L742 283 L742 298 L723 298 L723 283 Z"/>
            </clipPath>
            <clipPath clipPathUnits="userSpaceOnUse" id="clipPath37">
                <path d="M143 71 L239 71 L239 84 L143 84 L143 71 Z"/>
            </clipPath>
            <clipPath clipPathUnits="userSpaceOnUse" id="clipPath38">
                <path d="M243 83 L262 83 L262 98 L243 98 L243 83 Z"/>
            </clipPath>
        </defs>
        <g font-size="11px" fill="url(#linearGradient1)" font-family="'.AppleSystemUIFont'" stroke-linejoin="round" stroke="url(#linearGradient1)" stroke-width="0" stroke-miterlimit="0">
            <rect x="10" width="1066" height="757" y="10" clip-path="url(#clipPath1)" stroke="none"/>
        </g>
        <g font-size="11px" stroke-width="0.1" font-family="'.AppleSystemUIFont'" stroke-linecap="butt">
            <line y2="20" fill="none" x1="220" clip-path="url(#clipPath2)" x2="220" y1="10"/>
            <line y2="20" fill="none" x1="220" clip-path="url(#clipPath2)" x2="220" y1="20"/>
            <line y2="24" fill="none" x1="220" clip-path="url(#clipPath2)" x2="216" y1="20"/>
            <line y2="24" fill="none" x1="216" clip-path="url(#clipPath2)" x2="216" y1="24"/>
            <line y2="24" fill="none" x1="216" clip-path="url(#clipPath2)" x2="10" y1="24"/>
            <text x="16" xml:space="preserve" font-size="9px" y="22" clip-path="url(#clipPath3)" stroke="none">Menu Section - Delete Section Interaction  </text>
            <rect x="70" y="40" clip-path="url(#clipPath4)" fill="none" width="99" height="14" stroke-width="1.1"/>
            <line clip-path="url(#clipPath4)" fill="none" x1="120" x2="120" y1="54" y2="739" stroke-dasharray="5,5" stroke-width="1.1"/>
        </g>
        <g stroke-linecap="butt" font-size="11px" fill="url(#linearGradient2)" font-family="'.AppleSystemUIFont'" stroke-dasharray="5,5" stroke="url(#linearGradient2)" stroke-width="1.1">
            <rect x="70" y="40" clip-path="url(#clipPath5)" width="100" height="700" opacity="0" stroke="none"/>
            <text x="98" font-size="9px" y="52" clip-path="url(#clipPath6)" fill="black" stroke="none" xml:space="preserve">LLineUser</text>
            <rect x="210" y="40" clip-path="url(#clipPath7)" fill="none" width="120" stroke-dasharray="none" height="14" stroke="black"/>
            <line clip-path="url(#clipPath7)" fill="none" x1="270" x2="270" y1="54" y2="739" stroke="black"/>
            <rect x="210" y="40" clip-path="url(#clipPath8)" fill="url(#linearGradient3)" width="121" opacity="0" height="700" stroke="none"/>
            <text x="219" font-size="9px" y="52" clip-path="url(#clipPath9)" fill="black" stroke="none" xml:space="preserve">canvaPage : CanvaPage</text>
            <rect x="260" y="90" clip-path="url(#clipPath10)" fill="url(#linearGradient4)" width="20" height="100" stroke="none"/>
            <rect x="260" y="90" clip-path="url(#clipPath11)" fill="none" width="19" stroke-dasharray="none" rx="0" ry="0" height="99" stroke="black"/>
            <rect x="390" y="40" clip-path="url(#clipPath12)" fill="none" width="160" stroke-dasharray="none" height="14" stroke="black"/>
            <line clip-path="url(#clipPath12)" fill="none" x1="470" x2="470" y1="54" y2="739" stroke="black"/>
            <rect x="390" y="40" clip-path="url(#clipPath13)" fill="url(#linearGradient5)" width="161" opacity="0" height="700" stroke="none"/>
            <text x="408" font-size="9px" y="52" clip-path="url(#clipPath14)" fill="black" stroke="none" xml:space="preserve">canvaService : CanvaService</text>
            <rect x="460" y="190" clip-path="url(#clipPath15)" fill="url(#linearGradient6)" width="20" height="100" stroke="none"/>
            <rect x="460" y="190" clip-path="url(#clipPath16)" fill="none" width="19" stroke-dasharray="none" rx="0" ry="0" height="99" stroke="black"/>
            <rect x="670" y="40" clip-path="url(#clipPath17)" fill="none" width="160" stroke-dasharray="none" height="14" stroke="black"/>
            <line clip-path="url(#clipPath17)" fill="none" x1="750" x2="750" y1="54" y2="739" stroke="black"/>
            <rect x="670" y="40" clip-path="url(#clipPath18)" fill="url(#linearGradient7)" width="161" opacity="0" height="700" stroke="none"/>
            <text x="677" font-size="9px" y="52" clip-path="url(#clipPath19)" fill="black" stroke="none" xml:space="preserve">canvaController : CanvaController</text>
            <rect x="740" y="290" clip-path="url(#clipPath20)" fill="url(#linearGradient8)" width="20" height="100" stroke="none"/>
            <rect x="740" y="290" clip-path="url(#clipPath21)" fill="none" width="19" stroke-dasharray="none" rx="0" ry="0" height="99" stroke="black"/>
            <rect x="850" y="40" clip-path="url(#clipPath22)" fill="none" width="220" stroke-dasharray="none" height="14" stroke="black"/>
            <line clip-path="url(#clipPath22)" fill="none" x1="960" x2="960" y1="54" y2="739" stroke="black"/>
            <rect x="850" y="40" clip-path="url(#clipPath23)" fill="url(#linearGradient9)" width="221" opacity="0" height="700" stroke="none"/>
            <text x="860" font-size="9px" y="52" clip-path="url(#clipPath24)" fill="black" stroke="none" xml:space="preserve">canvaManagerService : CanvaManagerService</text>
            <rect x="950" y="390" clip-path="url(#clipPath25)" fill="url(#linearGradient10)" width="20" height="100" stroke="none"/>
            <rect x="950" y="390" clip-path="url(#clipPath26)" fill="none" width="19" stroke-dasharray="none" rx="0" ry="0" height="99" stroke="black"/>
            <rect x="10" y="10" clip-path="url(#clipPath27)" fill="none" width="1065" stroke-dasharray="none" rx="0" ry="0" height="756" stroke="black"/>
        </g>
        <g text-rendering="optimizeLegibility" stroke-width="1.1" font-size="9px" stroke-dasharray="6.6,3.3" font-family="'.AppleSystemUIFont'" stroke-linecap="butt">
            <line y2="490" fill="none" x1="950" clip-path="url(#clipPath28)" x2="470" y1="490"/>
            <text x="643" xml:space="preserve" y="507" clip-path="url(#clipPath29)" stroke="none">Send Response Back to Client</text>
            <line clip-path="url(#clipPath30)" fill="none" x1="486" x2="470" y1="484" y2="490" stroke-dasharray="none"/>
            <line clip-path="url(#clipPath30)" fill="none" x1="470" x2="486" y1="490" y2="496" stroke-dasharray="none"/>
            <line clip-path="url(#clipPath28)" fill="none" x1="760" x2="950" y1="390" y2="390" stroke-dasharray="none"/>
            <text x="819" xml:space="preserve" stroke-dasharray="none" y="381" clip-path="url(#clipPath31)" stroke="none">  deleteSection()</text>
            <line clip-path="url(#clipPath32)" fill="none" x1="934" x2="950" y1="396" y2="390" stroke-dasharray="none"/>
            <line clip-path="url(#clipPath32)" fill="none" x1="950" x2="934" y1="390" y2="384" stroke-dasharray="none"/>
            <line clip-path="url(#clipPath28)" fill="none" x1="280" x2="460" y1="190" y2="190" stroke-dasharray="none"/>
            <text x="286" xml:space="preserve" stroke-dasharray="none" y="181" clip-path="url(#clipPath33)" stroke="none">  sendSectionDeleteRequestToServer()</text>
            <line clip-path="url(#clipPath34)" fill="none" x1="444" x2="460" y1="196" y2="190" stroke-dasharray="none"/>
            <line clip-path="url(#clipPath34)" fill="none" x1="460" x2="444" y1="190" y2="184" stroke-dasharray="none"/>
            <line clip-path="url(#clipPath28)" fill="none" x1="480" x2="740" y1="290" y2="290" stroke-dasharray="none"/>
            <text x="574" xml:space="preserve" stroke-dasharray="none" y="281" clip-path="url(#clipPath35)" stroke="none">  deleteSection()</text>
            <line clip-path="url(#clipPath36)" fill="none" x1="724" x2="740" y1="296" y2="290" stroke-dasharray="none"/>
            <line clip-path="url(#clipPath36)" fill="none" x1="740" x2="724" y1="290" y2="284" stroke-dasharray="none"/>
            <line clip-path="url(#clipPath28)" fill="none" x1="120" x2="260" y1="90" y2="90" stroke-dasharray="none"/>
            <text x="144" xml:space="preserve" stroke-dasharray="none" y="81" clip-path="url(#clipPath37)" stroke="none">UserDeletesASection</text>
            <line clip-path="url(#clipPath38)" fill="none" x1="244" x2="260" y1="96" y2="90" stroke-dasharray="none"/>
            <line clip-path="url(#clipPath38)" fill="none" x1="260" x2="244" y1="90" y2="84" stroke-dasharray="none"/>
            <line clip-path="url(#clipPath28)" fill="none" x1="120" x2="260" y1="90" y2="90" stroke-dasharray="none"/>
            <text x="144" xml:space="preserve" stroke-dasharray="none" y="81" clip-path="url(#clipPath37)" stroke="none">UserDeletesASection</text>
            <line clip-path="url(#clipPath38)" fill="none" x1="244" x2="260" y1="96" y2="90" stroke-dasharray="none"/>
            <line clip-path="url(#clipPath38)" fill="none" x1="260" x2="244" y1="90" y2="84" stroke-dasharray="none"/>
            <line clip-path="url(#clipPath28)" fill="none" x1="280" x2="460" y1="190" y2="190" stroke-dasharray="none"/>
            <text x="286" xml:space="preserve" stroke-dasharray="none" y="181" clip-path="url(#clipPath33)" stroke="none">  sendSectionDeleteRequestToServer()</text>
            <line clip-path="url(#clipPath34)" fill="none" x1="444" x2="460" y1="196" y2="190" stroke-dasharray="none"/>
            <line clip-path="url(#clipPath34)" fill="none" x1="460" x2="444" y1="190" y2="184" stroke-dasharray="none"/>
            <line clip-path="url(#clipPath28)" fill="none" x1="480" x2="740" y1="290" y2="290" stroke-dasharray="none"/>
            <text x="574" xml:space="preserve" stroke-dasharray="none" y="281" clip-path="url(#clipPath35)" stroke="none">  deleteSection()</text>
            <line clip-path="url(#clipPath36)" fill="none" x1="724" x2="740" y1="296" y2="290" stroke-dasharray="none"/>
            <line clip-path="url(#clipPath36)" fill="none" x1="740" x2="724" y1="290" y2="284" stroke-dasharray="none"/>
            <line clip-path="url(#clipPath28)" fill="none" x1="760" x2="950" y1="390" y2="390" stroke-dasharray="none"/>
            <text x="819" xml:space="preserve" stroke-dasharray="none" y="381" clip-path="url(#clipPath31)" stroke="none">  deleteSection()</text>
            <line clip-path="url(#clipPath32)" fill="none" x1="934" x2="950" y1="396" y2="390" stroke-dasharray="none"/>
            <line clip-path="url(#clipPath32)" fill="none" x1="950" x2="934" y1="390" y2="384" stroke-dasharray="none"/>
            <line y2="490" fill="none" x1="950" clip-path="url(#clipPath28)" x2="470" y1="490"/>
            <text x="643" xml:space="preserve" y="507" clip-path="url(#clipPath29)" stroke="none">Send Response Back to Client</text>
            <line clip-path="url(#clipPath30)" fill="none" x1="486" x2="470" y1="484" y2="490" stroke-dasharray="none"/>
            <line clip-path="url(#clipPath30)" fill="none" x1="470" x2="486" y1="490" y2="496" stroke-dasharray="none"/>
        </g>
    </g>
</svg>
