<?xml version="1.0" encoding="UTF-8"?><svg xmlns="http://www.w3.org/2000/svg" xmlns:xlink="http://www.w3.org/1999/xlink" stroke-dasharray="none" shape-rendering="auto" font-family="'Dialog'" width="986" text-rendering="auto" fill-opacity="1" contentScriptType="text/ecmascript" color-interpolation="auto" color-rendering="auto" preserveAspectRatio="xMidYMid meet" font-size="12px" viewBox="0 0 986 1020" fill="black" stroke="black" image-rendering="auto" stroke-miterlimit="10" zoomAndPan="magnify" version="1.0" stroke-linecap="square" stroke-linejoin="miter" contentStyleType="text/css" font-style="normal" height="1020" stroke-width="1" stroke-dashoffset="0" font-weight="normal" stroke-opacity="1">
    <!--Generated by the Batik Graphics2D SVG Generator-->
    <defs id="genericDefs"/>
    <g>
        <defs id="defs1">
            <linearGradient x1="10" x2="10" y1="10" gradientUnits="userSpaceOnUse" y2="767" xlink:type="simple" xlink:actuate="onLoad" id="linearGradient1" xlink:show="other" spreadMethod="pad">
                <stop stop-opacity="1" stop-color="white" offset="0%"/>
                <stop stop-opacity="1" stop-color="white" offset="100%"/>
            </linearGradient>
            <linearGradient x1="70" x2="70" y1="40" gradientUnits="userSpaceOnUse" y2="740" xlink:type="simple" xlink:actuate="onLoad" id="linearGradient2" xlink:show="other" spreadMethod="pad">
                <stop stop-opacity="1" stop-color="white" offset="0%"/>
                <stop stop-opacity="1" stop-color="rgb(195,209,213)" offset="100%"/>
            </linearGradient>
            <linearGradient x1="230" x2="230" y1="40" gradientUnits="userSpaceOnUse" y2="740" xlink:type="simple" xlink:actuate="onLoad" id="linearGradient3" xlink:show="other" spreadMethod="pad">
                <stop stop-opacity="1" stop-color="white" offset="0%"/>
                <stop stop-opacity="1" stop-color="rgb(195,209,213)" offset="100%"/>
            </linearGradient>
            <linearGradient x1="280" x2="280" y1="110" gradientUnits="userSpaceOnUse" y2="210" xlink:type="simple" xlink:actuate="onLoad" id="linearGradient4" xlink:show="other" spreadMethod="pad">
                <stop stop-opacity="1" stop-color="white" offset="0%"/>
                <stop stop-opacity="1" stop-color="rgb(195,209,213)" offset="100%"/>
            </linearGradient>
            <linearGradient x1="410" x2="410" y1="40" gradientUnits="userSpaceOnUse" y2="740" xlink:type="simple" xlink:actuate="onLoad" id="linearGradient5" xlink:show="other" spreadMethod="pad">
                <stop stop-opacity="1" stop-color="white" offset="0%"/>
                <stop stop-opacity="1" stop-color="rgb(195,209,213)" offset="100%"/>
            </linearGradient>
            <linearGradient x1="470" x2="470" y1="210" gradientUnits="userSpaceOnUse" y2="310" xlink:type="simple" xlink:actuate="onLoad" id="linearGradient6" xlink:show="other" spreadMethod="pad">
                <stop stop-opacity="1" stop-color="white" offset="0%"/>
                <stop stop-opacity="1" stop-color="rgb(195,209,213)" offset="100%"/>
            </linearGradient>
            <linearGradient x1="570" x2="570" y1="40" gradientUnits="userSpaceOnUse" y2="740" xlink:type="simple" xlink:actuate="onLoad" id="linearGradient7" xlink:show="other" spreadMethod="pad">
                <stop stop-opacity="1" stop-color="white" offset="0%"/>
                <stop stop-opacity="1" stop-color="rgb(195,209,213)" offset="100%"/>
            </linearGradient>
            <linearGradient x1="640" x2="640" y1="310" gradientUnits="userSpaceOnUse" y2="410" xlink:type="simple" xlink:actuate="onLoad" id="linearGradient8" xlink:show="other" spreadMethod="pad">
                <stop stop-opacity="1" stop-color="white" offset="0%"/>
                <stop stop-opacity="1" stop-color="rgb(195,209,213)" offset="100%"/>
            </linearGradient>
            <linearGradient x1="750" x2="750" y1="40" gradientUnits="userSpaceOnUse" y2="740" xlink:type="simple" xlink:actuate="onLoad" id="linearGradient9" xlink:show="other" spreadMethod="pad">
                <stop stop-opacity="1" stop-color="white" offset="0%"/>
                <stop stop-opacity="1" stop-color="rgb(195,209,213)" offset="100%"/>
            </linearGradient>
            <linearGradient x1="850" x2="850" y1="410" gradientUnits="userSpaceOnUse" y2="510" xlink:type="simple" xlink:actuate="onLoad" id="linearGradient10" xlink:show="other" spreadMethod="pad">
                <stop stop-opacity="1" stop-color="white" offset="0%"/>
                <stop stop-opacity="1" stop-color="rgb(195,209,213)" offset="100%"/>
            </linearGradient>
            <clipPath clipPathUnits="userSpaceOnUse" id="clipPath1">
                <path d="M10 10 L10 766 L975 766 L975 10 Z"/>
            </clipPath>
            <clipPath clipPathUnits="userSpaceOnUse" id="clipPath2">
                <path d="M7 7 L979 7 L979 770 L7 770 L7 7 Z"/>
            </clipPath>
            <clipPath clipPathUnits="userSpaceOnUse" id="clipPath3">
                <path d="M15 12 L196 12 L196 25 L15 25 L15 12 Z"/>
            </clipPath>
            <clipPath clipPathUnits="userSpaceOnUse" id="clipPath4">
                <path d="M69 39 L171 39 L171 741 L69 741 L69 39 Z"/>
            </clipPath>
            <clipPath clipPathUnits="userSpaceOnUse" id="clipPath5">
                <path d="M70 40 L70 739 L169 739 L169 40 Z"/>
            </clipPath>
            <clipPath clipPathUnits="userSpaceOnUse" id="clipPath6">
                <path d="M97 42 L144 42 L144 55 L97 55 L97 42 Z"/>
            </clipPath>
            <clipPath clipPathUnits="userSpaceOnUse" id="clipPath7">
                <path d="M229 39 L351 39 L351 741 L229 741 L229 39 Z"/>
            </clipPath>
            <clipPath clipPathUnits="userSpaceOnUse" id="clipPath8">
                <path d="M230 40 L230 739 L349 739 L349 40 Z"/>
            </clipPath>
            <clipPath clipPathUnits="userSpaceOnUse" id="clipPath9">
                <path d="M237 42 L344 42 L344 55 L237 55 L237 42 Z"/>
            </clipPath>
            <clipPath clipPathUnits="userSpaceOnUse" id="clipPath10">
                <path d="M280 110 L280 209 L299 209 L299 110 Z"/>
            </clipPath>
            <clipPath clipPathUnits="userSpaceOnUse" id="clipPath11">
                <path d="M279 109 L301 109 L301 211 L279 211 L279 109 Z"/>
            </clipPath>
            <clipPath clipPathUnits="userSpaceOnUse" id="clipPath12">
                <path d="M409 39 L552 39 L552 741 L409 741 L409 39 Z"/>
            </clipPath>
            <clipPath clipPathUnits="userSpaceOnUse" id="clipPath13">
                <path d="M410 40 L410 739 L550 739 L550 40 Z"/>
            </clipPath>
            <clipPath clipPathUnits="userSpaceOnUse" id="clipPath14">
                <path d="M417 42 L546 42 L546 55 L417 55 L417 42 Z"/>
            </clipPath>
            <clipPath clipPathUnits="userSpaceOnUse" id="clipPath15">
                <path d="M470 210 L470 309 L489 309 L489 210 Z"/>
            </clipPath>
            <clipPath clipPathUnits="userSpaceOnUse" id="clipPath16">
                <path d="M469 209 L491 209 L491 311 L469 311 L469 209 Z"/>
            </clipPath>
            <clipPath clipPathUnits="userSpaceOnUse" id="clipPath17">
                <path d="M569 39 L732 39 L732 741 L569 741 L569 39 Z"/>
            </clipPath>
            <clipPath clipPathUnits="userSpaceOnUse" id="clipPath18">
                <path d="M570 40 L570 739 L730 739 L730 40 Z"/>
            </clipPath>
            <clipPath clipPathUnits="userSpaceOnUse" id="clipPath19">
                <path d="M576 42 L727 42 L727 55 L576 55 L576 42 Z"/>
            </clipPath>
            <clipPath clipPathUnits="userSpaceOnUse" id="clipPath20">
                <path d="M640 310 L640 409 L659 409 L659 310 Z"/>
            </clipPath>
            <clipPath clipPathUnits="userSpaceOnUse" id="clipPath21">
                <path d="M639 309 L661 309 L661 411 L639 411 L639 309 Z"/>
            </clipPath>
            <clipPath clipPathUnits="userSpaceOnUse" id="clipPath22">
                <path d="M749 39 L972 39 L972 741 L749 741 L749 39 Z"/>
            </clipPath>
            <clipPath clipPathUnits="userSpaceOnUse" id="clipPath23">
                <path d="M750 40 L750 739 L970 739 L970 40 Z"/>
            </clipPath>
            <clipPath clipPathUnits="userSpaceOnUse" id="clipPath24">
                <path d="M759 42 L964 42 L964 55 L759 55 L759 42 Z"/>
            </clipPath>
            <clipPath clipPathUnits="userSpaceOnUse" id="clipPath25">
                <path d="M850 410 L850 509 L869 509 L869 410 Z"/>
            </clipPath>
            <clipPath clipPathUnits="userSpaceOnUse" id="clipPath26">
                <path d="M849 409 L871 409 L871 511 L849 511 L849 409 Z"/>
            </clipPath>
            <clipPath clipPathUnits="userSpaceOnUse" id="clipPath27">
                <path d="M9 9 L977 9 L977 768 L9 768 L9 9 Z"/>
            </clipPath>
            <clipPath clipPathUnits="userSpaceOnUse" id="clipPath28">
                <path d="M-1 -1 L987 -1 L987 1021 L-1 1021 L-1 -1 Z"/>
            </clipPath>
            <clipPath clipPathUnits="userSpaceOnUse" id="clipPath29">
                <path d="M597 517 L731 517 L731 530 L597 530 L597 517 Z"/>
            </clipPath>
            <clipPath clipPathUnits="userSpaceOnUse" id="clipPath30">
                <path d="M479 503 L498 503 L498 518 L479 518 L479 503 Z"/>
            </clipPath>
            <clipPath clipPathUnits="userSpaceOnUse" id="clipPath31">
                <path d="M120 91 L282 91 L282 104 L120 104 L120 91 Z"/>
            </clipPath>
            <clipPath clipPathUnits="userSpaceOnUse" id="clipPath32">
                <path d="M263 103 L282 103 L282 118 L263 118 L263 103 Z"/>
            </clipPath>
            <clipPath clipPathUnits="userSpaceOnUse" id="clipPath33">
                <path d="M714 391 L798 391 L798 404 L714 404 L714 391 Z"/>
            </clipPath>
            <clipPath clipPathUnits="userSpaceOnUse" id="clipPath34">
                <path d="M833 403 L852 403 L852 418 L833 418 L833 403 Z"/>
            </clipPath>
            <clipPath clipPathUnits="userSpaceOnUse" id="clipPath35">
                <path d="M524 291 L608 291 L608 304 L524 304 L524 291 Z"/>
            </clipPath>
            <clipPath clipPathUnits="userSpaceOnUse" id="clipPath36">
                <path d="M623 303 L642 303 L642 318 L623 318 L623 303 Z"/>
            </clipPath>
            <clipPath clipPathUnits="userSpaceOnUse" id="clipPath37">
                <path d="M295 191 L477 191 L477 204 L295 204 L295 191 Z"/>
            </clipPath>
            <clipPath clipPathUnits="userSpaceOnUse" id="clipPath38">
                <path d="M453 203 L472 203 L472 218 L453 218 L453 203 Z"/>
            </clipPath>
        </defs>
        <g font-size="11px" fill="url(#linearGradient1)" font-family="'.AppleSystemUIFont'" stroke-linejoin="round" stroke="url(#linearGradient1)" stroke-width="0" stroke-miterlimit="0">
            <rect x="10" width="966" height="757" y="10" clip-path="url(#clipPath1)" stroke="none"/>
        </g>
        <g font-size="11px" stroke-width="0.1" font-family="'.AppleSystemUIFont'" stroke-linecap="butt">
            <line y2="20" fill="none" x1="209" clip-path="url(#clipPath2)" x2="209" y1="10"/>
            <line y2="20" fill="none" x1="209" clip-path="url(#clipPath2)" x2="209" y1="20"/>
            <line y2="24" fill="none" x1="209" clip-path="url(#clipPath2)" x2="205" y1="20"/>
            <line y2="24" fill="none" x1="205" clip-path="url(#clipPath2)" x2="205" y1="24"/>
            <line y2="24" fill="none" x1="205" clip-path="url(#clipPath2)" x2="10" y1="24"/>
            <text x="16" xml:space="preserve" font-size="9px" y="22" clip-path="url(#clipPath3)" stroke="none">Menu Section - Add Section Interaction  </text>
            <rect x="70" y="40" clip-path="url(#clipPath4)" fill="none" width="99" height="14" stroke-width="1.1"/>
            <line clip-path="url(#clipPath4)" fill="none" x1="120" x2="120" y1="54" y2="739" stroke-dasharray="5,5" stroke-width="1.1"/>
        </g>
        <g stroke-linecap="butt" font-size="11px" fill="url(#linearGradient2)" font-family="'.AppleSystemUIFont'" stroke-dasharray="5,5" stroke="url(#linearGradient2)" stroke-width="1.1">
            <rect x="70" y="40" clip-path="url(#clipPath5)" width="100" height="700" opacity="0" stroke="none"/>
            <text x="98" font-size="9px" y="52" clip-path="url(#clipPath6)" fill="black" stroke="none" xml:space="preserve">LLineUser</text>
            <rect x="230" y="40" clip-path="url(#clipPath7)" fill="none" width="119" stroke-dasharray="none" height="14" stroke="black"/>
            <line clip-path="url(#clipPath7)" fill="none" x1="290" x2="290" y1="54" y2="739" stroke="black"/>
            <rect x="230" y="40" clip-path="url(#clipPath8)" fill="url(#linearGradient3)" width="120" opacity="0" height="700" stroke="none"/>
            <text x="238" font-size="9px" y="52" clip-path="url(#clipPath9)" fill="black" stroke="none" xml:space="preserve">canvaPage : CanvaPage</text>
            <rect x="280" y="110" clip-path="url(#clipPath10)" fill="url(#linearGradient4)" width="20" height="100" stroke="none"/>
            <rect x="280" y="110" clip-path="url(#clipPath11)" fill="none" width="19" stroke-dasharray="none" rx="0" ry="0" height="99" stroke="black"/>
            <rect x="410" y="40" clip-path="url(#clipPath12)" fill="none" width="140" stroke-dasharray="none" height="14" stroke="black"/>
            <line clip-path="url(#clipPath12)" fill="none" x1="480" x2="480" y1="54" y2="739" stroke="black"/>
            <rect x="410" y="40" clip-path="url(#clipPath13)" fill="url(#linearGradient5)" width="141" opacity="0" height="700" stroke="none"/>
            <text x="418" font-size="9px" y="52" clip-path="url(#clipPath14)" fill="black" stroke="none" xml:space="preserve">canvaService : CanvaService</text>
            <rect x="470" y="210" clip-path="url(#clipPath15)" fill="url(#linearGradient6)" width="20" height="100" stroke="none"/>
            <rect x="470" y="210" clip-path="url(#clipPath16)" fill="none" width="19" stroke-dasharray="none" rx="0" ry="0" height="99" stroke="black"/>
            <rect x="570" y="40" clip-path="url(#clipPath17)" fill="none" width="160" stroke-dasharray="none" height="14" stroke="black"/>
            <line clip-path="url(#clipPath17)" fill="none" x1="650" x2="650" y1="54" y2="739" stroke="black"/>
            <rect x="570" y="40" clip-path="url(#clipPath18)" fill="url(#linearGradient7)" width="161" opacity="0" height="700" stroke="none"/>
            <text x="577" font-size="9px" y="52" clip-path="url(#clipPath19)" fill="black" stroke="none" xml:space="preserve">canvaController : CanvaController</text>
            <rect x="640" y="310" clip-path="url(#clipPath20)" fill="url(#linearGradient8)" width="20" height="100" stroke="none"/>
            <rect x="640" y="310" clip-path="url(#clipPath21)" fill="none" width="19" stroke-dasharray="none" rx="0" ry="0" height="99" stroke="black"/>
            <rect x="750" y="40" clip-path="url(#clipPath22)" fill="none" width="220" stroke-dasharray="none" height="14" stroke="black"/>
            <line clip-path="url(#clipPath22)" fill="none" x1="860" x2="860" y1="54" y2="739" stroke="black"/>
            <rect x="750" y="40" clip-path="url(#clipPath23)" fill="url(#linearGradient9)" width="221" opacity="0" height="700" stroke="none"/>
            <text x="760" font-size="9px" y="52" clip-path="url(#clipPath24)" fill="black" stroke="none" xml:space="preserve">canvaManagerService : CanvaManagerService</text>
            <rect x="850" y="410" clip-path="url(#clipPath25)" fill="url(#linearGradient10)" width="20" height="100" stroke="none"/>
            <rect x="850" y="410" clip-path="url(#clipPath26)" fill="none" width="19" stroke-dasharray="none" rx="0" ry="0" height="99" stroke="black"/>
            <rect x="10" y="10" clip-path="url(#clipPath27)" fill="none" width="965" stroke-dasharray="none" rx="0" ry="0" height="756" stroke="black"/>
        </g>
        <g text-rendering="optimizeLegibility" stroke-width="1.1" font-size="9px" stroke-dasharray="6.6,3.3" font-family="'.AppleSystemUIFont'" stroke-linecap="butt">
            <line y2="510" fill="none" x1="850" clip-path="url(#clipPath28)" x2="480" y1="510"/>
            <text x="598" xml:space="preserve" y="527" clip-path="url(#clipPath29)" stroke="none">Send Response Back to Client</text>
            <line clip-path="url(#clipPath30)" fill="none" x1="496" x2="480" y1="504" y2="510" stroke-dasharray="none"/>
            <line clip-path="url(#clipPath30)" fill="none" x1="480" x2="496" y1="510" y2="516" stroke-dasharray="none"/>
            <line clip-path="url(#clipPath28)" fill="none" x1="120" x2="280" y1="110" y2="110" stroke-dasharray="none"/>
            <text x="121" xml:space="preserve" stroke-dasharray="none" y="101" clip-path="url(#clipPath31)" stroke="none">UserSelectCreateNewSectionOption</text>
            <line clip-path="url(#clipPath32)" fill="none" x1="264" x2="280" y1="116" y2="110" stroke-dasharray="none"/>
            <line clip-path="url(#clipPath32)" fill="none" x1="280" x2="264" y1="110" y2="104" stroke-dasharray="none"/>
            <line clip-path="url(#clipPath28)" fill="none" x1="660" x2="850" y1="410" y2="410" stroke-dasharray="none"/>
            <text x="715" xml:space="preserve" stroke-dasharray="none" y="401" clip-path="url(#clipPath33)" stroke="none">  addNewSection()</text>
            <line clip-path="url(#clipPath34)" fill="none" x1="834" x2="850" y1="416" y2="410" stroke-dasharray="none"/>
            <line clip-path="url(#clipPath34)" fill="none" x1="850" x2="834" y1="410" y2="404" stroke-dasharray="none"/>
            <line clip-path="url(#clipPath28)" fill="none" x1="490" x2="640" y1="310" y2="310" stroke-dasharray="none"/>
            <text x="525" xml:space="preserve" stroke-dasharray="none" y="301" clip-path="url(#clipPath35)" stroke="none">  addNewSection()</text>
            <line clip-path="url(#clipPath36)" fill="none" x1="624" x2="640" y1="316" y2="310" stroke-dasharray="none"/>
            <line clip-path="url(#clipPath36)" fill="none" x1="640" x2="624" y1="310" y2="304" stroke-dasharray="none"/>
            <line clip-path="url(#clipPath28)" fill="none" x1="300" x2="470" y1="210" y2="210" stroke-dasharray="none"/>
            <text x="296" xml:space="preserve" stroke-dasharray="none" y="201" clip-path="url(#clipPath37)" stroke="none">  sendSectionCreationRequestToServer()</text>
            <line clip-path="url(#clipPath38)" fill="none" x1="454" x2="470" y1="216" y2="210" stroke-dasharray="none"/>
            <line clip-path="url(#clipPath38)" fill="none" x1="470" x2="454" y1="210" y2="204" stroke-dasharray="none"/>
            <line clip-path="url(#clipPath28)" fill="none" x1="120" x2="280" y1="110" y2="110" stroke-dasharray="none"/>
            <text x="121" xml:space="preserve" stroke-dasharray="none" y="101" clip-path="url(#clipPath31)" stroke="none">UserSelectCreateNewSectionOption</text>
            <line clip-path="url(#clipPath32)" fill="none" x1="264" x2="280" y1="116" y2="110" stroke-dasharray="none"/>
            <line clip-path="url(#clipPath32)" fill="none" x1="280" x2="264" y1="110" y2="104" stroke-dasharray="none"/>
            <line clip-path="url(#clipPath28)" fill="none" x1="300" x2="470" y1="210" y2="210" stroke-dasharray="none"/>
            <text x="296" xml:space="preserve" stroke-dasharray="none" y="201" clip-path="url(#clipPath37)" stroke="none">  sendSectionCreationRequestToServer()</text>
            <line clip-path="url(#clipPath38)" fill="none" x1="454" x2="470" y1="216" y2="210" stroke-dasharray="none"/>
            <line clip-path="url(#clipPath38)" fill="none" x1="470" x2="454" y1="210" y2="204" stroke-dasharray="none"/>
            <line clip-path="url(#clipPath28)" fill="none" x1="490" x2="640" y1="310" y2="310" stroke-dasharray="none"/>
            <text x="525" xml:space="preserve" stroke-dasharray="none" y="301" clip-path="url(#clipPath35)" stroke="none">  addNewSection()</text>
            <line clip-path="url(#clipPath36)" fill="none" x1="624" x2="640" y1="316" y2="310" stroke-dasharray="none"/>
            <line clip-path="url(#clipPath36)" fill="none" x1="640" x2="624" y1="310" y2="304" stroke-dasharray="none"/>
            <line clip-path="url(#clipPath28)" fill="none" x1="660" x2="850" y1="410" y2="410" stroke-dasharray="none"/>
            <text x="715" xml:space="preserve" stroke-dasharray="none" y="401" clip-path="url(#clipPath33)" stroke="none">  addNewSection()</text>
            <line clip-path="url(#clipPath34)" fill="none" x1="834" x2="850" y1="416" y2="410" stroke-dasharray="none"/>
            <line clip-path="url(#clipPath34)" fill="none" x1="850" x2="834" y1="410" y2="404" stroke-dasharray="none"/>
            <line y2="510" fill="none" x1="850" clip-path="url(#clipPath28)" x2="480" y1="510"/>
            <text x="598" xml:space="preserve" y="527" clip-path="url(#clipPath29)" stroke="none">Send Response Back to Client</text>
            <line clip-path="url(#clipPath30)" fill="none" x1="496" x2="480" y1="504" y2="510" stroke-dasharray="none"/>
            <line clip-path="url(#clipPath30)" fill="none" x1="480" x2="496" y1="510" y2="516" stroke-dasharray="none"/>
        </g>
    </g>
    <rect x="10" y="10" fill-opacity="0" width="966" id="Menu Section - Add Section Interaction" height="757" stroke-opacity="0"/>
    <rect x="70" y="40" fill-opacity="0" width="100" id="LLineUser" height="700" stroke-opacity="0"/>
    <rect x="230" y="40" fill-opacity="0" width="120" id="LLineCanvasWebPage" height="700" stroke-opacity="0"/>
    <rect x="280" y="110" fill-opacity="0" width="20" id="BehaviorExecutionSpecification9" height="100" stroke-opacity="0"/>
    <rect x="410" y="40" fill-opacity="0" width="141" id="SendSectionRequestToServer" height="700" stroke-opacity="0"/>
    <rect x="470" y="210" fill-opacity="0" width="20" id="BehaviorExecutionSpecification13" height="100" stroke-opacity="0"/>
    <rect x="570" y="40" fill-opacity="0" width="161" id="ControllerEndPoint" height="700" stroke-opacity="0"/>
    <rect x="640" y="310" fill-opacity="0" width="20" id="BehaviorExecutionSpecification17" height="100" stroke-opacity="0"/>
    <rect x="750" y="40" fill-opacity="0" width="221" id="LLineCanvaService" height="700" stroke-opacity="0"/>
    <rect x="850" y="410" fill-opacity="0" width="20" id="BehaviorExecutionSpecification21" height="100" stroke-opacity="0"/>
</svg>
