<?xml version="1.0" encoding="UTF-8"?><svg xmlns="http://www.w3.org/2000/svg" xmlns:xlink="http://www.w3.org/1999/xlink" stroke-dasharray="none" shape-rendering="auto" font-family="'Dialog'" width="885" text-rendering="auto" fill-opacity="1" contentScriptType="text/ecmascript" color-interpolation="auto" color-rendering="auto" preserveAspectRatio="xMidYMid meet" font-size="12px" viewBox="0 0 885 1020" fill="black" stroke="black" image-rendering="auto" stroke-miterlimit="10" zoomAndPan="magnify" version="1.0" stroke-linecap="square" stroke-linejoin="miter" contentStyleType="text/css" font-style="normal" height="1020" stroke-width="1" stroke-dashoffset="0" font-weight="normal" stroke-opacity="1">
    <!--Generated by the Batik Graphics2D SVG Generator-->
    <defs id="genericDefs"/>
    <g>
        <defs id="defs1">
            <linearGradient x1="10" x2="10" y1="10" gradientUnits="userSpaceOnUse" y2="767" xlink:type="simple" xlink:actuate="onLoad" id="linearGradient1" xlink:show="other" spreadMethod="pad">
                <stop stop-opacity="1" stop-color="white" offset="0%"/>
                <stop stop-opacity="1" stop-color="white" offset="100%"/>
            </linearGradient>
            <linearGradient x1="110" x2="110" y1="40" gradientUnits="userSpaceOnUse" y2="740" xlink:type="simple" xlink:actuate="onLoad" id="linearGradient2" xlink:show="other" spreadMethod="pad">
                <stop stop-opacity="1" stop-color="white" offset="0%"/>
                <stop stop-opacity="1" stop-color="rgb(195,209,213)" offset="100%"/>
            </linearGradient>
            <linearGradient x1="330" x2="330" y1="40" gradientUnits="userSpaceOnUse" y2="740" xlink:type="simple" xlink:actuate="onLoad" id="linearGradient3" xlink:show="other" spreadMethod="pad">
                <stop stop-opacity="1" stop-color="white" offset="0%"/>
                <stop stop-opacity="1" stop-color="rgb(195,209,213)" offset="100%"/>
            </linearGradient>
            <linearGradient x1="370" x2="370" y1="110" gradientUnits="userSpaceOnUse" y2="210" xlink:type="simple" xlink:actuate="onLoad" id="linearGradient4" xlink:show="other" spreadMethod="pad">
                <stop stop-opacity="1" stop-color="white" offset="0%"/>
                <stop stop-opacity="1" stop-color="rgb(195,209,213)" offset="100%"/>
            </linearGradient>
            <linearGradient x1="370" x2="370" y1="310" gradientUnits="userSpaceOnUse" y2="410" xlink:type="simple" xlink:actuate="onLoad" id="linearGradient5" xlink:show="other" spreadMethod="pad">
                <stop stop-opacity="1" stop-color="white" offset="0%"/>
                <stop stop-opacity="1" stop-color="rgb(195,209,213)" offset="100%"/>
            </linearGradient>
            <linearGradient x1="370" x2="370" y1="510" gradientUnits="userSpaceOnUse" y2="610" xlink:type="simple" xlink:actuate="onLoad" id="linearGradient6" xlink:show="other" spreadMethod="pad">
                <stop stop-opacity="1" stop-color="white" offset="0%"/>
                <stop stop-opacity="1" stop-color="rgb(195,209,213)" offset="100%"/>
            </linearGradient>
            <linearGradient x1="550" x2="550" y1="40" gradientUnits="userSpaceOnUse" y2="740" xlink:type="simple" xlink:actuate="onLoad" id="linearGradient7" xlink:show="other" spreadMethod="pad">
                <stop stop-opacity="1" stop-color="white" offset="0%"/>
                <stop stop-opacity="1" stop-color="rgb(195,209,213)" offset="100%"/>
            </linearGradient>
            <linearGradient x1="590" x2="590" y1="210" gradientUnits="userSpaceOnUse" y2="310" xlink:type="simple" xlink:actuate="onLoad" id="linearGradient8" xlink:show="other" spreadMethod="pad">
                <stop stop-opacity="1" stop-color="white" offset="0%"/>
                <stop stop-opacity="1" stop-color="rgb(195,209,213)" offset="100%"/>
            </linearGradient>
            <linearGradient x1="770" x2="770" y1="40" gradientUnits="userSpaceOnUse" y2="740" xlink:type="simple" xlink:actuate="onLoad" id="linearGradient9" xlink:show="other" spreadMethod="pad">
                <stop stop-opacity="1" stop-color="white" offset="0%"/>
                <stop stop-opacity="1" stop-color="rgb(195,209,213)" offset="100%"/>
            </linearGradient>
            <linearGradient x1="810" x2="810" y1="410" gradientUnits="userSpaceOnUse" y2="510" xlink:type="simple" xlink:actuate="onLoad" id="linearGradient10" xlink:show="other" spreadMethod="pad">
                <stop stop-opacity="1" stop-color="white" offset="0%"/>
                <stop stop-opacity="1" stop-color="rgb(195,209,213)" offset="100%"/>
            </linearGradient>
            <clipPath clipPathUnits="userSpaceOnUse" id="clipPath1">
                <path d="M10 10 L10 766 L874 766 L874 10 Z"/>
            </clipPath>
            <clipPath clipPathUnits="userSpaceOnUse" id="clipPath2">
                <path d="M7 7 L878 7 L878 770 L7 770 L7 7 Z"/>
            </clipPath>
            <clipPath clipPathUnits="userSpaceOnUse" id="clipPath3">
                <path d="M15 12 L53 12 L53 25 L15 25 L15 12 Z"/>
            </clipPath>
            <clipPath clipPathUnits="userSpaceOnUse" id="clipPath4">
                <path d="M109 39 L211 39 L211 741 L109 741 L109 39 Z"/>
            </clipPath>
            <clipPath clipPathUnits="userSpaceOnUse" id="clipPath5">
                <path d="M110 40 L110 739 L209 739 L209 40 Z"/>
            </clipPath>
            <clipPath clipPathUnits="userSpaceOnUse" id="clipPath6">
                <path d="M149 42 L172 42 L172 55 L149 55 L149 42 Z"/>
            </clipPath>
            <clipPath clipPathUnits="userSpaceOnUse" id="clipPath7">
                <path d="M329 39 L431 39 L431 741 L329 741 L329 39 Z"/>
            </clipPath>
            <clipPath clipPathUnits="userSpaceOnUse" id="clipPath8">
                <path d="M330 40 L330 739 L429 739 L429 40 Z"/>
            </clipPath>
            <clipPath clipPathUnits="userSpaceOnUse" id="clipPath9">
                <path d="M342 42 L420 42 L420 55 L342 55 L342 42 Z"/>
            </clipPath>
            <clipPath clipPathUnits="userSpaceOnUse" id="clipPath10">
                <path d="M370 110 L370 209 L389 209 L389 110 Z"/>
            </clipPath>
            <clipPath clipPathUnits="userSpaceOnUse" id="clipPath11">
                <path d="M369 109 L391 109 L391 211 L369 211 L369 109 Z"/>
            </clipPath>
            <clipPath clipPathUnits="userSpaceOnUse" id="clipPath12">
                <path d="M370 310 L370 409 L389 409 L389 310 Z"/>
            </clipPath>
            <clipPath clipPathUnits="userSpaceOnUse" id="clipPath13">
                <path d="M369 309 L391 309 L391 411 L369 411 L369 309 Z"/>
            </clipPath>
            <clipPath clipPathUnits="userSpaceOnUse" id="clipPath14">
                <path d="M370 510 L370 609 L389 609 L389 510 Z"/>
            </clipPath>
            <clipPath clipPathUnits="userSpaceOnUse" id="clipPath15">
                <path d="M369 509 L391 509 L391 611 L369 611 L369 509 Z"/>
            </clipPath>
            <clipPath clipPathUnits="userSpaceOnUse" id="clipPath16">
                <path d="M549 39 L651 39 L651 741 L549 741 L549 39 Z"/>
            </clipPath>
            <clipPath clipPathUnits="userSpaceOnUse" id="clipPath17">
                <path d="M550 40 L550 739 L649 739 L649 40 Z"/>
            </clipPath>
            <clipPath clipPathUnits="userSpaceOnUse" id="clipPath18">
                <path d="M552 42 L649 42 L649 55 L552 55 L552 42 Z"/>
            </clipPath>
            <clipPath clipPathUnits="userSpaceOnUse" id="clipPath19">
                <path d="M590 210 L590 309 L609 309 L609 210 Z"/>
            </clipPath>
            <clipPath clipPathUnits="userSpaceOnUse" id="clipPath20">
                <path d="M589 209 L611 209 L611 311 L589 311 L589 209 Z"/>
            </clipPath>
            <clipPath clipPathUnits="userSpaceOnUse" id="clipPath21">
                <path d="M769 39 L871 39 L871 741 L769 741 L769 39 Z"/>
            </clipPath>
            <clipPath clipPathUnits="userSpaceOnUse" id="clipPath22">
                <path d="M770 40 L770 739 L869 739 L869 40 Z"/>
            </clipPath>
            <clipPath clipPathUnits="userSpaceOnUse" id="clipPath23">
                <path d="M786 42 L856 42 L856 55 L786 55 L786 42 Z"/>
            </clipPath>
            <clipPath clipPathUnits="userSpaceOnUse" id="clipPath24">
                <path d="M810 410 L810 509 L829 509 L829 410 Z"/>
            </clipPath>
            <clipPath clipPathUnits="userSpaceOnUse" id="clipPath25">
                <path d="M809 409 L831 409 L831 511 L809 511 L809 409 Z"/>
            </clipPath>
            <clipPath clipPathUnits="userSpaceOnUse" id="clipPath26">
                <path d="M9 9 L876 9 L876 768 L9 768 L9 9 Z"/>
            </clipPath>
            <clipPath clipPathUnits="userSpaceOnUse" id="clipPath27">
                <path d="M-1 -1 L886 -1 L886 1021 L-1 1021 L-1 -1 Z"/>
            </clipPath>
            <clipPath clipPathUnits="userSpaceOnUse" id="clipPath28">
                <path d="M448 317 L531 317 L531 330 L448 330 L448 317 Z"/>
            </clipPath>
            <clipPath clipPathUnits="userSpaceOnUse" id="clipPath29">
                <path d="M389 303 L408 303 L408 318 L389 318 L389 303 Z"/>
            </clipPath>
            <clipPath clipPathUnits="userSpaceOnUse" id="clipPath30">
                <path d="M442 191 L540 191 L540 204 L442 204 L442 191 Z"/>
            </clipPath>
            <clipPath clipPathUnits="userSpaceOnUse" id="clipPath31">
                <path d="M573 203 L592 203 L592 218 L573 218 L573 203 Z"/>
            </clipPath>
            <clipPath clipPathUnits="userSpaceOnUse" id="clipPath32">
                <path d="M572 391 L631 391 L631 404 L572 404 L572 391 Z"/>
            </clipPath>
            <clipPath clipPathUnits="userSpaceOnUse" id="clipPath33">
                <path d="M793 403 L812 403 L812 418 L793 418 L793 403 Z"/>
            </clipPath>
            <clipPath clipPathUnits="userSpaceOnUse" id="clipPath34">
                <path d="M233 617 L295 617 L295 630 L233 630 L233 617 Z"/>
            </clipPath>
            <clipPath clipPathUnits="userSpaceOnUse" id="clipPath35">
                <path d="M159 603 L178 603 L178 618 L159 618 L159 603 Z"/>
            </clipPath>
            <clipPath clipPathUnits="userSpaceOnUse" id="clipPath36">
                <path d="M233 91 L299 91 L299 104 L233 104 L233 91 Z"/>
            </clipPath>
            <clipPath clipPathUnits="userSpaceOnUse" id="clipPath37">
                <path d="M353 103 L372 103 L372 118 L353 118 L353 103 Z"/>
            </clipPath>
            <clipPath clipPathUnits="userSpaceOnUse" id="clipPath38">
                <path d="M564 517 L634 517 L634 530 L564 530 L564 517 Z"/>
            </clipPath>
            <clipPath clipPathUnits="userSpaceOnUse" id="clipPath39">
                <path d="M389 503 L408 503 L408 518 L389 518 L389 503 Z"/>
            </clipPath>
        </defs>
        <g font-size="11px" fill="url(#linearGradient1)" font-family="'.AppleSystemUIFont'" stroke-linejoin="round" stroke="url(#linearGradient1)" stroke-width="0" stroke-miterlimit="0">
            <rect x="10" width="865" height="757" y="10" clip-path="url(#clipPath1)" stroke="none"/>
        </g>
        <g font-size="11px" stroke-width="0.1" font-family="'.AppleSystemUIFont'" stroke-linecap="butt">
            <line y2="20" fill="none" x1="66" clip-path="url(#clipPath2)" x2="66" y1="10"/>
            <line y2="20" fill="none" x1="66" clip-path="url(#clipPath2)" x2="66" y1="20"/>
            <line y2="24" fill="none" x1="66" clip-path="url(#clipPath2)" x2="62" y1="20"/>
            <line y2="24" fill="none" x1="62" clip-path="url(#clipPath2)" x2="62" y1="24"/>
            <line y2="24" fill="none" x1="62" clip-path="url(#clipPath2)" x2="10" y1="24"/>
            <text x="16" xml:space="preserve" font-size="9px" y="22" clip-path="url(#clipPath3)" stroke="none">Logout  </text>
            <rect x="110" y="40" clip-path="url(#clipPath4)" fill="none" width="99" height="14" stroke-width="1.1"/>
            <line clip-path="url(#clipPath4)" fill="none" x1="160" x2="160" y1="54" y2="739" stroke-dasharray="5,5" stroke-width="1.1"/>
        </g>
        <g stroke-linecap="butt" font-size="11px" fill="url(#linearGradient2)" font-family="'.AppleSystemUIFont'" stroke-dasharray="5,5" stroke="url(#linearGradient2)" stroke-width="1.1">
            <rect x="110" y="40" clip-path="url(#clipPath5)" width="100" height="700" opacity="0" stroke="none"/>
            <text x="150" font-size="9px" y="52" clip-path="url(#clipPath6)" fill="black" stroke="none" xml:space="preserve">User</text>
            <rect x="330" y="40" clip-path="url(#clipPath7)" fill="none" width="99" stroke-dasharray="none" height="14" stroke="black"/>
            <line clip-path="url(#clipPath7)" fill="none" x1="380" x2="380" y1="54" y2="739" stroke="black"/>
            <rect x="330" y="40" clip-path="url(#clipPath8)" fill="url(#linearGradient3)" width="100" opacity="0" height="700" stroke="none"/>
            <text x="343" font-size="9px" y="52" clip-path="url(#clipPath9)" fill="black" stroke="none" xml:space="preserve">session : Session</text>
            <rect x="370" y="110" clip-path="url(#clipPath10)" fill="url(#linearGradient4)" width="20" height="100" stroke="none"/>
            <rect x="370" y="110" clip-path="url(#clipPath11)" fill="none" width="19" stroke-dasharray="none" rx="0" ry="0" height="99" stroke="black"/>
            <rect x="370" y="310" clip-path="url(#clipPath12)" fill="url(#linearGradient5)" width="20" stroke-dasharray="none" height="100" stroke="none"/>
            <rect x="370" y="310" clip-path="url(#clipPath13)" fill="none" width="19" stroke-dasharray="none" rx="0" ry="0" height="99" stroke="black"/>
            <rect x="370" y="510" clip-path="url(#clipPath14)" fill="url(#linearGradient6)" width="20" stroke-dasharray="none" height="100" stroke="none"/>
            <rect x="370" y="510" clip-path="url(#clipPath15)" fill="none" width="19" stroke-dasharray="none" rx="0" ry="0" height="99" stroke="black"/>
            <rect x="550" y="40" clip-path="url(#clipPath16)" fill="none" width="99" stroke-dasharray="none" height="14" stroke="black"/>
            <line clip-path="url(#clipPath16)" fill="none" x1="600" x2="600" y1="54" y2="739" stroke="black"/>
            <rect x="550" y="40" clip-path="url(#clipPath17)" fill="url(#linearGradient7)" width="100" opacity="0" height="700" stroke="none"/>
            <text x="553" font-size="9px" y="52" clip-path="url(#clipPath18)" fill="black" stroke="none" xml:space="preserve">authenticationServi...</text>
            <rect x="590" y="210" clip-path="url(#clipPath19)" fill="url(#linearGradient8)" width="20" height="100" stroke="none"/>
            <rect x="590" y="210" clip-path="url(#clipPath20)" fill="none" width="19" stroke-dasharray="none" rx="0" ry="0" height="99" stroke="black"/>
            <rect x="770" y="40" clip-path="url(#clipPath21)" fill="none" width="99" stroke-dasharray="none" height="14" stroke="black"/>
            <line clip-path="url(#clipPath21)" fill="none" x1="820" x2="820" y1="54" y2="739" stroke="black"/>
            <rect x="770" y="40" clip-path="url(#clipPath22)" fill="url(#linearGradient9)" width="100" opacity="0" height="700" stroke="none"/>
            <text x="787" font-size="9px" y="52" clip-path="url(#clipPath23)" fill="black" stroke="none" xml:space="preserve">logger : Logger</text>
            <rect x="810" y="410" clip-path="url(#clipPath24)" fill="url(#linearGradient10)" width="20" height="100" stroke="none"/>
            <rect x="810" y="410" clip-path="url(#clipPath25)" fill="none" width="19" stroke-dasharray="none" rx="0" ry="0" height="99" stroke="black"/>
            <rect x="10" y="10" clip-path="url(#clipPath26)" fill="none" width="864" stroke-dasharray="none" rx="0" ry="0" height="756" stroke="black"/>
        </g>
        <g text-rendering="optimizeLegibility" stroke-width="1.1" font-size="9px" font-family="'.AppleSystemUIFont'" stroke-linecap="butt">
            <line y2="310" fill="none" x1="590" clip-path="url(#clipPath27)" x2="390" y1="310"/>
            <text x="449" xml:space="preserve" y="327" clip-path="url(#clipPath28)" stroke="none">  CurrentSession()</text>
            <line y2="310" fill="none" x1="406" clip-path="url(#clipPath29)" x2="390" y1="304"/>
            <line y2="316" fill="none" x1="390" clip-path="url(#clipPath29)" x2="406" y1="310"/>
            <line y2="210" fill="none" x1="390" clip-path="url(#clipPath27)" x2="590" y1="210"/>
            <text x="443" xml:space="preserve" y="201" clip-path="url(#clipPath30)" stroke="none">  GetCurrentSession()</text>
            <line y2="210" fill="none" x1="574" clip-path="url(#clipPath31)" x2="590" y1="216"/>
            <line y2="204" fill="none" x1="590" clip-path="url(#clipPath31)" x2="574" y1="210"/>
            <line y2="410" fill="none" x1="390" clip-path="url(#clipPath27)" x2="810" y1="410"/>
            <text x="573" xml:space="preserve" y="401" clip-path="url(#clipPath32)" stroke="none">  Terminate()</text>
            <line y2="410" fill="none" x1="794" clip-path="url(#clipPath33)" x2="810" y1="416"/>
            <line y2="404" fill="none" x1="810" clip-path="url(#clipPath33)" x2="794" y1="410"/>
            <line y2="610" fill="none" x1="370" clip-path="url(#clipPath27)" x2="160" y1="610"/>
            <text x="234" xml:space="preserve" y="627" clip-path="url(#clipPath34)" stroke="none">Conformation</text>
            <line y2="610" fill="none" x1="176" clip-path="url(#clipPath35)" x2="160" y1="604"/>
            <line y2="616" fill="none" x1="160" clip-path="url(#clipPath35)" x2="176" y1="610"/>
            <line y2="110" fill="none" x1="160" clip-path="url(#clipPath27)" x2="370" y1="110"/>
            <text x="234" xml:space="preserve" y="101" clip-path="url(#clipPath36)" stroke="none">  LogoutUser()</text>
            <line y2="110" fill="none" x1="354" clip-path="url(#clipPath37)" x2="370" y1="116"/>
            <line y2="104" fill="none" x1="370" clip-path="url(#clipPath37)" x2="354" y1="110"/>
            <line y2="510" fill="none" x1="810" clip-path="url(#clipPath27)" x2="390" y1="510"/>
            <text x="565" xml:space="preserve" y="527" clip-path="url(#clipPath38)" stroke="none">  LogoutEvent()</text>
            <line y2="510" fill="none" x1="406" clip-path="url(#clipPath39)" x2="390" y1="504"/>
            <line y2="516" fill="none" x1="390" clip-path="url(#clipPath39)" x2="406" y1="510"/>
            <line y2="110" fill="none" x1="160" clip-path="url(#clipPath27)" x2="370" y1="110"/>
            <text x="234" xml:space="preserve" y="101" clip-path="url(#clipPath36)" stroke="none">  LogoutUser()</text>
            <line y2="110" fill="none" x1="354" clip-path="url(#clipPath37)" x2="370" y1="116"/>
            <line y2="104" fill="none" x1="370" clip-path="url(#clipPath37)" x2="354" y1="110"/>
            <line y2="210" fill="none" x1="390" clip-path="url(#clipPath27)" x2="590" y1="210"/>
            <text x="443" xml:space="preserve" y="201" clip-path="url(#clipPath30)" stroke="none">  GetCurrentSession()</text>
            <line y2="210" fill="none" x1="574" clip-path="url(#clipPath31)" x2="590" y1="216"/>
            <line y2="204" fill="none" x1="590" clip-path="url(#clipPath31)" x2="574" y1="210"/>
            <line y2="310" fill="none" x1="590" clip-path="url(#clipPath27)" x2="390" y1="310"/>
            <text x="449" xml:space="preserve" y="327" clip-path="url(#clipPath28)" stroke="none">  CurrentSession()</text>
            <line y2="310" fill="none" x1="406" clip-path="url(#clipPath29)" x2="390" y1="304"/>
            <line y2="316" fill="none" x1="390" clip-path="url(#clipPath29)" x2="406" y1="310"/>
            <line y2="410" fill="none" x1="390" clip-path="url(#clipPath27)" x2="810" y1="410"/>
            <text x="573" xml:space="preserve" y="401" clip-path="url(#clipPath32)" stroke="none">  Terminate()</text>
            <line y2="410" fill="none" x1="794" clip-path="url(#clipPath33)" x2="810" y1="416"/>
            <line y2="404" fill="none" x1="810" clip-path="url(#clipPath33)" x2="794" y1="410"/>
            <line y2="510" fill="none" x1="810" clip-path="url(#clipPath27)" x2="390" y1="510"/>
            <text x="565" xml:space="preserve" y="527" clip-path="url(#clipPath38)" stroke="none">  LogoutEvent()</text>
            <line y2="510" fill="none" x1="406" clip-path="url(#clipPath39)" x2="390" y1="504"/>
            <line y2="516" fill="none" x1="390" clip-path="url(#clipPath39)" x2="406" y1="510"/>
            <line y2="610" fill="none" x1="370" clip-path="url(#clipPath27)" x2="160" y1="610"/>
            <text x="234" xml:space="preserve" y="627" clip-path="url(#clipPath34)" stroke="none">Conformation</text>
            <line y2="610" fill="none" x1="176" clip-path="url(#clipPath35)" x2="160" y1="604"/>
            <line y2="616" fill="none" x1="160" clip-path="url(#clipPath35)" x2="176" y1="610"/>
        </g>
    </g>
</svg>
