<?xml version="1.0" encoding="UTF-8"?><svg xmlns="http://www.w3.org/2000/svg" xmlns:xlink="http://www.w3.org/1999/xlink" stroke-dasharray="none" shape-rendering="auto" font-family="'Dialog'" width="877" text-rendering="auto" fill-opacity="1" contentScriptType="text/ecmascript" color-interpolation="auto" color-rendering="auto" preserveAspectRatio="xMidYMid meet" font-size="12px" viewBox="0 0 877 1020" fill="black" stroke="black" image-rendering="auto" stroke-miterlimit="10" zoomAndPan="magnify" version="1.0" stroke-linecap="square" stroke-linejoin="miter" contentStyleType="text/css" font-style="normal" height="1020" stroke-width="1" stroke-dashoffset="0" font-weight="normal" stroke-opacity="1">
    <!--Generated by the Batik Graphics2D SVG Generator-->
    <defs id="genericDefs"/>
    <g>
        <defs id="defs1">
            <linearGradient x1="10" x2="10" y1="10" gradientUnits="userSpaceOnUse" y2="767" xlink:type="simple" xlink:actuate="onLoad" id="linearGradient1" xlink:show="other" spreadMethod="pad">
                <stop stop-opacity="1" stop-color="white" offset="0%"/>
                <stop stop-opacity="1" stop-color="white" offset="100%"/>
            </linearGradient>
            <linearGradient x1="70" x2="70" y1="40" gradientUnits="userSpaceOnUse" y2="740" xlink:type="simple" xlink:actuate="onLoad" id="linearGradient2" xlink:show="other" spreadMethod="pad">
                <stop stop-opacity="1" stop-color="white" offset="0%"/>
                <stop stop-opacity="1" stop-color="rgb(195,209,213)" offset="100%"/>
            </linearGradient>
            <linearGradient x1="110" x2="110" y1="326" gradientUnits="userSpaceOnUse" y2="426" xlink:type="simple" xlink:actuate="onLoad" id="linearGradient3" xlink:show="other" spreadMethod="pad">
                <stop stop-opacity="1" stop-color="white" offset="0%"/>
                <stop stop-opacity="1" stop-color="rgb(195,209,213)" offset="100%"/>
            </linearGradient>
            <linearGradient x1="330" x2="330" y1="40" gradientUnits="userSpaceOnUse" y2="740" xlink:type="simple" xlink:actuate="onLoad" id="linearGradient4" xlink:show="other" spreadMethod="pad">
                <stop stop-opacity="1" stop-color="white" offset="0%"/>
                <stop stop-opacity="1" stop-color="rgb(195,209,213)" offset="100%"/>
            </linearGradient>
            <linearGradient x1="370" x2="370" y1="126" gradientUnits="userSpaceOnUse" y2="226" xlink:type="simple" xlink:actuate="onLoad" id="linearGradient5" xlink:show="other" spreadMethod="pad">
                <stop stop-opacity="1" stop-color="white" offset="0%"/>
                <stop stop-opacity="1" stop-color="rgb(195,209,213)" offset="100%"/>
            </linearGradient>
            <linearGradient x1="370" x2="370" y1="426" gradientUnits="userSpaceOnUse" y2="526" xlink:type="simple" xlink:actuate="onLoad" id="linearGradient6" xlink:show="other" spreadMethod="pad">
                <stop stop-opacity="1" stop-color="white" offset="0%"/>
                <stop stop-opacity="1" stop-color="rgb(195,209,213)" offset="100%"/>
            </linearGradient>
            <linearGradient x1="650" x2="650" y1="40" gradientUnits="userSpaceOnUse" y2="740" xlink:type="simple" xlink:actuate="onLoad" id="linearGradient7" xlink:show="other" spreadMethod="pad">
                <stop stop-opacity="1" stop-color="white" offset="0%"/>
                <stop stop-opacity="1" stop-color="rgb(195,209,213)" offset="100%"/>
            </linearGradient>
            <linearGradient x1="690" x2="690" y1="226" gradientUnits="userSpaceOnUse" y2="326" xlink:type="simple" xlink:actuate="onLoad" id="linearGradient8" xlink:show="other" spreadMethod="pad">
                <stop stop-opacity="1" stop-color="white" offset="0%"/>
                <stop stop-opacity="1" stop-color="rgb(195,209,213)" offset="100%"/>
            </linearGradient>
            <clipPath clipPathUnits="userSpaceOnUse" id="clipPath1">
                <path d="M10 10 L10 766 L866 766 L866 10 Z"/>
            </clipPath>
            <clipPath clipPathUnits="userSpaceOnUse" id="clipPath2">
                <path d="M7 7 L870 7 L870 770 L7 770 L7 7 Z"/>
            </clipPath>
            <clipPath clipPathUnits="userSpaceOnUse" id="clipPath3">
                <path d="M15 12 L74 12 L74 25 L15 25 L15 12 Z"/>
            </clipPath>
            <clipPath clipPathUnits="userSpaceOnUse" id="clipPath4">
                <path d="M69 39 L171 39 L171 741 L69 741 L69 39 Z"/>
            </clipPath>
            <clipPath clipPathUnits="userSpaceOnUse" id="clipPath5">
                <path d="M70 40 L70 739 L169 739 L169 40 Z"/>
            </clipPath>
            <clipPath clipPathUnits="userSpaceOnUse" id="clipPath6">
                <path d="M92 42 L150 42 L150 55 L92 55 L92 42 Z"/>
            </clipPath>
            <clipPath clipPathUnits="userSpaceOnUse" id="clipPath7">
                <path d="M110 326 L110 425 L129 425 L129 326 Z"/>
            </clipPath>
            <clipPath clipPathUnits="userSpaceOnUse" id="clipPath8">
                <path d="M109 325 L131 325 L131 427 L109 427 L109 325 Z"/>
            </clipPath>
            <clipPath clipPathUnits="userSpaceOnUse" id="clipPath9">
                <path d="M329 39 L431 39 L431 741 L329 741 L329 39 Z"/>
            </clipPath>
            <clipPath clipPathUnits="userSpaceOnUse" id="clipPath10">
                <path d="M330 40 L330 739 L429 739 L429 40 Z"/>
            </clipPath>
            <clipPath clipPathUnits="userSpaceOnUse" id="clipPath11">
                <path d="M330 42 L431 42 L431 55 L330 55 L330 42 Z"/>
            </clipPath>
            <clipPath clipPathUnits="userSpaceOnUse" id="clipPath12">
                <path d="M370 126 L370 225 L389 225 L389 126 Z"/>
            </clipPath>
            <clipPath clipPathUnits="userSpaceOnUse" id="clipPath13">
                <path d="M369 125 L391 125 L391 227 L369 227 L369 125 Z"/>
            </clipPath>
            <clipPath clipPathUnits="userSpaceOnUse" id="clipPath14">
                <path d="M370 426 L370 525 L389 525 L389 426 Z"/>
            </clipPath>
            <clipPath clipPathUnits="userSpaceOnUse" id="clipPath15">
                <path d="M369 425 L391 425 L391 527 L369 527 L369 425 Z"/>
            </clipPath>
            <clipPath clipPathUnits="userSpaceOnUse" id="clipPath16">
                <path d="M649 39 L751 39 L751 741 L649 741 L649 39 Z"/>
            </clipPath>
            <clipPath clipPathUnits="userSpaceOnUse" id="clipPath17">
                <path d="M650 40 L650 739 L749 739 L749 40 Z"/>
            </clipPath>
            <clipPath clipPathUnits="userSpaceOnUse" id="clipPath18">
                <path d="M652 42 L750 42 L750 55 L652 55 L652 42 Z"/>
            </clipPath>
            <clipPath clipPathUnits="userSpaceOnUse" id="clipPath19">
                <path d="M690 226 L690 325 L709 325 L709 226 Z"/>
            </clipPath>
            <clipPath clipPathUnits="userSpaceOnUse" id="clipPath20">
                <path d="M689 225 L711 225 L711 327 L689 327 L689 225 Z"/>
            </clipPath>
            <clipPath clipPathUnits="userSpaceOnUse" id="clipPath21">
                <path d="M9 9 L868 9 L868 768 L9 768 L9 9 Z"/>
            </clipPath>
            <clipPath clipPathUnits="userSpaceOnUse" id="clipPath22">
                <path d="M-1 -1 L878 -1 L878 1021 L-1 1021 L-1 -1 Z"/>
            </clipPath>
            <clipPath clipPathUnits="userSpaceOnUse" id="clipPath23">
                <path d="M379 333 L440 333 L440 346 L379 346 L379 333 Z"/>
            </clipPath>
            <clipPath clipPathUnits="userSpaceOnUse" id="clipPath24">
                <path d="M129 319 L148 319 L148 334 L129 334 L129 319 Z"/>
            </clipPath>
            <clipPath clipPathUnits="userSpaceOnUse" id="clipPath25">
                <path d="M489 211 L584 211 L584 224 L489 224 L489 211 Z"/>
            </clipPath>
            <clipPath clipPathUnits="userSpaceOnUse" id="clipPath26">
                <path d="M673 223 L692 223 L692 238 L673 238 L673 223 Z"/>
            </clipPath>
            <clipPath clipPathUnits="userSpaceOnUse" id="clipPath27">
                <path d="M199 111 L294 111 L294 124 L199 124 L199 111 Z"/>
            </clipPath>
            <clipPath clipPathUnits="userSpaceOnUse" id="clipPath28">
                <path d="M353 123 L372 123 L372 138 L353 138 L353 123 Z"/>
            </clipPath>
            <clipPath clipPathUnits="userSpaceOnUse" id="clipPath29">
                <path d="M204 411 L288 411 L288 424 L204 424 L204 411 Z"/>
            </clipPath>
            <clipPath clipPathUnits="userSpaceOnUse" id="clipPath30">
                <path d="M353 423 L372 423 L372 438 L353 438 L353 423 Z"/>
            </clipPath>
            <clipPath clipPathUnits="userSpaceOnUse" id="clipPath31">
                <path d="M209 533 L280 533 L280 546 L209 546 L209 533 Z"/>
            </clipPath>
            <clipPath clipPathUnits="userSpaceOnUse" id="clipPath32">
                <path d="M119 519 L138 519 L138 534 L119 534 L119 519 Z"/>
            </clipPath>
        </defs>
        <g font-size="11px" fill="url(#linearGradient1)" font-family="'.AppleSystemUIFont'" stroke-linejoin="round" stroke="url(#linearGradient1)" stroke-width="0" stroke-miterlimit="0">
            <rect x="10" width="857" height="757" y="10" clip-path="url(#clipPath1)" stroke="none"/>
        </g>
        <g font-size="11px" stroke-width="0.1" font-family="'.AppleSystemUIFont'" stroke-linecap="butt">
            <line y2="20" fill="none" x1="87" clip-path="url(#clipPath2)" x2="87" y1="10"/>
            <line y2="20" fill="none" x1="87" clip-path="url(#clipPath2)" x2="87" y1="20"/>
            <line y2="24" fill="none" x1="87" clip-path="url(#clipPath2)" x2="83" y1="20"/>
            <line y2="24" fill="none" x1="83" clip-path="url(#clipPath2)" x2="83" y1="24"/>
            <line y2="24" fill="none" x1="83" clip-path="url(#clipPath2)" x2="10" y1="24"/>
            <text x="16" xml:space="preserve" font-size="9px" y="22" clip-path="url(#clipPath3)" stroke="none">Interaction1  </text>
            <rect x="70" y="40" clip-path="url(#clipPath4)" fill="none" width="99" height="14" stroke-width="1.1"/>
            <line clip-path="url(#clipPath4)" fill="none" x1="120" x2="120" y1="54" y2="739" stroke-dasharray="5,5" stroke-width="1.1"/>
        </g>
        <g stroke-linecap="butt" font-size="11px" fill="url(#linearGradient2)" font-family="'.AppleSystemUIFont'" stroke-dasharray="5,5" stroke="url(#linearGradient2)" stroke-width="1.1">
            <rect x="70" y="40" clip-path="url(#clipPath5)" width="100" height="700" opacity="0" stroke="none"/>
            <text x="93" font-size="9px" y="52" clip-path="url(#clipPath6)" fill="black" stroke="none" xml:space="preserve">PUser : User</text>
            <rect x="110" y="326" clip-path="url(#clipPath7)" fill="url(#linearGradient3)" width="20" height="100" stroke="none"/>
            <rect x="110" y="326" clip-path="url(#clipPath8)" fill="none" width="19" stroke-dasharray="none" rx="0" ry="0" height="99" stroke="black"/>
            <rect x="330" y="40" clip-path="url(#clipPath9)" fill="none" width="99" stroke-dasharray="none" height="14" stroke="black"/>
            <line clip-path="url(#clipPath9)" fill="none" x1="380" x2="380" y1="54" y2="739" stroke="black"/>
            <rect x="330" y="40" clip-path="url(#clipPath10)" fill="url(#linearGradient4)" width="100" opacity="0" height="700" stroke="none"/>
            <text x="331" font-size="9px" y="52" clip-path="url(#clipPath11)" fill="black" stroke="none" xml:space="preserve">profileService : Profi...</text>
            <rect x="370" y="126" clip-path="url(#clipPath12)" fill="url(#linearGradient5)" width="20" height="100" stroke="none"/>
            <rect x="370" y="126" clip-path="url(#clipPath13)" fill="none" width="19" stroke-dasharray="none" rx="0" ry="0" height="99" stroke="black"/>
            <rect x="370" y="426" clip-path="url(#clipPath14)" fill="url(#linearGradient6)" width="20" stroke-dasharray="none" height="100" stroke="none"/>
            <rect x="370" y="426" clip-path="url(#clipPath15)" fill="none" width="19" stroke-dasharray="none" rx="0" ry="0" height="99" stroke="black"/>
            <rect x="650" y="40" clip-path="url(#clipPath16)" fill="none" width="99" stroke-dasharray="none" height="14" stroke="black"/>
            <line clip-path="url(#clipPath16)" fill="none" x1="700" x2="700" y1="54" y2="739" stroke="black"/>
            <rect x="650" y="40" clip-path="url(#clipPath17)" fill="url(#linearGradient7)" width="100" opacity="0" height="700" stroke="none"/>
            <text x="653" font-size="9px" y="52" clip-path="url(#clipPath18)" fill="black" stroke="none" xml:space="preserve">NotifService : Notifi...</text>
            <rect x="690" y="226" clip-path="url(#clipPath19)" fill="url(#linearGradient8)" width="20" height="100" stroke="none"/>
            <rect x="690" y="226" clip-path="url(#clipPath20)" fill="none" width="19" stroke-dasharray="none" rx="0" ry="0" height="99" stroke="black"/>
            <rect x="10" y="10" clip-path="url(#clipPath21)" fill="none" width="856" stroke-dasharray="none" rx="0" ry="0" height="756" stroke="black"/>
        </g>
        <g text-rendering="optimizeLegibility" stroke-width="1.1" font-size="9px" font-family="'.AppleSystemUIFont'" stroke-linecap="butt">
            <line y2="326" fill="none" x1="690" clip-path="url(#clipPath22)" x2="130" y1="326"/>
            <text x="380" xml:space="preserve" y="343" clip-path="url(#clipPath23)" stroke="none">  SendEmail()</text>
            <line y2="326" fill="none" x1="146" clip-path="url(#clipPath24)" x2="130" y1="320"/>
            <line y2="332" fill="none" x1="130" clip-path="url(#clipPath24)" x2="146" y1="326"/>
            <line y2="230" fill="none" x1="380" clip-path="url(#clipPath22)" x2="690" y1="230"/>
            <text x="490" xml:space="preserve" y="221" clip-path="url(#clipPath25)" stroke="none">  Generate2FACode()</text>
            <line y2="230" fill="none" x1="674" clip-path="url(#clipPath26)" x2="690" y1="236"/>
            <line y2="224" fill="none" x1="690" clip-path="url(#clipPath26)" x2="674" y1="230"/>
            <line y2="130" fill="none" x1="120" clip-path="url(#clipPath22)" x2="370" y1="130"/>
            <text x="200" xml:space="preserve" y="121" clip-path="url(#clipPath27)" stroke="none">  submitCredentials()</text>
            <line y2="130" fill="none" x1="354" clip-path="url(#clipPath28)" x2="370" y1="136"/>
            <line y2="124" fill="none" x1="370" clip-path="url(#clipPath28)" x2="354" y1="130"/>
            <line y2="430" fill="none" x1="120" clip-path="url(#clipPath22)" x2="370" y1="430"/>
            <text x="205" xml:space="preserve" y="421" clip-path="url(#clipPath29)" stroke="none">  Submit2FACred()</text>
            <line y2="430" fill="none" x1="354" clip-path="url(#clipPath30)" x2="370" y1="436"/>
            <line y2="424" fill="none" x1="370" clip-path="url(#clipPath30)" x2="354" y1="430"/>
            <line y2="526" fill="none" x1="370" clip-path="url(#clipPath22)" x2="120" y1="526"/>
            <text x="210" xml:space="preserve" y="543" clip-path="url(#clipPath31)" stroke="none">  GrantAccess()</text>
            <line y2="526" fill="none" x1="136" clip-path="url(#clipPath32)" x2="120" y1="520"/>
            <line y2="532" fill="none" x1="120" clip-path="url(#clipPath32)" x2="136" y1="526"/>
            <line y2="130" fill="none" x1="120" clip-path="url(#clipPath22)" x2="370" y1="130"/>
            <text x="200" xml:space="preserve" y="121" clip-path="url(#clipPath27)" stroke="none">  submitCredentials()</text>
            <line y2="130" fill="none" x1="354" clip-path="url(#clipPath28)" x2="370" y1="136"/>
            <line y2="124" fill="none" x1="370" clip-path="url(#clipPath28)" x2="354" y1="130"/>
            <line y2="230" fill="none" x1="380" clip-path="url(#clipPath22)" x2="690" y1="230"/>
            <text x="490" xml:space="preserve" y="221" clip-path="url(#clipPath25)" stroke="none">  Generate2FACode()</text>
            <line y2="230" fill="none" x1="674" clip-path="url(#clipPath26)" x2="690" y1="236"/>
            <line y2="224" fill="none" x1="690" clip-path="url(#clipPath26)" x2="674" y1="230"/>
            <line y2="326" fill="none" x1="690" clip-path="url(#clipPath22)" x2="130" y1="326"/>
            <text x="380" xml:space="preserve" y="343" clip-path="url(#clipPath23)" stroke="none">  SendEmail()</text>
            <line y2="326" fill="none" x1="146" clip-path="url(#clipPath24)" x2="130" y1="320"/>
            <line y2="332" fill="none" x1="130" clip-path="url(#clipPath24)" x2="146" y1="326"/>
            <line y2="430" fill="none" x1="120" clip-path="url(#clipPath22)" x2="370" y1="430"/>
            <text x="205" xml:space="preserve" y="421" clip-path="url(#clipPath29)" stroke="none">  Submit2FACred()</text>
            <line y2="430" fill="none" x1="354" clip-path="url(#clipPath30)" x2="370" y1="436"/>
            <line y2="424" fill="none" x1="370" clip-path="url(#clipPath30)" x2="354" y1="430"/>
            <line y2="526" fill="none" x1="370" clip-path="url(#clipPath22)" x2="120" y1="526"/>
            <text x="210" xml:space="preserve" y="543" clip-path="url(#clipPath31)" stroke="none">  GrantAccess()</text>
            <line y2="526" fill="none" x1="136" clip-path="url(#clipPath32)" x2="120" y1="520"/>
            <line y2="532" fill="none" x1="120" clip-path="url(#clipPath32)" x2="136" y1="526"/>
        </g>
    </g>
</svg>
