<?xml version="1.0" encoding="UTF-8"?><svg xmlns="http://www.w3.org/2000/svg" xmlns:xlink="http://www.w3.org/1999/xlink" stroke-dasharray="none" shape-rendering="auto" font-family="'Dialog'" width="886" text-rendering="auto" fill-opacity="1" contentScriptType="text/ecmascript" color-interpolation="auto" color-rendering="auto" preserveAspectRatio="xMidYMid meet" font-size="12px" viewBox="0 0 886 1020" fill="black" stroke="black" image-rendering="auto" stroke-miterlimit="10" zoomAndPan="magnify" version="1.0" stroke-linecap="square" stroke-linejoin="miter" contentStyleType="text/css" font-style="normal" height="1020" stroke-width="1" stroke-dashoffset="0" font-weight="normal" stroke-opacity="1">
    <!--Generated by the Batik Graphics2D SVG Generator-->
    <defs id="genericDefs"/>
    <g>
        <defs id="defs1">
            <linearGradient x1="10" x2="10" y1="10" gradientUnits="userSpaceOnUse" y2="767" xlink:type="simple" xlink:actuate="onLoad" id="linearGradient1" xlink:show="other" spreadMethod="pad">
                <stop stop-opacity="1" stop-color="white" offset="0%"/>
                <stop stop-opacity="1" stop-color="white" offset="100%"/>
            </linearGradient>
            <linearGradient x1="70" x2="70" y1="40" gradientUnits="userSpaceOnUse" y2="740" xlink:type="simple" xlink:actuate="onLoad" id="linearGradient2" xlink:show="other" spreadMethod="pad">
                <stop stop-opacity="1" stop-color="white" offset="0%"/>
                <stop stop-opacity="1" stop-color="rgb(195,209,213)" offset="100%"/>
            </linearGradient>
            <linearGradient x1="190" x2="190" y1="40" gradientUnits="userSpaceOnUse" y2="740" xlink:type="simple" xlink:actuate="onLoad" id="linearGradient3" xlink:show="other" spreadMethod="pad">
                <stop stop-opacity="1" stop-color="white" offset="0%"/>
                <stop stop-opacity="1" stop-color="rgb(195,209,213)" offset="100%"/>
            </linearGradient>
            <linearGradient x1="240" x2="240" y1="110" gradientUnits="userSpaceOnUse" y2="210" xlink:type="simple" xlink:actuate="onLoad" id="linearGradient4" xlink:show="other" spreadMethod="pad">
                <stop stop-opacity="1" stop-color="white" offset="0%"/>
                <stop stop-opacity="1" stop-color="rgb(195,209,213)" offset="100%"/>
            </linearGradient>
            <linearGradient x1="330" x2="330" y1="40" gradientUnits="userSpaceOnUse" y2="740" xlink:type="simple" xlink:actuate="onLoad" id="linearGradient5" xlink:show="other" spreadMethod="pad">
                <stop stop-opacity="1" stop-color="white" offset="0%"/>
                <stop stop-opacity="1" stop-color="rgb(195,209,213)" offset="100%"/>
            </linearGradient>
            <linearGradient x1="390" x2="390" y1="210" gradientUnits="userSpaceOnUse" y2="310" xlink:type="simple" xlink:actuate="onLoad" id="linearGradient6" xlink:show="other" spreadMethod="pad">
                <stop stop-opacity="1" stop-color="white" offset="0%"/>
                <stop stop-opacity="1" stop-color="rgb(195,209,213)" offset="100%"/>
            </linearGradient>
            <linearGradient x1="550" x2="550" y1="40" gradientUnits="userSpaceOnUse" y2="740" xlink:type="simple" xlink:actuate="onLoad" id="linearGradient7" xlink:show="other" spreadMethod="pad">
                <stop stop-opacity="1" stop-color="white" offset="0%"/>
                <stop stop-opacity="1" stop-color="rgb(195,209,213)" offset="100%"/>
            </linearGradient>
            <linearGradient x1="620" x2="620" y1="310" gradientUnits="userSpaceOnUse" y2="410" xlink:type="simple" xlink:actuate="onLoad" id="linearGradient8" xlink:show="other" spreadMethod="pad">
                <stop stop-opacity="1" stop-color="white" offset="0%"/>
                <stop stop-opacity="1" stop-color="rgb(195,209,213)" offset="100%"/>
            </linearGradient>
            <linearGradient x1="730" x2="730" y1="40" gradientUnits="userSpaceOnUse" y2="740" xlink:type="simple" xlink:actuate="onLoad" id="linearGradient9" xlink:show="other" spreadMethod="pad">
                <stop stop-opacity="1" stop-color="white" offset="0%"/>
                <stop stop-opacity="1" stop-color="rgb(195,209,213)" offset="100%"/>
            </linearGradient>
            <linearGradient x1="790" x2="790" y1="410" gradientUnits="userSpaceOnUse" y2="510" xlink:type="simple" xlink:actuate="onLoad" id="linearGradient10" xlink:show="other" spreadMethod="pad">
                <stop stop-opacity="1" stop-color="white" offset="0%"/>
                <stop stop-opacity="1" stop-color="rgb(195,209,213)" offset="100%"/>
            </linearGradient>
            <clipPath clipPathUnits="userSpaceOnUse" id="clipPath1">
                <path d="M10 10 L10 766 L875 766 L875 10 Z"/>
            </clipPath>
            <clipPath clipPathUnits="userSpaceOnUse" id="clipPath2">
                <path d="M7 7 L879 7 L879 770 L7 770 L7 7 Z"/>
            </clipPath>
            <clipPath clipPathUnits="userSpaceOnUse" id="clipPath3">
                <path d="M15 12 L209 12 L209 25 L15 25 L15 12 Z"/>
            </clipPath>
            <clipPath clipPathUnits="userSpaceOnUse" id="clipPath4">
                <path d="M69 39 L171 39 L171 741 L69 741 L69 39 Z"/>
            </clipPath>
            <clipPath clipPathUnits="userSpaceOnUse" id="clipPath5">
                <path d="M70 40 L70 739 L169 739 L169 40 Z"/>
            </clipPath>
            <clipPath clipPathUnits="userSpaceOnUse" id="clipPath6">
                <path d="M97 42 L144 42 L144 55 L97 55 L97 42 Z"/>
            </clipPath>
            <clipPath clipPathUnits="userSpaceOnUse" id="clipPath7">
                <path d="M189 39 L311 39 L311 741 L189 741 L189 39 Z"/>
            </clipPath>
            <clipPath clipPathUnits="userSpaceOnUse" id="clipPath8">
                <path d="M190 40 L190 739 L309 739 L309 40 Z"/>
            </clipPath>
            <clipPath clipPathUnits="userSpaceOnUse" id="clipPath9">
                <path d="M197 42 L304 42 L304 55 L197 55 L197 42 Z"/>
            </clipPath>
            <clipPath clipPathUnits="userSpaceOnUse" id="clipPath10">
                <path d="M240 110 L240 209 L259 209 L259 110 Z"/>
            </clipPath>
            <clipPath clipPathUnits="userSpaceOnUse" id="clipPath11">
                <path d="M239 109 L261 109 L261 211 L239 211 L239 109 Z"/>
            </clipPath>
            <clipPath clipPathUnits="userSpaceOnUse" id="clipPath12">
                <path d="M329 39 L472 39 L472 741 L329 741 L329 39 Z"/>
            </clipPath>
            <clipPath clipPathUnits="userSpaceOnUse" id="clipPath13">
                <path d="M330 40 L330 739 L470 739 L470 40 Z"/>
            </clipPath>
            <clipPath clipPathUnits="userSpaceOnUse" id="clipPath14">
                <path d="M337 42 L466 42 L466 55 L337 55 L337 42 Z"/>
            </clipPath>
            <clipPath clipPathUnits="userSpaceOnUse" id="clipPath15">
                <path d="M390 210 L390 309 L409 309 L409 210 Z"/>
            </clipPath>
            <clipPath clipPathUnits="userSpaceOnUse" id="clipPath16">
                <path d="M389 209 L411 209 L411 311 L389 311 L389 209 Z"/>
            </clipPath>
            <clipPath clipPathUnits="userSpaceOnUse" id="clipPath17">
                <path d="M549 39 L712 39 L712 741 L549 741 L549 39 Z"/>
            </clipPath>
            <clipPath clipPathUnits="userSpaceOnUse" id="clipPath18">
                <path d="M550 40 L550 739 L710 739 L710 40 Z"/>
            </clipPath>
            <clipPath clipPathUnits="userSpaceOnUse" id="clipPath19">
                <path d="M556 42 L707 42 L707 55 L556 55 L556 42 Z"/>
            </clipPath>
            <clipPath clipPathUnits="userSpaceOnUse" id="clipPath20">
                <path d="M620 310 L620 409 L639 409 L639 310 Z"/>
            </clipPath>
            <clipPath clipPathUnits="userSpaceOnUse" id="clipPath21">
                <path d="M619 309 L641 309 L641 411 L619 411 L619 309 Z"/>
            </clipPath>
            <clipPath clipPathUnits="userSpaceOnUse" id="clipPath22">
                <path d="M729 39 L872 39 L872 741 L729 741 L729 39 Z"/>
            </clipPath>
            <clipPath clipPathUnits="userSpaceOnUse" id="clipPath23">
                <path d="M730 40 L730 739 L870 739 L870 40 Z"/>
            </clipPath>
            <clipPath clipPathUnits="userSpaceOnUse" id="clipPath24">
                <path d="M739 42 L863 42 L863 55 L739 55 L739 42 Z"/>
            </clipPath>
            <clipPath clipPathUnits="userSpaceOnUse" id="clipPath25">
                <path d="M790 410 L790 509 L809 509 L809 410 Z"/>
            </clipPath>
            <clipPath clipPathUnits="userSpaceOnUse" id="clipPath26">
                <path d="M789 409 L811 409 L811 511 L789 511 L789 409 Z"/>
            </clipPath>
            <clipPath clipPathUnits="userSpaceOnUse" id="clipPath27">
                <path d="M9 9 L877 9 L877 768 L9 768 L9 9 Z"/>
            </clipPath>
            <clipPath clipPathUnits="userSpaceOnUse" id="clipPath28">
                <path d="M-1 -1 L887 -1 L887 1021 L-1 1021 L-1 -1 Z"/>
            </clipPath>
            <clipPath clipPathUnits="userSpaceOnUse" id="clipPath29">
                <path d="M527 517 L661 517 L661 530 L527 530 L527 517 Z"/>
            </clipPath>
            <clipPath clipPathUnits="userSpaceOnUse" id="clipPath30">
                <path d="M399 503 L418 503 L418 518 L399 518 L399 503 Z"/>
            </clipPath>
            <clipPath clipPathUnits="userSpaceOnUse" id="clipPath31">
                <path d="M256 191 L396 191 L396 204 L256 204 L256 191 Z"/>
            </clipPath>
            <clipPath clipPathUnits="userSpaceOnUse" id="clipPath32">
                <path d="M373 203 L392 203 L392 218 L373 218 L373 203 Z"/>
            </clipPath>
            <clipPath clipPathUnits="userSpaceOnUse" id="clipPath33">
                <path d="M677 391 L756 391 L756 404 L677 404 L677 391 Z"/>
            </clipPath>
            <clipPath clipPathUnits="userSpaceOnUse" id="clipPath34">
                <path d="M773 403 L792 403 L792 418 L773 418 L773 403 Z"/>
            </clipPath>
            <clipPath clipPathUnits="userSpaceOnUse" id="clipPath35">
                <path d="M138 91 L224 91 L224 104 L138 104 L138 91 Z"/>
            </clipPath>
            <clipPath clipPathUnits="userSpaceOnUse" id="clipPath36">
                <path d="M223 103 L242 103 L242 118 L223 118 L223 103 Z"/>
            </clipPath>
            <clipPath clipPathUnits="userSpaceOnUse" id="clipPath37">
                <path d="M477 291 L556 291 L556 304 L477 304 L477 291 Z"/>
            </clipPath>
            <clipPath clipPathUnits="userSpaceOnUse" id="clipPath38">
                <path d="M603 303 L622 303 L622 318 L603 318 L603 303 Z"/>
            </clipPath>
        </defs>
        <g font-size="11px" fill="url(#linearGradient1)" font-family="'.AppleSystemUIFont'" stroke-linejoin="round" stroke="url(#linearGradient1)" stroke-width="0" stroke-miterlimit="0">
            <rect x="10" width="866" height="757" y="10" clip-path="url(#clipPath1)" stroke="none"/>
        </g>
        <g font-size="11px" stroke-width="0.1" font-family="'.AppleSystemUIFont'" stroke-linecap="butt">
            <line y2="20" fill="none" x1="222" clip-path="url(#clipPath2)" x2="222" y1="10"/>
            <line y2="20" fill="none" x1="222" clip-path="url(#clipPath2)" x2="222" y1="20"/>
            <line y2="24" fill="none" x1="222" clip-path="url(#clipPath2)" x2="218" y1="20"/>
            <line y2="24" fill="none" x1="218" clip-path="url(#clipPath2)" x2="218" y1="24"/>
            <line y2="24" fill="none" x1="218" clip-path="url(#clipPath2)" x2="10" y1="24"/>
            <text x="16" xml:space="preserve" font-size="9px" y="22" clip-path="url(#clipPath3)" stroke="none">Menu Section - Modify Section Interaction  </text>
            <rect x="70" y="40" clip-path="url(#clipPath4)" fill="none" width="99" height="14" stroke-width="1.1"/>
            <line clip-path="url(#clipPath4)" fill="none" x1="120" x2="120" y1="54" y2="739" stroke-dasharray="5,5" stroke-width="1.1"/>
        </g>
        <g stroke-linecap="butt" font-size="11px" fill="url(#linearGradient2)" font-family="'.AppleSystemUIFont'" stroke-dasharray="5,5" stroke="url(#linearGradient2)" stroke-width="1.1">
            <rect x="70" y="40" clip-path="url(#clipPath5)" width="100" height="700" opacity="0" stroke="none"/>
            <text x="98" font-size="9px" y="52" clip-path="url(#clipPath6)" fill="black" stroke="none" xml:space="preserve">LLineUser</text>
            <rect x="190" y="40" clip-path="url(#clipPath7)" fill="none" width="119" stroke-dasharray="none" height="14" stroke="black"/>
            <line clip-path="url(#clipPath7)" fill="none" x1="250" x2="250" y1="54" y2="739" stroke="black"/>
            <rect x="190" y="40" clip-path="url(#clipPath8)" fill="url(#linearGradient3)" width="120" opacity="0" height="700" stroke="none"/>
            <text x="198" font-size="9px" y="52" clip-path="url(#clipPath9)" fill="black" stroke="none" xml:space="preserve">canvaPage : CanvaPage</text>
            <rect x="240" y="110" clip-path="url(#clipPath10)" fill="url(#linearGradient4)" width="20" height="100" stroke="none"/>
            <rect x="240" y="110" clip-path="url(#clipPath11)" fill="none" width="19" stroke-dasharray="none" rx="0" ry="0" height="99" stroke="black"/>
            <rect x="330" y="40" clip-path="url(#clipPath12)" fill="none" width="140" stroke-dasharray="none" height="14" stroke="black"/>
            <line clip-path="url(#clipPath12)" fill="none" x1="400" x2="400" y1="54" y2="739" stroke="black"/>
            <rect x="330" y="40" clip-path="url(#clipPath13)" fill="url(#linearGradient5)" width="141" opacity="0" height="700" stroke="none"/>
            <text x="338" font-size="9px" y="52" clip-path="url(#clipPath14)" fill="black" stroke="none" xml:space="preserve">canvaService : CanvaService</text>
            <rect x="390" y="210" clip-path="url(#clipPath15)" fill="url(#linearGradient6)" width="20" height="100" stroke="none"/>
            <rect x="390" y="210" clip-path="url(#clipPath16)" fill="none" width="19" stroke-dasharray="none" rx="0" ry="0" height="99" stroke="black"/>
            <rect x="550" y="40" clip-path="url(#clipPath17)" fill="none" width="160" stroke-dasharray="none" height="14" stroke="black"/>
            <line clip-path="url(#clipPath17)" fill="none" x1="630" x2="630" y1="54" y2="739" stroke="black"/>
            <rect x="550" y="40" clip-path="url(#clipPath18)" fill="url(#linearGradient7)" width="161" opacity="0" height="700" stroke="none"/>
            <text x="557" font-size="9px" y="52" clip-path="url(#clipPath19)" fill="black" stroke="none" xml:space="preserve">canvaController : CanvaController</text>
            <rect x="620" y="310" clip-path="url(#clipPath20)" fill="url(#linearGradient8)" width="20" height="100" stroke="none"/>
            <rect x="620" y="310" clip-path="url(#clipPath21)" fill="none" width="19" stroke-dasharray="none" rx="0" ry="0" height="99" stroke="black"/>
            <rect x="730" y="40" clip-path="url(#clipPath22)" fill="none" width="140" stroke-dasharray="none" height="14" stroke="black"/>
            <line clip-path="url(#clipPath22)" fill="none" x1="800" x2="800" y1="54" y2="739" stroke="black"/>
            <rect x="730" y="40" clip-path="url(#clipPath23)" fill="url(#linearGradient9)" width="141" opacity="0" height="700" stroke="none"/>
            <text x="740" font-size="9px" y="52" clip-path="url(#clipPath24)" fill="black" stroke="none" xml:space="preserve">LLineCanvaManagerService</text>
            <rect x="790" y="410" clip-path="url(#clipPath25)" fill="url(#linearGradient10)" width="20" height="100" stroke="none"/>
            <rect x="790" y="410" clip-path="url(#clipPath26)" fill="none" width="19" stroke-dasharray="none" rx="0" ry="0" height="99" stroke="black"/>
            <rect x="10" y="10" clip-path="url(#clipPath27)" fill="none" width="865" stroke-dasharray="none" rx="0" ry="0" height="756" stroke="black"/>
        </g>
        <g text-rendering="optimizeLegibility" stroke-width="1.1" font-size="9px" stroke-dasharray="6.6,3.3" font-family="'.AppleSystemUIFont'" stroke-linecap="butt">
            <line y2="510" fill="none" x1="790" clip-path="url(#clipPath28)" x2="400" y1="510"/>
            <text x="528" xml:space="preserve" y="527" clip-path="url(#clipPath29)" stroke="none">Send Response Back to Client</text>
            <line clip-path="url(#clipPath30)" fill="none" x1="416" x2="400" y1="504" y2="510" stroke-dasharray="none"/>
            <line clip-path="url(#clipPath30)" fill="none" x1="400" x2="416" y1="510" y2="516" stroke-dasharray="none"/>
            <line clip-path="url(#clipPath28)" fill="none" x1="260" x2="390" y1="210" y2="210" stroke-dasharray="none"/>
            <text x="257" xml:space="preserve" stroke-dasharray="none" y="201" clip-path="url(#clipPath31)" stroke="none">  sendSectionUpdateToServer()</text>
            <line clip-path="url(#clipPath32)" fill="none" x1="374" x2="390" y1="216" y2="210" stroke-dasharray="none"/>
            <line clip-path="url(#clipPath32)" fill="none" x1="390" x2="374" y1="210" y2="204" stroke-dasharray="none"/>
            <line clip-path="url(#clipPath28)" fill="none" x1="640" x2="790" y1="410" y2="410" stroke-dasharray="none"/>
            <text x="678" xml:space="preserve" stroke-dasharray="none" y="401" clip-path="url(#clipPath33)" stroke="none">  updateSection()</text>
            <line clip-path="url(#clipPath34)" fill="none" x1="774" x2="790" y1="416" y2="410" stroke-dasharray="none"/>
            <line clip-path="url(#clipPath34)" fill="none" x1="790" x2="774" y1="410" y2="404" stroke-dasharray="none"/>
            <line clip-path="url(#clipPath28)" fill="none" x1="120" x2="240" y1="110" y2="110" stroke-dasharray="none"/>
            <text x="139" xml:space="preserve" stroke-dasharray="none" y="101" clip-path="url(#clipPath35)" stroke="none">UserModifySection</text>
            <line clip-path="url(#clipPath36)" fill="none" x1="224" x2="240" y1="116" y2="110" stroke-dasharray="none"/>
            <line clip-path="url(#clipPath36)" fill="none" x1="240" x2="224" y1="110" y2="104" stroke-dasharray="none"/>
            <line clip-path="url(#clipPath28)" fill="none" x1="410" x2="620" y1="310" y2="310" stroke-dasharray="none"/>
            <text x="478" xml:space="preserve" stroke-dasharray="none" y="301" clip-path="url(#clipPath37)" stroke="none">  updateSection()</text>
            <line clip-path="url(#clipPath38)" fill="none" x1="604" x2="620" y1="316" y2="310" stroke-dasharray="none"/>
            <line clip-path="url(#clipPath38)" fill="none" x1="620" x2="604" y1="310" y2="304" stroke-dasharray="none"/>
            <line clip-path="url(#clipPath28)" fill="none" x1="120" x2="240" y1="110" y2="110" stroke-dasharray="none"/>
            <text x="139" xml:space="preserve" stroke-dasharray="none" y="101" clip-path="url(#clipPath35)" stroke="none">UserModifySection</text>
            <line clip-path="url(#clipPath36)" fill="none" x1="224" x2="240" y1="116" y2="110" stroke-dasharray="none"/>
            <line clip-path="url(#clipPath36)" fill="none" x1="240" x2="224" y1="110" y2="104" stroke-dasharray="none"/>
            <line clip-path="url(#clipPath28)" fill="none" x1="260" x2="390" y1="210" y2="210" stroke-dasharray="none"/>
            <text x="257" xml:space="preserve" stroke-dasharray="none" y="201" clip-path="url(#clipPath31)" stroke="none">  sendSectionUpdateToServer()</text>
            <line clip-path="url(#clipPath32)" fill="none" x1="374" x2="390" y1="216" y2="210" stroke-dasharray="none"/>
            <line clip-path="url(#clipPath32)" fill="none" x1="390" x2="374" y1="210" y2="204" stroke-dasharray="none"/>
            <line clip-path="url(#clipPath28)" fill="none" x1="410" x2="620" y1="310" y2="310" stroke-dasharray="none"/>
            <text x="478" xml:space="preserve" stroke-dasharray="none" y="301" clip-path="url(#clipPath37)" stroke="none">  updateSection()</text>
            <line clip-path="url(#clipPath38)" fill="none" x1="604" x2="620" y1="316" y2="310" stroke-dasharray="none"/>
            <line clip-path="url(#clipPath38)" fill="none" x1="620" x2="604" y1="310" y2="304" stroke-dasharray="none"/>
            <line clip-path="url(#clipPath28)" fill="none" x1="640" x2="790" y1="410" y2="410" stroke-dasharray="none"/>
            <text x="678" xml:space="preserve" stroke-dasharray="none" y="401" clip-path="url(#clipPath33)" stroke="none">  updateSection()</text>
            <line clip-path="url(#clipPath34)" fill="none" x1="774" x2="790" y1="416" y2="410" stroke-dasharray="none"/>
            <line clip-path="url(#clipPath34)" fill="none" x1="790" x2="774" y1="410" y2="404" stroke-dasharray="none"/>
            <line y2="510" fill="none" x1="790" clip-path="url(#clipPath28)" x2="400" y1="510"/>
            <text x="528" xml:space="preserve" y="527" clip-path="url(#clipPath29)" stroke="none">Send Response Back to Client</text>
            <line clip-path="url(#clipPath30)" fill="none" x1="416" x2="400" y1="504" y2="510" stroke-dasharray="none"/>
            <line clip-path="url(#clipPath30)" fill="none" x1="400" x2="416" y1="510" y2="516" stroke-dasharray="none"/>
        </g>
    </g>
</svg>
