<?xml version="1.0" encoding="UTF-8"?><svg xmlns="http://www.w3.org/2000/svg" xmlns:xlink="http://www.w3.org/1999/xlink" stroke-dasharray="none" shape-rendering="auto" font-family="'Dialog'" width="877" text-rendering="auto" fill-opacity="1" contentScriptType="text/ecmascript" color-interpolation="auto" color-rendering="auto" preserveAspectRatio="xMidYMid meet" font-size="12px" viewBox="0 0 877 1020" fill="black" stroke="black" image-rendering="auto" stroke-miterlimit="10" zoomAndPan="magnify" version="1.0" stroke-linecap="square" stroke-linejoin="miter" contentStyleType="text/css" font-style="normal" height="1020" stroke-width="1" stroke-dashoffset="0" font-weight="normal" stroke-opacity="1">
    <!--Generated by the Batik Graphics2D SVG Generator-->
    <defs id="genericDefs"/>
    <g>
        <defs id="defs1">
            <linearGradient x1="10" x2="10" y1="10" gradientUnits="userSpaceOnUse" y2="767" xlink:type="simple" xlink:actuate="onLoad" id="linearGradient1" xlink:show="other" spreadMethod="pad">
                <stop stop-opacity="1" stop-color="white" offset="0%"/>
                <stop stop-opacity="1" stop-color="white" offset="100%"/>
            </linearGradient>
            <linearGradient x1="50" x2="50" y1="40" gradientUnits="userSpaceOnUse" y2="740" xlink:type="simple" xlink:actuate="onLoad" id="linearGradient2" xlink:show="other" spreadMethod="pad">
                <stop stop-opacity="1" stop-color="white" offset="0%"/>
                <stop stop-opacity="1" stop-color="rgb(195,209,213)" offset="100%"/>
            </linearGradient>
            <linearGradient x1="490" x2="490" y1="40" gradientUnits="userSpaceOnUse" y2="740" xlink:type="simple" xlink:actuate="onLoad" id="linearGradient3" xlink:show="other" spreadMethod="pad">
                <stop stop-opacity="1" stop-color="white" offset="0%"/>
                <stop stop-opacity="1" stop-color="rgb(195,209,213)" offset="100%"/>
            </linearGradient>
            <linearGradient x1="530" x2="530" y1="230" gradientUnits="userSpaceOnUse" y2="330" xlink:type="simple" xlink:actuate="onLoad" id="linearGradient4" xlink:show="other" spreadMethod="pad">
                <stop stop-opacity="1" stop-color="white" offset="0%"/>
                <stop stop-opacity="1" stop-color="rgb(195,209,213)" offset="100%"/>
            </linearGradient>
            <linearGradient x1="270" x2="270" y1="40" gradientUnits="userSpaceOnUse" y2="740" xlink:type="simple" xlink:actuate="onLoad" id="linearGradient5" xlink:show="other" spreadMethod="pad">
                <stop stop-opacity="1" stop-color="white" offset="0%"/>
                <stop stop-opacity="1" stop-color="rgb(195,209,213)" offset="100%"/>
            </linearGradient>
            <linearGradient x1="310" x2="310" y1="130" gradientUnits="userSpaceOnUse" y2="230" xlink:type="simple" xlink:actuate="onLoad" id="linearGradient6" xlink:show="other" spreadMethod="pad">
                <stop stop-opacity="1" stop-color="white" offset="0%"/>
                <stop stop-opacity="1" stop-color="rgb(195,209,213)" offset="100%"/>
            </linearGradient>
            <linearGradient x1="670" x2="670" y1="40" gradientUnits="userSpaceOnUse" y2="740" xlink:type="simple" xlink:actuate="onLoad" id="linearGradient7" xlink:show="other" spreadMethod="pad">
                <stop stop-opacity="1" stop-color="white" offset="0%"/>
                <stop stop-opacity="1" stop-color="rgb(195,209,213)" offset="100%"/>
            </linearGradient>
            <linearGradient x1="710" x2="710" y1="330" gradientUnits="userSpaceOnUse" y2="430" xlink:type="simple" xlink:actuate="onLoad" id="linearGradient8" xlink:show="other" spreadMethod="pad">
                <stop stop-opacity="1" stop-color="white" offset="0%"/>
                <stop stop-opacity="1" stop-color="rgb(195,209,213)" offset="100%"/>
            </linearGradient>
            <clipPath clipPathUnits="userSpaceOnUse" id="clipPath1">
                <path d="M10 10 L10 766 L866 766 L866 10 Z"/>
            </clipPath>
            <clipPath clipPathUnits="userSpaceOnUse" id="clipPath2">
                <path d="M7 7 L870 7 L870 770 L7 770 L7 7 Z"/>
            </clipPath>
            <clipPath clipPathUnits="userSpaceOnUse" id="clipPath3">
                <path d="M15 12 L105 12 L105 25 L15 25 L15 12 Z"/>
            </clipPath>
            <clipPath clipPathUnits="userSpaceOnUse" id="clipPath4">
                <path d="M49 39 L151 39 L151 741 L49 741 L49 39 Z"/>
            </clipPath>
            <clipPath clipPathUnits="userSpaceOnUse" id="clipPath5">
                <path d="M50 40 L50 739 L149 739 L149 40 Z"/>
            </clipPath>
            <clipPath clipPathUnits="userSpaceOnUse" id="clipPath6">
                <path d="M75 42 L126 42 L126 55 L75 55 L75 42 Z"/>
            </clipPath>
            <clipPath clipPathUnits="userSpaceOnUse" id="clipPath7">
                <path d="M489 39 L591 39 L591 741 L489 741 L489 39 Z"/>
            </clipPath>
            <clipPath clipPathUnits="userSpaceOnUse" id="clipPath8">
                <path d="M490 40 L490 739 L589 739 L589 40 Z"/>
            </clipPath>
            <clipPath clipPathUnits="userSpaceOnUse" id="clipPath9">
                <path d="M492 42 L589 42 L589 55 L492 55 L492 42 Z"/>
            </clipPath>
            <clipPath clipPathUnits="userSpaceOnUse" id="clipPath10">
                <path d="M530 230 L530 329 L549 329 L549 230 Z"/>
            </clipPath>
            <clipPath clipPathUnits="userSpaceOnUse" id="clipPath11">
                <path d="M529 229 L551 229 L551 331 L529 331 L529 229 Z"/>
            </clipPath>
            <clipPath clipPathUnits="userSpaceOnUse" id="clipPath12">
                <path d="M269 39 L371 39 L371 741 L269 741 L269 39 Z"/>
            </clipPath>
            <clipPath clipPathUnits="userSpaceOnUse" id="clipPath13">
                <path d="M270 40 L270 739 L369 739 L369 40 Z"/>
            </clipPath>
            <clipPath clipPathUnits="userSpaceOnUse" id="clipPath14">
                <path d="M291 42 L350 42 L350 55 L291 55 L291 42 Z"/>
            </clipPath>
            <clipPath clipPathUnits="userSpaceOnUse" id="clipPath15">
                <path d="M310 130 L310 229 L329 229 L329 130 Z"/>
            </clipPath>
            <clipPath clipPathUnits="userSpaceOnUse" id="clipPath16">
                <path d="M309 129 L331 129 L331 231 L309 231 L309 129 Z"/>
            </clipPath>
            <clipPath clipPathUnits="userSpaceOnUse" id="clipPath17">
                <path d="M669 39 L771 39 L771 741 L669 741 L669 39 Z"/>
            </clipPath>
            <clipPath clipPathUnits="userSpaceOnUse" id="clipPath18">
                <path d="M670 40 L670 739 L769 739 L769 40 Z"/>
            </clipPath>
            <clipPath clipPathUnits="userSpaceOnUse" id="clipPath19">
                <path d="M671 42 L771 42 L771 55 L671 55 L671 42 Z"/>
            </clipPath>
            <clipPath clipPathUnits="userSpaceOnUse" id="clipPath20">
                <path d="M710 330 L710 429 L729 429 L729 330 Z"/>
            </clipPath>
            <clipPath clipPathUnits="userSpaceOnUse" id="clipPath21">
                <path d="M709 329 L731 329 L731 431 L709 431 L709 329 Z"/>
            </clipPath>
            <clipPath clipPathUnits="userSpaceOnUse" id="clipPath22">
                <path d="M9 9 L868 9 L868 768 L9 768 L9 9 Z"/>
            </clipPath>
            <clipPath clipPathUnits="userSpaceOnUse" id="clipPath23">
                <path d="M-1 -1 L878 -1 L878 1021 L-1 1021 L-1 -1 Z"/>
            </clipPath>
            <clipPath clipPathUnits="userSpaceOnUse" id="clipPath24">
                <path d="M385 211 L478 211 L478 224 L385 224 L385 211 Z"/>
            </clipPath>
            <clipPath clipPathUnits="userSpaceOnUse" id="clipPath25">
                <path d="M513 223 L532 223 L532 238 L513 238 L513 223 Z"/>
            </clipPath>
            <clipPath clipPathUnits="userSpaceOnUse" id="clipPath26">
                <path d="M178 111 L235 111 L235 124 L178 124 L178 111 Z"/>
            </clipPath>
            <clipPath clipPathUnits="userSpaceOnUse" id="clipPath27">
                <path d="M293 123 L312 123 L312 138 L293 138 L293 123 Z"/>
            </clipPath>
            <clipPath clipPathUnits="userSpaceOnUse" id="clipPath28">
                <path d="M542 311 L720 311 L720 324 L542 324 L542 311 Z"/>
            </clipPath>
            <clipPath clipPathUnits="userSpaceOnUse" id="clipPath29">
                <path d="M693 323 L712 323 L712 338 L693 338 L693 323 Z"/>
            </clipPath>
            <clipPath clipPathUnits="userSpaceOnUse" id="clipPath30">
                <path d="M490 437 L539 437 L539 450 L490 450 L490 437 Z"/>
            </clipPath>
            <clipPath clipPathUnits="userSpaceOnUse" id="clipPath31">
                <path d="M319 423 L338 423 L338 438 L319 438 L319 423 Z"/>
            </clipPath>
        </defs>
        <g font-size="11px" fill="url(#linearGradient1)" font-family="'.AppleSystemUIFont'" stroke-linejoin="round" stroke="url(#linearGradient1)" stroke-width="0" stroke-miterlimit="0">
            <rect x="10" width="857" height="757" y="10" clip-path="url(#clipPath1)" stroke="none"/>
        </g>
        <g font-size="11px" stroke-width="0.1" font-family="'.AppleSystemUIFont'" stroke-linecap="butt">
            <line y2="20" fill="none" x1="118" clip-path="url(#clipPath2)" x2="118" y1="10"/>
            <line y2="20" fill="none" x1="118" clip-path="url(#clipPath2)" x2="118" y1="20"/>
            <line y2="24" fill="none" x1="118" clip-path="url(#clipPath2)" x2="114" y1="20"/>
            <line y2="24" fill="none" x1="114" clip-path="url(#clipPath2)" x2="114" y1="24"/>
            <line y2="24" fill="none" x1="114" clip-path="url(#clipPath2)" x2="10" y1="24"/>
            <text x="16" xml:space="preserve" font-size="9px" y="22" clip-path="url(#clipPath3)" stroke="none">New Empty Layout  </text>
            <rect x="50" y="40" clip-path="url(#clipPath4)" fill="none" width="99" height="14" stroke-width="1.1"/>
            <line clip-path="url(#clipPath4)" fill="none" x1="100" x2="100" y1="54" y2="739" stroke-dasharray="5,5" stroke-width="1.1"/>
        </g>
        <g stroke-linecap="butt" font-size="11px" fill="url(#linearGradient2)" font-family="'.AppleSystemUIFont'" stroke-dasharray="5,5" stroke="url(#linearGradient2)" stroke-width="1.1">
            <rect x="50" y="40" clip-path="url(#clipPath5)" width="100" height="700" opacity="0" stroke="none"/>
            <text x="76" font-size="9px" y="52" clip-path="url(#clipPath6)" fill="black" stroke="none" xml:space="preserve">user : User</text>
            <rect x="490" y="40" clip-path="url(#clipPath7)" fill="none" width="99" stroke-dasharray="none" height="14" stroke="black"/>
            <line clip-path="url(#clipPath7)" fill="none" x1="540" x2="540" y1="54" y2="739" stroke="black"/>
            <rect x="490" y="40" clip-path="url(#clipPath8)" fill="url(#linearGradient3)" width="100" opacity="0" height="700" stroke="none"/>
            <text x="493" font-size="9px" y="52" clip-path="url(#clipPath9)" fill="black" stroke="none" xml:space="preserve">new empty layout : ...</text>
            <rect x="530" y="230" clip-path="url(#clipPath10)" fill="url(#linearGradient4)" width="20" height="100" stroke="none"/>
            <rect x="530" y="230" clip-path="url(#clipPath11)" fill="none" width="19" stroke-dasharray="none" rx="0" ry="0" height="99" stroke="black"/>
            <rect x="270" y="40" clip-path="url(#clipPath12)" fill="none" width="99" stroke-dasharray="none" height="14" stroke="black"/>
            <line clip-path="url(#clipPath12)" fill="none" x1="320" x2="320" y1="54" y2="739" stroke="black"/>
            <rect x="270" y="40" clip-path="url(#clipPath13)" fill="url(#linearGradient5)" width="100" opacity="0" height="700" stroke="none"/>
            <text x="292" font-size="9px" y="52" clip-path="url(#clipPath14)" fill="black" stroke="none" xml:space="preserve">menu : Menu</text>
            <rect x="310" y="130" clip-path="url(#clipPath15)" fill="url(#linearGradient6)" width="20" height="100" stroke="none"/>
            <rect x="310" y="130" clip-path="url(#clipPath16)" fill="none" width="19" stroke-dasharray="none" rx="0" ry="0" height="99" stroke="black"/>
            <rect x="670" y="40" clip-path="url(#clipPath17)" fill="none" width="99" stroke-dasharray="none" height="14" stroke="black"/>
            <line clip-path="url(#clipPath17)" fill="none" x1="720" x2="720" y1="54" y2="739" stroke="black"/>
            <rect x="670" y="40" clip-path="url(#clipPath18)" fill="url(#linearGradient7)" width="100" opacity="0" height="700" stroke="none"/>
            <text x="672" font-size="9px" y="52" clip-path="url(#clipPath19)" fill="black" stroke="none" xml:space="preserve">canvaService : Canv...</text>
            <rect x="710" y="330" clip-path="url(#clipPath20)" fill="url(#linearGradient8)" width="20" height="100" stroke="none"/>
            <rect x="710" y="330" clip-path="url(#clipPath21)" fill="none" width="19" stroke-dasharray="none" rx="0" ry="0" height="99" stroke="black"/>
            <rect x="10" y="10" clip-path="url(#clipPath22)" fill="none" width="856" stroke-dasharray="none" rx="0" ry="0" height="756" stroke="black"/>
        </g>
        <g text-rendering="optimizeLegibility" stroke-width="1.1" font-size="9px" font-family="'.AppleSystemUIFont'" stroke-linecap="butt">
            <line y2="230" fill="none" x1="330" clip-path="url(#clipPath23)" x2="530" y1="230"/>
            <text x="386" xml:space="preserve" y="221" clip-path="url(#clipPath24)" stroke="none">  CreateNewLayout()</text>
            <line y2="230" fill="none" x1="514" clip-path="url(#clipPath25)" x2="530" y1="236"/>
            <line y2="224" fill="none" x1="530" clip-path="url(#clipPath25)" x2="514" y1="230"/>
            <line y2="130" fill="none" x1="100" clip-path="url(#clipPath23)" x2="310" y1="130"/>
            <text x="179" xml:space="preserve" y="121" clip-path="url(#clipPath26)" stroke="none">  loginUser()</text>
            <line y2="130" fill="none" x1="294" clip-path="url(#clipPath27)" x2="310" y1="136"/>
            <line y2="124" fill="none" x1="310" clip-path="url(#clipPath27)" x2="294" y1="130"/>
            <line y2="330" fill="none" x1="550" clip-path="url(#clipPath23)" x2="710" y1="330"/>
            <text x="543" xml:space="preserve" y="321" clip-path="url(#clipPath28)" stroke="none">  sendLayoutCreationRequestToServer()</text>
            <line y2="330" fill="none" x1="694" clip-path="url(#clipPath29)" x2="710" y1="336"/>
            <line y2="324" fill="none" x1="710" clip-path="url(#clipPath29)" x2="694" y1="330"/>
            <line y2="430" fill="none" x1="710" clip-path="url(#clipPath23)" x2="320" y1="430"/>
            <text x="491" xml:space="preserve" y="447" clip-path="url(#clipPath30)" stroke="none">  Refresh()</text>
            <line y2="430" fill="none" x1="336" clip-path="url(#clipPath31)" x2="320" y1="424"/>
            <line y2="436" fill="none" x1="320" clip-path="url(#clipPath31)" x2="336" y1="430"/>
            <line y2="130" fill="none" x1="100" clip-path="url(#clipPath23)" x2="310" y1="130"/>
            <text x="179" xml:space="preserve" y="121" clip-path="url(#clipPath26)" stroke="none">  loginUser()</text>
            <line y2="130" fill="none" x1="294" clip-path="url(#clipPath27)" x2="310" y1="136"/>
            <line y2="124" fill="none" x1="310" clip-path="url(#clipPath27)" x2="294" y1="130"/>
            <line y2="230" fill="none" x1="330" clip-path="url(#clipPath23)" x2="530" y1="230"/>
            <text x="386" xml:space="preserve" y="221" clip-path="url(#clipPath24)" stroke="none">  CreateNewLayout()</text>
            <line y2="230" fill="none" x1="514" clip-path="url(#clipPath25)" x2="530" y1="236"/>
            <line y2="224" fill="none" x1="530" clip-path="url(#clipPath25)" x2="514" y1="230"/>
            <line y2="330" fill="none" x1="550" clip-path="url(#clipPath23)" x2="710" y1="330"/>
            <text x="543" xml:space="preserve" y="321" clip-path="url(#clipPath28)" stroke="none">  sendLayoutCreationRequestToServer()</text>
            <line y2="330" fill="none" x1="694" clip-path="url(#clipPath29)" x2="710" y1="336"/>
            <line y2="324" fill="none" x1="710" clip-path="url(#clipPath29)" x2="694" y1="330"/>
            <line y2="430" fill="none" x1="710" clip-path="url(#clipPath23)" x2="320" y1="430"/>
            <text x="491" xml:space="preserve" y="447" clip-path="url(#clipPath30)" stroke="none">  Refresh()</text>
            <line y2="430" fill="none" x1="336" clip-path="url(#clipPath31)" x2="320" y1="424"/>
            <line y2="436" fill="none" x1="320" clip-path="url(#clipPath31)" x2="336" y1="430"/>
        </g>
    </g>
</svg>
